M48
;GenerationSoftware,Autodesk,EAGLE,9.6.2*%
;CreationDate,2024-11-12T20:18:45Z*%
FMAT,2
ICI,OFF
METRIC,TZ,000.000
T4C0.350
T3C0.813
T2C1.321
T1C3.200
%
G90
M71
T1
X5334Y34163
X5334Y5131
X54000Y34214
X54026Y5182
T2
X46406Y27534
X40437Y25502
X52375Y25502
X52375Y13310
X40437Y13310
T3
X57048Y24054
X57074Y10846
X57074Y17450
X34147Y33661
X34112Y27330
X4496Y26467
X4572Y22123
T4
X7722Y30277
X18796Y37033
X19152Y25451
X19380Y20345
X7239Y12065
X30429Y8230
X30632Y12827
X11862Y38100
X36678Y8052
X8788Y2210
M30