<?xml version="1.0" encoding="UTF-8" standalone="no"?>
<?xml-stylesheet href="doxygen.css" type="text/css"?>
<!DOCTYPE svg PUBLIC "-//W3C//DTD SVG 1.1//EN"
 "http://www.w3.org/Graphics/SVG/1.1/DTD/svg11.dtd">
<!-- Generated by graphviz version 14.1.1 (20251213.1925)
 -->
<!-- Title: G Pages: 1 -->
<svg width="469pt" height="477pt"
 viewBox="0.00 0.00 469.00 477.00" xmlns="http://www.w3.org/2000/svg" xmlns:xlink="http://www.w3.org/1999/xlink">
<g id="graph0" class="graph" transform="scale(1 1) rotate(0) translate(4 472.8)">
<title>G</title>
<polygon fill="white" stroke="none" points="-4,4 -4,-472.8 465.05,-472.8 465.05,4 -4,4"/>
<!-- node8 -->
<g id="node1" class="node">
<title>node8</title>
<path fill="none" stroke="black" d="M379.95,-468.8C379.95,-468.8 188.45,-468.8 188.45,-468.8 182.45,-468.8 176.45,-462.8 176.45,-456.8 176.45,-456.8 176.45,-444.8 176.45,-444.8 176.45,-438.8 182.45,-432.8 188.45,-432.8 188.45,-432.8 379.95,-432.8 379.95,-432.8 385.95,-432.8 391.95,-438.8 391.95,-444.8 391.95,-444.8 391.95,-456.8 391.95,-456.8 391.95,-462.8 385.95,-468.8 379.95,-468.8"/>
<polygon fill="white" stroke="none" points="184.45,-442.55 184.45,-459.05 383.95,-459.05 383.95,-442.55 184.45,-442.55"/>
<text xml:space="preserve" text-anchor="start" x="184.45" y="-445.75" font-family="Times New Roman,serif" font-size="14.00"> clock_out_proc:process( clk_in,rst) </text>
</g>
<!-- node1 -->
<g id="node2" class="node">
<title>node1</title>
<polygon fill="#c1b2ff" stroke="#c1b2ff" points="284.2,-395.8 107.35,-377.8 284.2,-359.8 461.05,-377.8 284.2,-395.8"/>
<text xml:space="preserve" text-anchor="middle" x="284.2" y="-372.75" font-family="Times New Roman,serif" font-size="14.00"> if &#160;&#160;&#160;rising_edge( clk_in ) then</text>
</g>
<!-- node8&#45;&gt;node1 -->
<g id="edge1" class="edge">
<title>node8&#45;&gt;node1:n</title>
<path fill="none" stroke="green" d="M284.2,-432.78C284.2,-425.3 284.2,-416.18 284.2,-407.11"/>
<polygon fill="green" stroke="green" points="287.7,-407.31 284.2,-397.31 280.7,-407.31 287.7,-407.31"/>
</g>
<!-- node2 -->
<g id="node3" class="node">
<title>node2</title>
<polygon fill="#c1b2ff" stroke="#c1b2ff" points="187.2,-307.3 29.89,-289.3 187.2,-271.3 344.51,-289.3 187.2,-307.3"/>
<text xml:space="preserve" text-anchor="middle" x="187.2" y="-284.25" font-family="Times New Roman,serif" font-size="14.00"> if &#160;&#160;&#160;cnt_i= &#160;&#160;MAX/ 2 then</text>
</g>
<!-- node1&#45;&gt;node2 -->
<g id="edge2" class="edge">
<title>node1:s&#45;&gt;node2:n</title>
<path fill="none" stroke="red" d="M284.2,-359.8C284.2,-315.18 203.85,-348.9 189.41,-318.36"/>
<polygon fill="red" stroke="red" points="192.89,-317.91 187.5,-308.78 186.02,-319.28 192.89,-317.91"/>
<text xml:space="preserve" text-anchor="middle" x="284.9" y="-328.5" font-family="Times New Roman,serif" font-size="14.00">yes</text>
</g>
<!-- node9 -->
<g id="node7" class="node">
<title>node9</title>
<path fill="none" stroke="black" d="M372.7,-36C372.7,-36 305.7,-36 305.7,-36 299.7,-36 293.7,-30 293.7,-24 293.7,-24 293.7,-12 293.7,-12 293.7,-6 299.7,0 305.7,0 305.7,0 372.7,0 372.7,0 378.7,0 384.7,-6 384.7,-12 384.7,-12 384.7,-24 384.7,-24 384.7,-30 378.7,-36 372.7,-36"/>
<polygon fill="white" stroke="none" points="301.7,-9.75 301.7,-26.25 376.7,-26.25 376.7,-9.75 301.7,-9.75"/>
<text xml:space="preserve" text-anchor="start" x="301.7" y="-12.95" font-family="Times New Roman,serif" font-size="14.00"> end process &#160;</text>
</g>
<!-- node1&#45;&gt;node9 -->
<g id="edge3" class="edge">
<title>node1:s&#45;&gt;node9</title>
<path fill="none" stroke="black" d="M284.2,-359.8C284.2,-333.28 381.2,-316.82 381.2,-290.3 381.2,-290.3 381.2,-290.3 381.2,-145.35 381.2,-110.01 363.44,-104.89 348.2,-73 344.34,-64.93 334.77,-62.77 339.2,-55"/>
<text xml:space="preserve" text-anchor="middle" x="387.95" y="-195.75" font-family="Times New Roman,serif" font-size="14.00">no</text>
</g>
<!-- node3 -->
<g id="node4" class="node">
<title>node3</title>
<polygon fill="lightcyan" stroke="none" points="7.2,-135.1 7.2,-157.6 103.2,-157.6 103.2,-135.1 7.2,-135.1"/>
<polygon fill="none" stroke="black" points="7.2,-135.1 7.2,-157.6 103.2,-157.6 103.2,-135.1 7.2,-135.1"/>
<text xml:space="preserve" text-anchor="start" x="10.2" y="-141.3" font-family="Times New Roman,serif" font-size="14.00"> clk_out_i&lt;= &#39;1&#39; </text>
</g>
<!-- node2&#45;&gt;node3 -->
<g id="edge4" class="edge">
<title>node2:s&#45;&gt;node3</title>
<path fill="none" stroke="red" d="M187.2,-271.3C187.2,-251.85 31.71,-234.48 20.2,-218.8 10.73,-205.9 14.12,-197.6 20.2,-182.8 21.54,-179.54 23.33,-176.43 25.41,-173.49"/>
<polygon fill="red" stroke="red" points="28.03,-175.81 31.79,-165.91 22.67,-171.3 28.03,-175.81"/>
<text xml:space="preserve" text-anchor="middle" x="156.46" y="-240" font-family="Times New Roman,serif" font-size="14.00">yes</text>
</g>
<!-- node4 -->
<g id="node5" class="node">
<title>node4</title>
<polygon fill="#c1b2ff" stroke="#c1b2ff" points="187.2,-218.8 29.17,-200.8 187.2,-182.8 345.23,-200.8 187.2,-218.8"/>
<text xml:space="preserve" text-anchor="middle" x="187.2" y="-195.75" font-family="Times New Roman,serif" font-size="14.00"> elsif &#160;&#160;&#160;cnt_i= &#160;&#160;MAX then</text>
</g>
<!-- node2&#45;&gt;node4 -->
<g id="edge5" class="edge">
<title>node2:s&#45;&gt;node4</title>
<path fill="none" stroke="black" d="M187.2,-271.3C187.2,-257.86 187.2,-242.96 187.2,-230.41"/>
<polygon fill="black" stroke="black" points="190.7,-230.74 187.2,-220.74 183.7,-230.74 190.7,-230.74"/>
<text xml:space="preserve" text-anchor="middle" x="193.95" y="-240" font-family="Times New Roman,serif" font-size="14.00">no</text>
</g>
<!-- node3&#45;&gt;node9 -->
<g id="edge6" class="edge">
<title>node3&#45;&gt;node9</title>
<path fill="none" stroke="green" d="M79.06,-128.12C103.99,-111.07 144.87,-85.74 184.2,-73 217.19,-62.31 322.8,-85.55 339.2,-55"/>
<path fill="none" stroke="green" d="M339.2,-54C340.31,-52.01 341.1,-49.86 341.64,-47.62"/>
<polygon fill="green" stroke="green" points="345.12,-47.99 342.39,-37.76 338.14,-47.46 345.12,-47.99"/>
</g>
<!-- node5 -->
<g id="node6" class="node">
<title>node5</title>
<polygon fill="lightcyan" stroke="none" points="200.2,-80.2 200.2,-102.7 296.2,-102.7 296.2,-80.2 200.2,-80.2"/>
<polygon fill="none" stroke="black" points="200.2,-80.2 200.2,-102.7 296.2,-102.7 296.2,-80.2 200.2,-80.2"/>
<text xml:space="preserve" text-anchor="start" x="203.2" y="-86.4" font-family="Times New Roman,serif" font-size="14.00"> clk_out_i&lt;= &#39;0&#39; </text>
</g>
<!-- node4&#45;&gt;node5 -->
<g id="edge7" class="edge">
<title>node4&#45;&gt;node5</title>
<path fill="none" stroke="red" d="M196.46,-183.5C206.11,-166.51 221.39,-139.62 232.85,-119.46"/>
<polygon fill="red" stroke="red" points="235.8,-121.36 237.7,-110.94 229.71,-117.9 235.8,-121.36"/>
<text xml:space="preserve" text-anchor="middle" x="235.73" y="-141.3" font-family="Times New Roman,serif" font-size="14.00">yes</text>
</g>
<!-- node4&#45;&gt;node9 -->
<g id="edge8" class="edge">
<title>node4&#45;&gt;node9</title>
<path fill="none" stroke="black" d="M215.09,-185.62C226.03,-179.66 238.5,-172.36 249.2,-164.8 279.53,-143.36 289.56,-139.34 312.2,-109.9 328.78,-88.34 325.9,-78.72 339.2,-55"/>
<text xml:space="preserve" text-anchor="middle" x="337.39" y="-86.4" font-family="Times New Roman,serif" font-size="14.00">no</text>
</g>
<!-- node5&#45;&gt;node9 -->
<g id="edge9" class="edge">
<title>node5&#45;&gt;node9</title>
<path fill="none" stroke="green" d="M302.93,-75.67C319.83,-69.79 335.11,-62.62 339.2,-55"/>
</g>
</g>
</svg>
