<?xml version="1.0" encoding="UTF-8" standalone="no"?>
<?xml-stylesheet href="doxygen.css" type="text/css"?>
<!DOCTYPE svg PUBLIC "-//W3C//DTD SVG 1.1//EN"
 "http://www.w3.org/Graphics/SVG/1.1/DTD/svg11.dtd">
<!-- Generated by graphviz version 14.1.1 (20251213.1925)
 -->
<!-- Title: G Pages: 1 -->
<svg width="461pt" height="477pt"
 viewBox="0.00 0.00 461.00 477.00" xmlns="http://www.w3.org/2000/svg" xmlns:xlink="http://www.w3.org/1999/xlink">
<g id="graph0" class="graph" transform="scale(1 1) rotate(0) translate(4 472.8)">
<title>G</title>
<polygon fill="white" stroke="none" points="-4,4 -4,-472.8 456.8,-472.8 456.8,4 -4,4"/>
<!-- node10 -->
<g id="node1" class="node">
<title>node10</title>
<path fill="none" stroke="black" d="M365.32,-468.8C365.32,-468.8 186.57,-468.8 186.57,-468.8 180.57,-468.8 174.57,-462.8 174.57,-456.8 174.57,-456.8 174.57,-444.8 174.57,-444.8 174.57,-438.8 180.57,-432.8 186.57,-432.8 186.57,-432.8 365.32,-432.8 365.32,-432.8 371.32,-432.8 377.32,-438.8 377.32,-444.8 377.32,-444.8 377.32,-456.8 377.32,-456.8 377.32,-462.8 371.32,-468.8 365.32,-468.8"/>
<polygon fill="white" stroke="none" points="182.57,-442.55 182.57,-459.05 369.32,-459.05 369.32,-442.55 182.57,-442.55"/>
<text xml:space="preserve" text-anchor="start" x="182.57" y="-445.75" font-family="Times New Roman,serif" font-size="14.00"> counter_proc:process( clk_in,rst) </text>
</g>
<!-- node1 -->
<g id="node2" class="node">
<title>node1</title>
<polygon fill="#c1b2ff" stroke="#c1b2ff" points="275.95,-395.8 99.1,-377.8 275.95,-359.8 452.8,-377.8 275.95,-395.8"/>
<text xml:space="preserve" text-anchor="middle" x="275.95" y="-372.75" font-family="Times New Roman,serif" font-size="14.00"> if &#160;&#160;&#160;rising_edge( clk_in ) then</text>
</g>
<!-- node10&#45;&gt;node1 -->
<g id="edge1" class="edge">
<title>node10&#45;&gt;node1:n</title>
<path fill="none" stroke="green" d="M275.95,-432.78C275.95,-425.3 275.95,-416.18 275.95,-407.11"/>
<polygon fill="green" stroke="green" points="279.45,-407.31 275.95,-397.31 272.45,-407.31 279.45,-407.31"/>
</g>
<!-- node2 -->
<g id="node3" class="node">
<title>node2</title>
<polygon fill="#c1b2ff" stroke="#c1b2ff" points="178.95,-307.3 75.93,-289.3 178.95,-271.3 281.97,-289.3 178.95,-307.3"/>
<text xml:space="preserve" text-anchor="middle" x="178.95" y="-284.25" font-family="Times New Roman,serif" font-size="14.00"> if &#160;&#160;&#160;rst= &#39;1&#39; then</text>
</g>
<!-- node1&#45;&gt;node2 -->
<g id="edge2" class="edge">
<title>node1:s&#45;&gt;node2:n</title>
<path fill="none" stroke="red" d="M275.95,-359.8C275.95,-315.18 195.6,-348.9 181.16,-318.36"/>
<polygon fill="red" stroke="red" points="184.64,-317.91 179.25,-308.78 177.77,-319.28 184.64,-317.91"/>
<text xml:space="preserve" text-anchor="middle" x="276.65" y="-328.5" font-family="Times New Roman,serif" font-size="14.00">yes</text>
</g>
<!-- node11 -->
<g id="node8" class="node">
<title>node11</title>
<path fill="none" stroke="black" d="M337.45,-36C337.45,-36 270.45,-36 270.45,-36 264.45,-36 258.45,-30 258.45,-24 258.45,-24 258.45,-12 258.45,-12 258.45,-6 264.45,0 270.45,0 270.45,0 337.45,0 337.45,0 343.45,0 349.45,-6 349.45,-12 349.45,-12 349.45,-24 349.45,-24 349.45,-30 343.45,-36 337.45,-36"/>
<polygon fill="white" stroke="none" points="266.45,-9.75 266.45,-26.25 341.45,-26.25 341.45,-9.75 266.45,-9.75"/>
<text xml:space="preserve" text-anchor="start" x="266.45" y="-12.95" font-family="Times New Roman,serif" font-size="14.00"> end process &#160;</text>
</g>
<!-- node1&#45;&gt;node11 -->
<g id="edge3" class="edge">
<title>node1:s&#45;&gt;node11</title>
<path fill="none" stroke="black" d="M275.95,-359.8C275.95,-333.28 372.95,-316.82 372.95,-290.3 372.95,-290.3 372.95,-290.3 372.95,-145.35 372.95,-112.1 376.39,-97.53 353.95,-73 338.01,-55.57 291.89,-75.31 303.95,-55"/>
<text xml:space="preserve" text-anchor="middle" x="379.7" y="-195.75" font-family="Times New Roman,serif" font-size="14.00">no</text>
</g>
<!-- node3 -->
<g id="node4" class="node">
<title>node3</title>
<polygon fill="lightcyan" stroke="none" points="7.2,-135.1 7.2,-157.6 74.7,-157.6 74.7,-135.1 7.2,-135.1"/>
<polygon fill="none" stroke="black" points="7.2,-135.1 7.2,-157.6 74.7,-157.6 74.7,-135.1 7.2,-135.1"/>
<text xml:space="preserve" text-anchor="start" x="10.2" y="-141.3" font-family="Times New Roman,serif" font-size="14.00"> cnt_i&lt;= 0 </text>
</g>
<!-- node2&#45;&gt;node3 -->
<g id="edge4" class="edge">
<title>node2:s&#45;&gt;node3</title>
<path fill="none" stroke="red" d="M178.95,-271.3C178.95,-251.85 23.46,-234.48 11.95,-218.8 2.48,-205.9 6.57,-197.87 11.95,-182.8 13.05,-179.71 14.55,-176.7 16.29,-173.81"/>
<polygon fill="red" stroke="red" points="19.04,-175.99 22.03,-165.83 13.35,-171.91 19.04,-175.99"/>
<text xml:space="preserve" text-anchor="middle" x="148.21" y="-240" font-family="Times New Roman,serif" font-size="14.00">yes</text>
</g>
<!-- node4 -->
<g id="node5" class="node">
<title>node4</title>
<polygon fill="#c1b2ff" stroke="#c1b2ff" points="178.95,-218.8 20.92,-200.8 178.95,-182.8 336.98,-200.8 178.95,-218.8"/>
<text xml:space="preserve" text-anchor="middle" x="178.95" y="-195.75" font-family="Times New Roman,serif" font-size="14.00"> elsif &#160;&#160;&#160;cnt_i&lt; &#160;&#160;MAX then</text>
</g>
<!-- node2&#45;&gt;node4 -->
<g id="edge5" class="edge">
<title>node2:s&#45;&gt;node4</title>
<path fill="none" stroke="black" d="M178.95,-271.3C178.95,-257.86 178.95,-242.96 178.95,-230.41"/>
<polygon fill="black" stroke="black" points="182.45,-230.74 178.95,-220.74 175.45,-230.74 182.45,-230.74"/>
<text xml:space="preserve" text-anchor="middle" x="185.7" y="-240" font-family="Times New Roman,serif" font-size="14.00">no</text>
</g>
<!-- node3&#45;&gt;node11 -->
<g id="edge6" class="edge">
<title>node3&#45;&gt;node11</title>
<path fill="none" stroke="green" d="M51.35,-128.21C62.85,-110.97 83.07,-85.25 107.95,-73 147.19,-53.67 281.68,-92.65 303.95,-55"/>
<path fill="none" stroke="green" d="M303.95,-54C305.11,-52.04 305.94,-49.9 306.49,-47.69"/>
<polygon fill="green" stroke="green" points="309.97,-48.09 307.28,-37.84 302.99,-47.53 309.97,-48.09"/>
</g>
<!-- node5 -->
<g id="node6" class="node">
<title>node5</title>
<polygon fill="lightcyan" stroke="none" points="123.95,-80.2 123.95,-102.7 237.95,-102.7 237.95,-80.2 123.95,-80.2"/>
<polygon fill="none" stroke="black" points="123.95,-80.2 123.95,-102.7 237.95,-102.7 237.95,-80.2 123.95,-80.2"/>
<text xml:space="preserve" text-anchor="start" x="126.95" y="-86.4" font-family="Times New Roman,serif" font-size="14.00"> cnt_i&lt;= &#160;&#160;cnt_i+ 1 </text>
</g>
<!-- node4&#45;&gt;node5 -->
<g id="edge7" class="edge">
<title>node4&#45;&gt;node5</title>
<path fill="none" stroke="red" d="M179.27,-182.55C179.58,-165.96 180.05,-140.58 180.42,-120.98"/>
<polygon fill="red" stroke="red" points="183.91,-121.23 180.6,-111.17 176.92,-121.1 183.91,-121.23"/>
<text xml:space="preserve" text-anchor="middle" x="189.25" y="-141.3" font-family="Times New Roman,serif" font-size="14.00">yes</text>
</g>
<!-- node7 -->
<g id="node7" class="node">
<title>node7</title>
<polygon fill="lightcyan" stroke="none" points="270.2,-80.2 270.2,-102.7 337.7,-102.7 337.7,-80.2 270.2,-80.2"/>
<polygon fill="none" stroke="black" points="270.2,-80.2 270.2,-102.7 337.7,-102.7 337.7,-80.2 270.2,-80.2"/>
<text xml:space="preserve" text-anchor="start" x="273.2" y="-86.4" font-family="Times New Roman,serif" font-size="14.00"> cnt_i&lt;= 0 </text>
</g>
<!-- node4&#45;&gt;node7 -->
<g id="edge8" class="edge">
<title>node4&#45;&gt;node7</title>
<path fill="none" stroke="black" d="M196.86,-184.42C217.42,-166.76 251.42,-137.56 275.59,-116.81"/>
<polygon fill="black" stroke="black" points="277.55,-119.73 282.86,-110.56 272.99,-114.42 277.55,-119.73"/>
<text xml:space="preserve" text-anchor="middle" x="266.7" y="-141.3" font-family="Times New Roman,serif" font-size="14.00">no</text>
</g>
<!-- node5&#45;&gt;node11 -->
<g id="edge9" class="edge">
<title>node5&#45;&gt;node11</title>
<path fill="none" stroke="green" d="M245,-73.97C273.98,-66.17 302.22,-57.93 303.95,-55"/>
</g>
<!-- node7&#45;&gt;node11 -->
<g id="edge10" class="edge">
<title>node7&#45;&gt;node11</title>
<path fill="none" stroke="green" d="M300.48,-73.26C300.1,-67.13 300.75,-60.4 303.95,-55"/>
</g>
</g>
</svg>
