<?xml version="1.0" encoding="UTF-8" standalone="no"?>
<?xml-stylesheet href="doxygen.css" type="text/css"?>
<!DOCTYPE svg PUBLIC "-//W3C//DTD SVG 1.1//EN"
 "http://www.w3.org/Graphics/SVG/1.1/DTD/svg11.dtd">
<!-- Generated by graphviz version 14.1.1 (20251213.1925)
 -->
<!-- Title: G Pages: 1 -->
<svg width="328pt" height="279pt"
 viewBox="0.00 0.00 328.00 279.00" xmlns="http://www.w3.org/2000/svg" xmlns:xlink="http://www.w3.org/1999/xlink">
<g id="graph0" class="graph" transform="scale(1 1) rotate(0) translate(4 275.4)">
<title>G</title>
<polygon fill="white" stroke="none" points="-4,4 -4,-275.4 324.4,-275.4 324.4,4 -4,4"/>
<!-- node4 -->
<g id="node1" class="node">
<title>node4</title>
<path fill="none" stroke="black" d="M232.33,-271.4C232.33,-271.4 88.08,-271.4 88.08,-271.4 82.08,-271.4 76.08,-265.4 76.08,-259.4 76.08,-259.4 76.08,-247.4 76.08,-247.4 76.08,-241.4 82.08,-235.4 88.08,-235.4 88.08,-235.4 232.33,-235.4 232.33,-235.4 238.33,-235.4 244.33,-241.4 244.33,-247.4 244.33,-247.4 244.33,-259.4 244.33,-259.4 244.33,-265.4 238.33,-271.4 232.33,-271.4"/>
<polygon fill="white" stroke="none" points="84.08,-245.15 84.08,-261.65 236.33,-261.65 236.33,-245.15 84.08,-245.15"/>
<text xml:space="preserve" text-anchor="start" x="84.08" y="-248.35" font-family="Times New Roman,serif" font-size="14.00"> register_proc:process( clk) </text>
</g>
<!-- node1 -->
<g id="node2" class="node">
<title>node1</title>
<polygon fill="#c1b2ff" stroke="#c1b2ff" points="160.2,-198.4 0,-180.4 160.2,-162.4 320.4,-180.4 160.2,-198.4"/>
<text xml:space="preserve" text-anchor="middle" x="160.2" y="-175.35" font-family="Times New Roman,serif" font-size="14.00"> if &#160;&#160;&#160;rising_edge( clk ) then</text>
</g>
<!-- node4&#45;&gt;node1 -->
<g id="edge1" class="edge">
<title>node4&#45;&gt;node1:n</title>
<path fill="none" stroke="green" d="M160.2,-235.38C160.2,-227.9 160.2,-218.78 160.2,-209.71"/>
<polygon fill="green" stroke="green" points="163.7,-209.91 160.2,-199.91 156.7,-209.91 163.7,-209.91"/>
</g>
<!-- node2 -->
<g id="node3" class="node">
<title>node2</title>
<polygon fill="lightcyan" stroke="none" points="62.33,-80.2 62.33,-102.7 138.08,-102.7 138.08,-80.2 62.33,-80.2"/>
<polygon fill="none" stroke="black" points="62.33,-80.2 62.33,-102.7 138.08,-102.7 138.08,-80.2 62.33,-80.2"/>
<text xml:space="preserve" text-anchor="start" x="65.33" y="-86.4" font-family="Times New Roman,serif" font-size="14.00"> q_i&lt;= &#160;&#160;d_i </text>
</g>
<!-- node1&#45;&gt;node2 -->
<g id="edge2" class="edge">
<title>node1:s&#45;&gt;node2</title>
<path fill="none" stroke="red" d="M160.2,-162.4C160.2,-156.69 141.57,-135.63 125.07,-118.09"/>
<polygon fill="red" stroke="red" points="127.71,-115.78 118.28,-110.94 122.63,-120.6 127.71,-115.78"/>
<text xml:space="preserve" text-anchor="middle" x="156.24" y="-131.1" font-family="Times New Roman,serif" font-size="14.00">yes</text>
</g>
<!-- node5 -->
<g id="node4" class="node">
<title>node5</title>
<path fill="none" stroke="black" d="M214.7,-36C214.7,-36 147.7,-36 147.7,-36 141.7,-36 135.7,-30 135.7,-24 135.7,-24 135.7,-12 135.7,-12 135.7,-6 141.7,0 147.7,0 147.7,0 214.7,0 214.7,0 220.7,0 226.7,-6 226.7,-12 226.7,-12 226.7,-24 226.7,-24 226.7,-30 220.7,-36 214.7,-36"/>
<polygon fill="white" stroke="none" points="143.7,-9.75 143.7,-26.25 218.7,-26.25 218.7,-9.75 143.7,-9.75"/>
<text xml:space="preserve" text-anchor="start" x="143.7" y="-12.95" font-family="Times New Roman,serif" font-size="14.00"> end process &#160;</text>
</g>
<!-- node1&#45;&gt;node5 -->
<g id="edge3" class="edge">
<title>node1:s&#45;&gt;node5</title>
<path fill="none" stroke="black" d="M160.2,-162.4C160.2,-153.82 164.97,-152.69 167.2,-144.4 177.66,-105.57 164.96,-91.79 181.2,-55"/>
<text xml:space="preserve" text-anchor="middle" x="181.57" y="-86.4" font-family="Times New Roman,serif" font-size="14.00">no</text>
</g>
<!-- node2&#45;&gt;node5 -->
<g id="edge4" class="edge">
<title>node2&#45;&gt;node5</title>
<path fill="none" stroke="green" d="M144.96,-76.88C161.79,-70.63 177.73,-62.86 181.2,-55"/>
<path fill="none" stroke="green" d="M181.2,-54C182.1,-51.96 182.75,-49.78 183.19,-47.55"/>
<polygon fill="green" stroke="green" points="186.66,-48.04 183.85,-37.82 179.68,-47.56 186.66,-48.04"/>
</g>
</g>
</svg>
