<?xml version="1.0" encoding="UTF-8" standalone="no"?>
<?xml-stylesheet href="doxygen.css" type="text/css"?>
<!DOCTYPE svg PUBLIC "-//W3C//DTD SVG 1.1//EN"
 "http://www.w3.org/Graphics/SVG/1.1/DTD/svg11.dtd">
<!-- Generated by graphviz version 14.1.1 (20251213.1925)
 -->
<!-- Title: G Pages: 1 -->
<svg width="2256pt" height="1539pt"
 viewBox="0.00 0.00 2256.00 1539.00" xmlns="http://www.w3.org/2000/svg" xmlns:xlink="http://www.w3.org/1999/xlink">
<g id="graph0" class="graph" transform="scale(1 1) rotate(0) translate(4 1535.1)">
<title>G</title>
<polygon fill="white" stroke="none" points="-4,4 -4,-1535.1 2251.67,-1535.1 2251.67,4 -4,4"/>
<!-- node56 -->
<g id="node1" class="node">
<title>node56</title>
<path fill="none" stroke="black" d="M1114.58,-1531.1C1114.58,-1531.1 976.33,-1531.1 976.33,-1531.1 970.33,-1531.1 964.33,-1525.1 964.33,-1519.1 964.33,-1519.1 964.33,-1507.1 964.33,-1507.1 964.33,-1501.1 970.33,-1495.1 976.33,-1495.1 976.33,-1495.1 1114.58,-1495.1 1114.58,-1495.1 1120.58,-1495.1 1126.58,-1501.1 1126.58,-1507.1 1126.58,-1507.1 1126.58,-1519.1 1126.58,-1519.1 1126.58,-1525.1 1120.58,-1531.1 1114.58,-1531.1"/>
<polygon fill="white" stroke="none" points="972.33,-1504.85 972.33,-1521.35 1118.58,-1521.35 1118.58,-1504.85 972.33,-1504.85"/>
<text xml:space="preserve" text-anchor="start" x="972.33" y="-1508.05" font-family="Times New Roman,serif" font-size="14.00"> testbench_proc:process( ) </text>
</g>
<!-- node0 -->
<g id="node2" class="node">
<title>node0</title>
<polygon fill="lightyellow" stroke="none" points="821.96,-1428.4 821.96,-1450.9 1268.96,-1450.9 1268.96,-1428.4 821.96,-1428.4"/>
<polygon fill="none" stroke="black" points="821.96,-1428.4 821.96,-1450.9 1268.96,-1450.9 1268.96,-1428.4 821.96,-1428.4"/>
<text xml:space="preserve" text-anchor="start" x="824.96" y="-1434.6" font-family="Times New Roman,serif" font-size="14.00"> &#160;variable symbol_on_segments_v: std_logic_vector( 7 DOWNTO &#160;0) := X&quot;00&quot; </text>
</g>
<!-- node56&#45;&gt;node0 -->
<g id="edge1" class="edge">
<title>node56&#45;&gt;node0</title>
<path fill="none" stroke="green" d="M1045.46,-1494.8C1045.46,-1487.14 1045.46,-1477.91 1045.46,-1469.27"/>
<polygon fill="green" stroke="green" points="1048.96,-1469.55 1045.46,-1459.55 1041.96,-1469.55 1048.96,-1469.55"/>
</g>
<!-- node2 -->
<g id="node3" class="node">
<title>node2</title>
<polygon fill="lightcyan" stroke="none" points="930.71,-1321.5 930.71,-1377 1160.21,-1377 1160.21,-1321.5 930.71,-1321.5"/>
<polygon fill="none" stroke="black" points="930.71,-1321.5 930.71,-1377 1160.21,-1377 1160.21,-1321.5 930.71,-1321.5"/>
<text xml:space="preserve" text-anchor="start" x="933.71" y="-1360.7" font-family="Times New Roman,serif" font-size="14.00"> &#160;report &#160;&#160;&#160;&quot;Test start.&quot; severity &#160;&#160;&#160;note</text>
<text xml:space="preserve" text-anchor="start" x="933.71" y="-1344.2" font-family="Times New Roman,serif" font-size="14.00"> wait &#160;for &#160;&#160;5 ms</text>
<text xml:space="preserve" text-anchor="start" x="933.71" y="-1327.7" font-family="Times New Roman,serif" font-size="14.00"> wait &#160;on clk_in until &#160;&#160;&#160;clk_in= &#39;1&#39; &#160;&#160;&#160;&#160;&#160;&#160;&#160;. </text>
</g>
<!-- node0&#45;&gt;node2 -->
<g id="edge2" class="edge">
<title>node0&#45;&gt;node2</title>
<path fill="none" stroke="green" d="M1045.46,-1421.61C1045.46,-1414.04 1045.46,-1404.75 1045.46,-1395.4"/>
<polygon fill="green" stroke="green" points="1048.96,-1395.59 1045.46,-1385.59 1041.96,-1395.59 1048.96,-1395.59"/>
</g>
<!-- node5 -->
<g id="node4" class="node">
<title>node5</title>
<polygon fill="#c1b2ff" stroke="#c1b2ff" points="1045.46,-1277.3 912.03,-1259.3 1045.46,-1241.3 1178.88,-1259.3 1045.46,-1277.3"/>
<text xml:space="preserve" text-anchor="middle" x="1045.46" y="-1254.25" font-family="Times New Roman,serif" font-size="14.00"> &#160;for i in &#160;1 TO &#160;7 loop</text>
</g>
<!-- node2&#45;&gt;node5 -->
<g id="edge3" class="edge">
<title>node2&#45;&gt;node5:n</title>
<path fill="none" stroke="green" d="M1045.46,-1314.33C1045.46,-1306.17 1045.46,-1297.29 1045.46,-1288.58"/>
<polygon fill="green" stroke="green" points="1048.96,-1288.81 1045.46,-1278.81 1041.96,-1288.81 1048.96,-1288.81"/>
</g>
<!-- node6 -->
<g id="node5" class="node">
<title>node6</title>
<polygon fill="lightcyan" stroke="none" points="1094.08,-1150.85 1094.08,-1173.35 1304.83,-1173.35 1304.83,-1150.85 1094.08,-1150.85"/>
<polygon fill="none" stroke="black" points="1094.08,-1150.85 1094.08,-1173.35 1304.83,-1173.35 1304.83,-1150.85 1094.08,-1150.85"/>
<text xml:space="preserve" text-anchor="start" x="1097.08" y="-1157.05" font-family="Times New Roman,serif" font-size="14.00"> symbol_on_segments_v:= &#160;&#160;seg_out </text>
</g>
<!-- node5&#45;&gt;node6 -->
<g id="edge4" class="edge">
<title>node5:s&#45;&gt;node6</title>
<path fill="none" stroke="red" d="M1045.46,-1241.3C1045.46,-1229.74 1101.29,-1203.75 1145.72,-1184.9"/>
<polygon fill="red" stroke="red" points="1146.89,-1188.2 1154.75,-1181.1 1144.18,-1181.75 1146.89,-1188.2"/>
<text xml:space="preserve" text-anchor="middle" x="1104.27" y="-1210" font-family="Times New Roman,serif" font-size="14.00">yes</text>
</g>
<!-- node12 -->
<g id="node10" class="node">
<title>node12</title>
<polygon fill="lightcyan" stroke="none" points="819.08,-1142.6 819.08,-1181.6 999.83,-1181.6 999.83,-1142.6 819.08,-1142.6"/>
<polygon fill="none" stroke="black" points="819.08,-1142.6 819.08,-1181.6 999.83,-1181.6 999.83,-1142.6 819.08,-1142.6"/>
<text xml:space="preserve" text-anchor="start" x="822.08" y="-1165.3" font-family="Times New Roman,serif" font-size="14.00"> &#160;report &#160;&#160;&#160;&quot;Resetujeme...&quot;</text>
<text xml:space="preserve" text-anchor="start" x="822.08" y="-1148.8" font-family="Times New Roman,serif" font-size="14.00">rst_in&lt;= &#39;1&#39; &#160;&#160;&#160;&#160;&#160;&#160;&#160;&#160;&#160;&#160;&#160;&#160;&#160;&#160;&#160;&#160;&#160;&#160;&#160;&#160;&#160;&#160;&#160;&#160;&#160;&#160;&#160;. </text>
</g>
<!-- node5&#45;&gt;node12 -->
<g id="edge5" class="edge">
<title>node5:s&#45;&gt;node12</title>
<path fill="none" stroke="black" d="M1045.46,-1241.3C1045.46,-1238.88 1003.44,-1214.99 966.12,-1194.25"/>
<polygon fill="black" stroke="black" points="968.03,-1191.3 957.58,-1189.51 964.63,-1197.42 968.03,-1191.3"/>
<text xml:space="preserve" text-anchor="middle" x="1022.83" y="-1210" font-family="Times New Roman,serif" font-size="14.00">no</text>
</g>
<!-- node8 -->
<g id="node6" class="node">
<title>node8</title>
<polygon fill="#c1b2ff" stroke="#c1b2ff" points="1213.46,-1098.4 1073.52,-1080.4 1213.46,-1062.4 1353.39,-1080.4 1213.46,-1098.4"/>
<text xml:space="preserve" text-anchor="middle" x="1213.46" y="-1075.35" font-family="Times New Roman,serif" font-size="14.00"> &#160;for j in &#160;1 TO &#160;10 loop</text>
</g>
<!-- node6&#45;&gt;node8 -->
<g id="edge6" class="edge">
<title>node6&#45;&gt;node8:n</title>
<path fill="none" stroke="green" d="M1205.47,-1143.76C1208.38,-1134.22 1211.52,-1121.85 1212.83,-1109.57"/>
<polygon fill="green" stroke="green" points="1216.3,-1110.09 1213.37,-1099.91 1209.31,-1109.7 1216.3,-1110.09"/>
</g>
<!-- node9 -->
<g id="node7" class="node">
<title>node9</title>
<polygon fill="lightcyan" stroke="none" points="1248.71,-955.45 1248.71,-977.95 1448.21,-977.95 1448.21,-955.45 1248.71,-955.45"/>
<polygon fill="none" stroke="black" points="1248.71,-955.45 1248.71,-977.95 1448.21,-977.95 1448.21,-955.45 1248.71,-955.45"/>
<text xml:space="preserve" text-anchor="start" x="1251.71" y="-961.65" font-family="Times New Roman,serif" font-size="14.00"> &#160;wait &#160;on clk_in until &#160;&#160;&#160;clk_in= &#39;0&#39; </text>
</g>
<!-- node8&#45;&gt;node9 -->
<g id="edge7" class="edge">
<title>node8:s&#45;&gt;node9</title>
<path fill="none" stroke="red" d="M1213.46,-1062.4C1213.46,-1050.62 1269.24,-1014.86 1309.09,-990.81"/>
<polygon fill="red" stroke="red" points="1310.75,-993.89 1317.53,-985.75 1307.16,-987.89 1310.75,-993.89"/>
<text xml:space="preserve" text-anchor="middle" x="1258.66" y="-1031.1" font-family="Times New Roman,serif" font-size="14.00">yes</text>
</g>
<!-- node11 -->
<g id="node9" class="node">
<title>node11</title>
<ellipse fill="none" stroke="black" cx="1142.46" cy="-966.7" rx="43.16" ry="18"/>
<text xml:space="preserve" text-anchor="middle" x="1142.46" y="-961.65" font-family="Times New Roman,serif" font-size="14.00">end loop</text>
</g>
<!-- node8&#45;&gt;node11 -->
<g id="edge8" class="edge">
<title>node8:s&#45;&gt;node11</title>
<path fill="none" stroke="black" d="M1213.46,-1062.4C1213.46,-1047.79 1195.95,-1055.05 1185.96,-1044.4 1172.42,-1029.98 1161.47,-1010.58 1153.94,-994.9"/>
<polygon fill="black" stroke="black" points="1157.27,-993.75 1149.92,-986.12 1150.9,-996.67 1157.27,-993.75"/>
<text xml:space="preserve" text-anchor="middle" x="1192.71" y="-1031.1" font-family="Times New Roman,serif" font-size="14.00">no</text>
</g>
<!-- node10 -->
<g id="node8" class="node">
<title>node10</title>
<ellipse fill="none" stroke="black" cx="1253.46" cy="-868.5" rx="43.16" ry="18"/>
<text xml:space="preserve" text-anchor="middle" x="1253.46" y="-863.45" font-family="Times New Roman,serif" font-size="14.00">end loop</text>
</g>
<!-- node9&#45;&gt;node10 -->
<g id="edge9" class="edge">
<title>node9&#45;&gt;node10</title>
<path fill="none" stroke="green" d="M1331.47,-948.5C1316.34,-933.17 1294.03,-910.59 1277.15,-893.49"/>
<polygon fill="green" stroke="green" points="1279.93,-891.32 1270.41,-886.67 1274.95,-896.24 1279.93,-891.32"/>
</g>
<!-- node10&#45;&gt;node8 -->
<g id="edge10" class="edge">
<title>node10&#45;&gt;node8:n</title>
<path fill="none" stroke="green" d="M1243.34,-886.33C1224.22,-920.57 1188.04,-998.94 1227.46,-1044.4 1264.5,-1087.11 1316.35,-1019.69 1353.39,-1062.4 1363.96,-1074.59 1364.76,-1087.26 1353.39,-1098.71 1348.88,-1103.25 1256.74,-1106.26 1224.49,-1102.83"/>
<polygon fill="green" stroke="green" points="1225.49,-1099.48 1214.91,-1100.12 1223.58,-1106.21 1225.49,-1099.48"/>
</g>
<!-- node11&#45;&gt;node5 -->
<g id="edge11" class="edge">
<title>node11&#45;&gt;node5:n</title>
<path fill="none" stroke="green" d="M1123.74,-983.19C1104.68,-1000.29 1076.29,-1029.76 1064.46,-1062.4 994.04,-1256.52 1055.33,-1213.81 1063.46,-1223.3 1097.22,-1262.74 1145.11,-1201.86 1178.88,-1241.3 1189.39,-1253.58 1190.27,-1266.2 1178.88,-1277.67 1174.59,-1281.99 1087.56,-1284.88 1056.42,-1281.69"/>
<polygon fill="green" stroke="green" points="1057.49,-1278.36 1046.92,-1279.07 1055.63,-1285.1 1057.49,-1278.36"/>
</g>
<!-- node14 -->
<g id="node11" class="node">
<title>node14</title>
<polygon fill="#c1b2ff" stroke="#c1b2ff" points="649.46,-1098.4 509.52,-1080.4 649.46,-1062.4 789.39,-1080.4 649.46,-1098.4"/>
<text xml:space="preserve" text-anchor="middle" x="649.46" y="-1075.35" font-family="Times New Roman,serif" font-size="14.00"> &#160;for j in &#160;1 TO &#160;11 loop</text>
</g>
<!-- node12&#45;&gt;node14 -->
<g id="edge12" class="edge">
<title>node12&#45;&gt;node14:n</title>
<path fill="none" stroke="green" d="M811.9,-1155.6C746.2,-1149.42 668.67,-1136.41 652.5,-1109.12"/>
<polygon fill="green" stroke="green" points="655.97,-1108.52 649.87,-1099.86 649.24,-1110.43 655.97,-1108.52"/>
</g>
<!-- node15 -->
<g id="node12" class="node">
<title>node15</title>
<polygon fill="lightcyan" stroke="none" points="34.08,-930.7 34.08,-1002.7 808.83,-1002.7 808.83,-930.7 34.08,-930.7"/>
<polygon fill="none" stroke="black" points="34.08,-930.7 34.08,-1002.7 808.83,-1002.7 808.83,-930.7 34.08,-930.7"/>
<text xml:space="preserve" text-anchor="start" x="37.08" y="-986.4" font-family="Times New Roman,serif" font-size="14.00"> &#160;wait &#160;on clk_in until &#160;&#160;&#160;clk_in= &#39;0&#39;</text>
<text xml:space="preserve" text-anchor="start" x="37.08" y="-969.9" font-family="Times New Roman,serif" font-size="14.00">assert_moment&lt;=not &#160;&#160;&#160;assert_moment, &#39;0&#39; after &#160;&#160;10 ns</text>
<text xml:space="preserve" text-anchor="start" x="37.08" y="-953.4" font-family="Times New Roman,serif" font-size="14.00">assert &#160;&#160;&#160;dut_val_bcd_i= X&quot;0&quot; report &#160;&#160;&#160;&quot;Nefunguje synch reset BCD citace&quot; report &#160;&#160;&#160;error</text>
<text xml:space="preserve" text-anchor="start" x="37.08" y="-936.9" font-family="Times New Roman,serif" font-size="14.00">assert &#160;&#160;&#160;seg_out( 6 DOWNTO &#160;0)= &#160;&#160;led7seg_bcd_to_segments( X&quot;0&quot;) report &#160;&#160;&#160;&quot;Chybna hodnota na displeji pro synch reset&quot; report &#160;&#160;&#160;error </text>
</g>
<!-- node14&#45;&gt;node15 -->
<g id="edge13" class="edge">
<title>node14:s&#45;&gt;node15</title>
<path fill="none" stroke="red" d="M649.46,-1062.4C649.46,-1044.29 643.25,-1029.58 632.88,-1017.64"/>
<polygon fill="red" stroke="red" points="635.67,-1015.48 626.13,-1010.88 630.71,-1020.43 635.67,-1015.48"/>
<text xml:space="preserve" text-anchor="middle" x="656.09" y="-1031.1" font-family="Times New Roman,serif" font-size="14.00">yes</text>
</g>
<!-- node20 -->
<g id="node14" class="node">
<title>node20</title>
<polygon fill="lightcyan" stroke="none" points="841.21,-930.7 841.21,-1002.7 1073.71,-1002.7 1073.71,-930.7 841.21,-930.7"/>
<polygon fill="none" stroke="black" points="841.21,-930.7 841.21,-1002.7 1073.71,-1002.7 1073.71,-930.7 841.21,-930.7"/>
<text xml:space="preserve" text-anchor="start" x="844.21" y="-986.4" font-family="Times New Roman,serif" font-size="14.00"> rst_in&lt;= &#39;0&#39;</text>
<text xml:space="preserve" text-anchor="start" x="844.21" y="-969.9" font-family="Times New Roman,serif" font-size="14.00"> wait &#160;on clk_in until &#160;&#160;&#160;clk_in= &#39;0&#39;</text>
<text xml:space="preserve" text-anchor="start" x="844.21" y="-953.4" font-family="Times New Roman,serif" font-size="14.00"> report &#160;&#160;&#160;&quot;Konec resetovani...&quot;</text>
<text xml:space="preserve" text-anchor="start" x="844.21" y="-936.9" font-family="Times New Roman,serif" font-size="14.00"> report &#160;&#160;&#160;&quot;Testujeme CE...&quot; &#160;&#160;&#160;&#160;&#160;&#160;&#160;&#160;&#160;&#160;&#160;&#160;&#160;&#160;&#160;&#160;&#160;. </text>
</g>
<!-- node14&#45;&gt;node20 -->
<g id="edge14" class="edge">
<title>node14:s&#45;&gt;node20</title>
<path fill="none" stroke="black" d="M649.46,-1062.4C649.46,-1043.91 777.99,-1020.76 823.09,-1010.09"/>
<polygon fill="black" stroke="black" points="823.91,-1013.49 832.7,-1007.58 822.14,-1006.72 823.91,-1013.49"/>
<text xml:space="preserve" text-anchor="middle" x="746.9" y="-1031.1" font-family="Times New Roman,serif" font-size="14.00">no</text>
</g>
<!-- node19 -->
<g id="node13" class="node">
<title>node19</title>
<ellipse fill="none" stroke="black" cx="110.46" cy="-868.5" rx="43.16" ry="18"/>
<text xml:space="preserve" text-anchor="middle" x="110.46" y="-863.45" font-family="Times New Roman,serif" font-size="14.00">end loop</text>
</g>
<!-- node15&#45;&gt;node19 -->
<g id="edge15" class="edge">
<title>node15&#45;&gt;node19</title>
<path fill="none" stroke="green" d="M285.05,-923.51C238.42,-909.08 189.46,-893.94 155.3,-883.37"/>
<polygon fill="green" stroke="green" points="156.34,-880.03 145.75,-880.42 154.27,-886.72 156.34,-880.03"/>
</g>
<!-- node19&#45;&gt;node14 -->
<g id="edge16" class="edge">
<title>node19&#45;&gt;node14:n</title>
<path fill="none" stroke="green" d="M76.2,-879.65C55.21,-887.83 30.03,-901.66 17.46,-923.5 -1.7,-956.78 -8.76,-981.84 17.46,-1009.9 32.13,-1025.6 774.72,-1046.7 789.39,-1062.4 800.41,-1074.19 800.76,-1087.26 789.39,-1098.71 784.88,-1103.25 692.74,-1106.26 660.49,-1102.83"/>
<polygon fill="green" stroke="green" points="661.49,-1099.48 650.91,-1100.12 659.58,-1106.21 661.49,-1099.48"/>
</g>
<!-- node24 -->
<g id="node15" class="node">
<title>node24</title>
<polygon fill="#c1b2ff" stroke="#c1b2ff" points="957.46,-886.5 817.52,-868.5 957.46,-850.5 1097.39,-868.5 957.46,-886.5"/>
<text xml:space="preserve" text-anchor="middle" x="957.46" y="-863.45" font-family="Times New Roman,serif" font-size="14.00"> &#160;for i in &#160;1 TO &#160;19 loop</text>
</g>
<!-- node20&#45;&gt;node24 -->
<g id="edge17" class="edge">
<title>node20&#45;&gt;node24:n</title>
<path fill="none" stroke="green" d="M957.46,-923.77C957.46,-915.41 957.46,-906.5 957.46,-897.79"/>
<polygon fill="green" stroke="green" points="960.96,-898.01 957.46,-888.01 953.96,-898.01 960.96,-898.01"/>
</g>
<!-- node25 -->
<g id="node16" class="node">
<title>node25</title>
<polygon fill="lightcyan" stroke="none" points="1425.21,-718.8 1425.21,-741.3 1459.71,-741.3 1459.71,-718.8 1425.21,-718.8"/>
<polygon fill="none" stroke="black" points="1425.21,-718.8 1425.21,-741.3 1459.71,-741.3 1459.71,-718.8 1425.21,-718.8"/>
<text xml:space="preserve" text-anchor="start" x="1428.21" y="-725" font-family="Times New Roman,serif" font-size="14.00"> null </text>
</g>
<!-- node24&#45;&gt;node25 -->
<g id="edge18" class="edge">
<title>node24:s&#45;&gt;node25</title>
<path fill="none" stroke="red" d="M957.46,-850.5C957.46,-839 1290.73,-764.48 1404.74,-739.33"/>
<polygon fill="red" stroke="red" points="1405.2,-742.81 1414.21,-737.24 1403.69,-735.98 1405.2,-742.81"/>
<text xml:space="preserve" text-anchor="middle" x="1071.22" y="-819.2" font-family="Times New Roman,serif" font-size="14.00">yes</text>
</g>
<!-- node40 -->
<g id="node27" class="node">
<title>node40</title>
<polygon fill="lightcyan" stroke="none" points="790.96,-669.3 790.96,-790.8 1123.96,-790.8 1123.96,-669.3 790.96,-669.3"/>
<polygon fill="none" stroke="black" points="790.96,-669.3 790.96,-790.8 1123.96,-790.8 1123.96,-669.3 790.96,-669.3"/>
<text xml:space="preserve" text-anchor="start" x="793.96" y="-774.5" font-family="Times New Roman,serif" font-size="14.00"> &#160;report &#160;&#160;&#160;&quot;Konec testu CE...&quot;</text>
<text xml:space="preserve" text-anchor="start" x="793.96" y="-758" font-family="Times New Roman,serif" font-size="14.00"> report &#160;&#160;&#160;&quot;Testujeme synch load hodnoty 5...&quot;</text>
<text xml:space="preserve" text-anchor="start" x="793.96" y="-741.5" font-family="Times New Roman,serif" font-size="14.00">d_in&lt;= x&quot;5&quot;</text>
<text xml:space="preserve" text-anchor="start" x="793.96" y="-725" font-family="Times New Roman,serif" font-size="14.00"> wait &#160;on clk_in until &#160;&#160;&#160;clk_in= &#39;0&#39;</text>
<text xml:space="preserve" text-anchor="start" x="793.96" y="-708.5" font-family="Times New Roman,serif" font-size="14.00">load_in&lt;= &#39;1&#39;</text>
<text xml:space="preserve" text-anchor="start" x="793.96" y="-692" font-family="Times New Roman,serif" font-size="14.00"> wait &#160;on clk_in until &#160;&#160;&#160;clk_in= &#39;0&#39;</text>
<text xml:space="preserve" text-anchor="start" x="793.96" y="-675.5" font-family="Times New Roman,serif" font-size="14.00">load_in&lt;= &#39;0&#39; &#160;&#160;&#160;&#160;&#160;&#160;&#160;&#160;&#160;&#160;&#160;&#160;&#160;&#160;&#160;&#160;&#160;&#160;&#160;&#160;&#160;&#160;&#160;&#160;&#160;&#160;&#160;&#160;&#160;&#160;&#160;&#160;&#160;&#160;&#160;&#160;&#160;&#160;&#160;&#160;&#160;&#160;&#160;&#160;&#160;&#160;&#160;&#160;&#160;&#160;&#160;&#160;&#160;&#160;&#160;&#160;&#160;&#160;&#160;&#160;&#160;&#160;&#160;&#160;&#160;. </text>
</g>
<!-- node24&#45;&gt;node40 -->
<g id="edge19" class="edge">
<title>node24:s&#45;&gt;node40</title>
<path fill="none" stroke="black" d="M957.46,-850.5C957.46,-837.13 957.46,-822.93 957.46,-809.15"/>
<polygon fill="black" stroke="black" points="960.96,-809.22 957.46,-799.22 953.96,-809.22 960.96,-809.22"/>
<text xml:space="preserve" text-anchor="middle" x="964.21" y="-819.2" font-family="Times New Roman,serif" font-size="14.00">no</text>
</g>
<!-- node27 -->
<g id="node17" class="node">
<title>node27</title>
<polygon fill="#c1b2ff" stroke="#c1b2ff" points="1751.46,-625.1 1611.52,-607.1 1751.46,-589.1 1891.39,-607.1 1751.46,-625.1"/>
<text xml:space="preserve" text-anchor="middle" x="1751.46" y="-602.05" font-family="Times New Roman,serif" font-size="14.00"> &#160;for j in &#160;1 TO &#160;10 loop</text>
</g>
<!-- node25&#45;&gt;node27 -->
<g id="edge20" class="edge">
<title>node25&#45;&gt;node27:n</title>
<path fill="none" stroke="green" d="M1469.34,-725.88C1539.67,-716.88 1725.33,-688.4 1748.97,-636.22"/>
<polygon fill="green" stroke="green" points="1752.36,-637.1 1751.13,-626.58 1745.53,-635.57 1752.36,-637.1"/>
</g>
<!-- node28 -->
<g id="node18" class="node">
<title>node28</title>
<polygon fill="lightcyan" stroke="none" points="1744.71,-482.15 1744.71,-504.65 1944.21,-504.65 1944.21,-482.15 1744.71,-482.15"/>
<polygon fill="none" stroke="black" points="1744.71,-482.15 1744.71,-504.65 1944.21,-504.65 1944.21,-482.15 1744.71,-482.15"/>
<text xml:space="preserve" text-anchor="start" x="1747.71" y="-488.35" font-family="Times New Roman,serif" font-size="14.00"> &#160;wait &#160;on clk_in until &#160;&#160;&#160;clk_in= &#39;1&#39; </text>
</g>
<!-- node27&#45;&gt;node28 -->
<g id="edge21" class="edge">
<title>node27:s&#45;&gt;node28</title>
<path fill="none" stroke="red" d="M1751.46,-589.1C1751.46,-558.48 1776.51,-534.14 1800.61,-517.8"/>
<polygon fill="red" stroke="red" points="1802.29,-520.88 1808.82,-512.54 1798.51,-514.99 1802.29,-520.88"/>
<text xml:space="preserve" text-anchor="middle" x="1770.13" y="-557.8" font-family="Times New Roman,serif" font-size="14.00">yes</text>
</g>
<!-- node30 -->
<g id="node20" class="node">
<title>node30</title>
<polygon fill="#c1b2ff" stroke="#c1b2ff" points="2108.46,-511.4 1969.24,-493.4 2108.46,-475.4 2247.67,-493.4 2108.46,-511.4"/>
<text xml:space="preserve" text-anchor="middle" x="2108.46" y="-488.35" font-family="Times New Roman,serif" font-size="14.00"> if ( &#160;&#160;iMOD 2= 0) then</text>
</g>
<!-- node27&#45;&gt;node30 -->
<g id="edge22" class="edge">
<title>node27:s&#45;&gt;node30:n</title>
<path fill="none" stroke="black" d="M1751.46,-589.1C1751.46,-570.8 2042.13,-539.76 2098.91,-518.97"/>
<polygon fill="black" stroke="black" points="2100.81,-521.91 2107.2,-513.45 2096.93,-516.08 2100.81,-521.91"/>
<text xml:space="preserve" text-anchor="middle" x="1904.73" y="-557.8" font-family="Times New Roman,serif" font-size="14.00">no</text>
</g>
<!-- node29 -->
<g id="node19" class="node">
<title>node29</title>
<ellipse fill="none" stroke="black" cx="1749.46" cy="-379.25" rx="43.16" ry="18"/>
<text xml:space="preserve" text-anchor="middle" x="1749.46" y="-374.2" font-family="Times New Roman,serif" font-size="14.00">end loop</text>
</g>
<!-- node28&#45;&gt;node29 -->
<g id="edge23" class="edge">
<title>node28&#45;&gt;node29</title>
<path fill="none" stroke="green" d="M1830.03,-475.37C1814.22,-456.71 1788.72,-426.6 1770.64,-405.26"/>
<polygon fill="green" stroke="green" points="1773.51,-403.23 1764.38,-397.87 1768.17,-407.76 1773.51,-403.23"/>
</g>
<!-- node29&#45;&gt;node27 -->
<g id="edge24" class="edge">
<title>node29&#45;&gt;node27:n</title>
<path fill="none" stroke="green" d="M1742.64,-397.05C1731.86,-426.1 1713.54,-487.32 1728.46,-536.6 1733.8,-554.24 1735.8,-561.38 1751.46,-571.1 1778.1,-587.63 1870.68,-565.56 1891.39,-589.1 1902.05,-601.22 1902.76,-613.96 1891.39,-625.41 1886.88,-629.95 1794.74,-632.96 1762.49,-629.53"/>
<polygon fill="green" stroke="green" points="1763.49,-626.18 1752.91,-626.82 1761.58,-632.91 1763.49,-626.18"/>
</g>
<!-- node31 -->
<g id="node21" class="node">
<title>node31</title>
<polygon fill="lightcyan" stroke="none" points="1944.08,-368 1944.08,-390.5 2064.83,-390.5 2064.83,-368 1944.08,-368"/>
<polygon fill="none" stroke="black" points="1944.08,-368 1944.08,-390.5 2064.83,-390.5 2064.83,-368 1944.08,-368"/>
<text xml:space="preserve" text-anchor="start" x="1947.08" y="-374.2" font-family="Times New Roman,serif" font-size="14.00"> ce_in&lt;=not &#160;&#160;&#160;ce_in </text>
</g>
<!-- node30&#45;&gt;node31 -->
<g id="edge25" class="edge">
<title>node30:s&#45;&gt;node31</title>
<path fill="none" stroke="red" d="M2108.46,-474.19C2108.46,-464.28 2066.34,-428.94 2035.71,-404.55"/>
<polygon fill="red" stroke="red" points="2038.22,-402.08 2028.21,-398.62 2033.88,-407.57 2038.22,-402.08"/>
<text xml:space="preserve" text-anchor="middle" x="2077.83" y="-418.9" font-family="Times New Roman,serif" font-size="14.00">yes</text>
</g>
<!-- node33 -->
<g id="node22" class="node">
<title>node33</title>
<polygon fill="#c1b2ff" stroke="#c1b2ff" points="1556.46,-323.8 1438.23,-305.8 1556.46,-287.8 1674.68,-305.8 1556.46,-323.8"/>
<text xml:space="preserve" text-anchor="middle" x="1556.46" y="-300.75" font-family="Times New Roman,serif" font-size="14.00"> if &#160;&#160;&#160;ce_in= &#39;1&#39; then</text>
</g>
<!-- node30&#45;&gt;node33 -->
<g id="edge26" class="edge">
<title>node30:s&#45;&gt;node33:n</title>
<path fill="none" stroke="black" d="M2108.46,-474.19C2108.46,-415.79 2124.36,-398.99 2108.46,-342.8"/>
<text xml:space="preserve" text-anchor="middle" x="2122.27" y="-374.2" font-family="Times New Roman,serif" font-size="14.00">no</text>
</g>
<!-- node31&#45;&gt;node33 -->
<g id="edge27" class="edge">
<title>node31&#45;&gt;node33:n</title>
<path fill="none" stroke="green" d="M2108.46,-341.8C2100.77,-314.63 1639.79,-348.21 1566.29,-329.83"/>
<polygon fill="green" stroke="green" points="1568.2,-326.89 1557.79,-324.91 1564.7,-332.95 1568.2,-326.89"/>
<path fill="none" stroke="green" d="M2071.74,-360.83C2092.57,-354.45 2109.82,-347.62 2108.46,-342.8"/>
</g>
<!-- node34 -->
<g id="node23" class="node">
<title>node34</title>
<polygon fill="lightcyan" stroke="none" points="1451.08,-151.6 1451.08,-174.1 1661.83,-174.1 1661.83,-151.6 1451.08,-151.6"/>
<polygon fill="none" stroke="black" points="1451.08,-151.6 1451.08,-174.1 1661.83,-174.1 1661.83,-151.6 1451.08,-151.6"/>
<text xml:space="preserve" text-anchor="start" x="1454.08" y="-157.8" font-family="Times New Roman,serif" font-size="14.00"> symbol_on_segments_v:= &#160;&#160;seg_out </text>
</g>
<!-- node33&#45;&gt;node34 -->
<g id="edge28" class="edge">
<title>node33:s&#45;&gt;node34</title>
<path fill="none" stroke="red" d="M1556.46,-287.8C1556.46,-255.07 1556.46,-217.47 1556.46,-192.35"/>
<polygon fill="red" stroke="red" points="1559.96,-192.61 1556.46,-182.61 1552.96,-192.61 1559.96,-192.61"/>
<text xml:space="preserve" text-anchor="middle" x="1565.46" y="-256.5" font-family="Times New Roman,serif" font-size="14.00">yes</text>
</g>
<!-- node35 -->
<g id="node24" class="node">
<title>node35</title>
<polygon fill="#c1b2ff" stroke="#c1b2ff" points="1287.46,-235.3 1154.76,-217.3 1287.46,-199.3 1420.15,-217.3 1287.46,-235.3"/>
<text xml:space="preserve" text-anchor="middle" x="1287.46" y="-212.25" font-family="Times New Roman,serif" font-size="14.00"> elsif &#160;&#160;&#160;ce_in= &#39;0&#39; then</text>
</g>
<!-- node33&#45;&gt;node35 -->
<g id="edge29" class="edge">
<title>node33:s&#45;&gt;node35</title>
<path fill="none" stroke="black" d="M1556.46,-287.8C1556.46,-277.16 1428.66,-248.17 1349.24,-231.18"/>
<polygon fill="black" stroke="black" points="1350.36,-227.84 1339.85,-229.18 1348.9,-234.69 1350.36,-227.84"/>
<text xml:space="preserve" text-anchor="middle" x="1518.11" y="-256.5" font-family="Times New Roman,serif" font-size="14.00">no</text>
</g>
<!-- node39 -->
<g id="node26" class="node">
<title>node39</title>
<ellipse fill="none" stroke="black" cx="576.46" cy="-18" rx="43.16" ry="18"/>
<text xml:space="preserve" text-anchor="middle" x="576.46" y="-12.95" font-family="Times New Roman,serif" font-size="14.00">end loop</text>
</g>
<!-- node34&#45;&gt;node39 -->
<g id="edge30" class="edge">
<title>node34&#45;&gt;node39</title>
<path fill="none" stroke="green" d="M1558.31,-144.46C1559.43,-124.01 1557.69,-90.6 1537.46,-73 1495.43,-36.44 1325.37,-95.8 1287.46,-55"/>
</g>
<!-- node36 -->
<g id="node25" class="node">
<title>node36</title>
<polygon fill="lightcyan" stroke="none" points="1053.83,-80.2 1053.83,-119.2 1521.08,-119.2 1521.08,-80.2 1053.83,-80.2"/>
<polygon fill="none" stroke="black" points="1053.83,-80.2 1053.83,-119.2 1521.08,-119.2 1521.08,-80.2 1053.83,-80.2"/>
<text xml:space="preserve" text-anchor="start" x="1056.83" y="-102.9" font-family="Times New Roman,serif" font-size="14.00"> assert_moment&lt;=not &#160;&#160;&#160;assert_moment, &#39;0&#39; after &#160;&#160;10 ns</text>
<text xml:space="preserve" text-anchor="start" x="1056.83" y="-86.4" font-family="Times New Roman,serif" font-size="14.00">assert &#160;&#160;&#160;seg_out= &#160;&#160;symbol_on_segments_v report &#160;&#160;&#160;&quot;Nefunguje CE&quot; report &#160;&#160;&#160;error </text>
</g>
<!-- node35&#45;&gt;node36 -->
<g id="edge31" class="edge">
<title>node35&#45;&gt;node36</title>
<path fill="none" stroke="red" d="M1287.46,-199.24C1287.46,-183.1 1287.46,-158.34 1287.46,-137.67"/>
<polygon fill="red" stroke="red" points="1290.96,-137.9 1287.46,-127.9 1283.96,-137.9 1290.96,-137.9"/>
<text xml:space="preserve" text-anchor="middle" x="1296.46" y="-157.8" font-family="Times New Roman,serif" font-size="14.00">yes</text>
</g>
<!-- node35&#45;&gt;node39 -->
<g id="edge32" class="edge">
<title>node35&#45;&gt;node39</title>
<path fill="none" stroke="black" d="M1228.95,-206.77C1132.42,-188.76 956.78,-144.93 1023.96,-73 1064.02,-30.11 1326.03,-99.24 1287.46,-55"/>
<path fill="none" stroke="black" d="M1287.46,-54C1265.21,-30.04 793.67,-21.77 631.03,-19.63"/>
<polygon fill="black" stroke="black" points="631.42,-16.13 621.38,-19.5 631.33,-23.13 631.42,-16.13"/>
<text xml:space="preserve" text-anchor="middle" x="1030.71" y="-94.65" font-family="Times New Roman,serif" font-size="14.00">no</text>
</g>
<!-- node36&#45;&gt;node39 -->
<g id="edge33" class="edge">
<title>node36&#45;&gt;node39</title>
<path fill="none" stroke="green" d="M1293.33,-73.26C1293.42,-66.58 1292,-59.89 1287.46,-55"/>
</g>
<!-- node39&#45;&gt;node24 -->
<g id="edge34" class="edge">
<title>node39&#45;&gt;node24:n</title>
<path fill="none" stroke="green" d="M534.26,-22.22C487.16,-28.39 417.46,-46.36 417.46,-98.7 417.46,-731.05 417.46,-731.05 417.46,-731.05 417.46,-852.28 833.7,-813.7 953.46,-832.5 985.3,-837.5 1076.06,-826.33 1097.39,-850.5 1108.07,-862.6 1108.76,-875.36 1097.39,-886.81 1092.88,-891.35 1000.74,-894.36 968.49,-890.93"/>
<polygon fill="green" stroke="green" points="969.49,-887.58 958.91,-888.22 967.58,-894.31 969.49,-887.58"/>
</g>
<!-- node47 -->
<g id="node28" class="node">
<title>node47</title>
<polygon fill="#c1b2ff" stroke="#c1b2ff" points="957.46,-625.1 824.03,-607.1 957.46,-589.1 1090.88,-607.1 957.46,-625.1"/>
<text xml:space="preserve" text-anchor="middle" x="957.46" y="-602.05" font-family="Times New Roman,serif" font-size="14.00"> &#160;for j in &#160;1 TO &#160;5 loop</text>
</g>
<!-- node40&#45;&gt;node47 -->
<g id="edge35" class="edge">
<title>node40&#45;&gt;node47:n</title>
<path fill="none" stroke="green" d="M957.46,-662.23C957.46,-653.74 957.46,-645.05 957.46,-636.54"/>
<polygon fill="green" stroke="green" points="960.96,-636.61 957.46,-626.61 953.96,-636.61 960.96,-636.61"/>
</g>
<!-- node48 -->
<g id="node29" class="node">
<title>node48</title>
<polygon fill="lightcyan" stroke="none" points="490.21,-457.4 490.21,-529.4 1424.71,-529.4 1424.71,-457.4 490.21,-457.4"/>
<polygon fill="none" stroke="black" points="490.21,-457.4 490.21,-529.4 1424.71,-529.4 1424.71,-457.4 490.21,-457.4"/>
<text xml:space="preserve" text-anchor="start" x="493.21" y="-513.1" font-family="Times New Roman,serif" font-size="14.00"> assert_moment&lt;=not &#160;&#160;&#160;assert_moment, &#39;0&#39; after &#160;&#160;10 ns</text>
<text xml:space="preserve" text-anchor="start" x="493.21" y="-496.6" font-family="Times New Roman,serif" font-size="14.00">assert &#160;&#160;&#160;dut_val_bcd_i= &#160;&#160;d_in report &#160;&#160;&#160;&quot;Nefunguje synch load BCD citace&quot; report &#160;&#160;&#160;error</text>
<text xml:space="preserve" text-anchor="start" x="493.21" y="-480.1" font-family="Times New Roman,serif" font-size="14.00">assert &#160;&#160;&#160;seg_out( 6 DOWNTO &#160;0)= &#160;&#160;led7seg_bcd_to_segments( X&quot;5&quot;) report &#160;&#160;&#160;&quot;Chybna hodnota na displeji pro synch load&quot; report &#160;&#160;&#160;error</text>
<text xml:space="preserve" text-anchor="start" x="493.21" y="-463.6" font-family="Times New Roman,serif" font-size="14.00"> wait &#160;on clk_in until &#160;&#160;&#160;clk_in= &#39;0&#39; &#160;&#160;&#160;&#160;&#160;&#160;&#160;&#160;&#160;&#160;&#160;&#160;&#160;&#160;&#160;&#160;&#160;&#160;&#160;&#160;&#160;&#160;&#160;&#160;&#160;&#160;&#160;&#160;&#160;&#160;&#160;&#160;&#160;&#160;&#160;&#160;&#160;&#160;&#160;&#160;&#160;&#160;&#160;&#160;&#160;&#160;&#160;&#160;&#160;&#160;&#160;&#160;&#160;&#160;&#160;&#160;&#160;&#160;&#160;&#160;&#160;&#160;&#160;&#160;&#160;&#160;&#160;&#160;&#160;&#160;&#160;&#160;&#160;&#160;&#160;&#160;&#160;&#160;&#160;&#160;&#160;&#160;&#160;&#160;&#160;&#160;&#160;&#160;&#160;&#160;&#160;&#160;&#160;&#160;&#160;&#160;&#160;&#160;&#160;&#160;&#160;&#160;&#160;&#160;&#160;&#160;&#160;&#160;&#160;&#160;&#160;&#160;&#160;&#160;&#160;&#160;&#160;&#160;&#160;&#160;&#160;&#160;&#160;&#160;&#160;&#160;&#160;&#160;&#160;&#160;&#160;&#160;&#160;&#160;&#160;&#160;&#160;&#160;&#160;&#160;&#160;&#160;&#160;&#160;&#160;&#160;&#160;&#160;&#160;&#160;&#160;&#160;&#160;&#160;&#160;&#160;&#160;&#160;&#160;&#160;&#160;&#160;&#160;&#160;&#160;&#160;&#160;&#160;&#160;&#160;&#160;&#160;&#160;&#160;&#160;&#160;&#160;&#160;&#160;&#160;&#160;&#160;&#160;&#160;&#160;&#160;&#160;&#160;&#160;&#160;&#160;&#160;&#160;&#160;&#160;. </text>
</g>
<!-- node47&#45;&gt;node48 -->
<g id="edge36" class="edge">
<title>node47:s&#45;&gt;node48</title>
<path fill="none" stroke="red" d="M957.46,-589.1C957.46,-575.61 957.46,-561.05 957.46,-547.48"/>
<polygon fill="red" stroke="red" points="960.96,-547.87 957.46,-537.87 953.96,-547.87 960.96,-547.87"/>
<text xml:space="preserve" text-anchor="middle" x="966.46" y="-557.8" font-family="Times New Roman,serif" font-size="14.00">yes</text>
</g>
<!-- node54 -->
<g id="node31" class="node">
<title>node54</title>
<polygon fill="lightcyan" stroke="none" points="1456.71,-482.15 1456.71,-504.65 1674.21,-504.65 1674.21,-482.15 1456.71,-482.15"/>
<polygon fill="none" stroke="black" points="1456.71,-482.15 1456.71,-504.65 1674.21,-504.65 1674.21,-482.15 1456.71,-482.15"/>
<text xml:space="preserve" text-anchor="start" x="1459.71" y="-488.35" font-family="Times New Roman,serif" font-size="14.00"> &#160;report &#160;&#160;&#160;&quot;Test done.&quot; severity &#160;&#160;&#160;note </text>
</g>
<!-- node47&#45;&gt;node54 -->
<g id="edge37" class="edge">
<title>node47:s&#45;&gt;node54</title>
<path fill="none" stroke="black" d="M957.46,-589.1C957.46,-562.11 1414.1,-542.41 1440.46,-536.6 1463.99,-531.41 1489.3,-523.36 1510.94,-515.67"/>
<polygon fill="black" stroke="black" points="1511.94,-519.04 1520.15,-512.34 1509.56,-512.45 1511.94,-519.04"/>
<text xml:space="preserve" text-anchor="middle" x="1195.82" y="-557.8" font-family="Times New Roman,serif" font-size="14.00">no</text>
</g>
<!-- node53 -->
<g id="node30" class="node">
<title>node53</title>
<ellipse fill="none" stroke="black" cx="722.46" cy="-379.25" rx="43.16" ry="18"/>
<text xml:space="preserve" text-anchor="middle" x="722.46" y="-374.2" font-family="Times New Roman,serif" font-size="14.00">end loop</text>
</g>
<!-- node48&#45;&gt;node53 -->
<g id="edge38" class="edge">
<title>node48&#45;&gt;node53</title>
<path fill="none" stroke="green" d="M869.28,-450.32C831.7,-432.38 789.84,-412.41 760.47,-398.39"/>
<polygon fill="green" stroke="green" points="762.14,-395.31 751.6,-394.16 759.12,-401.63 762.14,-395.31"/>
</g>
<!-- node53&#45;&gt;node47 -->
<g id="edge39" class="edge">
<title>node53&#45;&gt;node47:n</title>
<path fill="none" stroke="green" d="M681.83,-385.75C618.14,-395.31 499.47,-417.16 474.46,-450.2 451.28,-480.82 448.48,-508.32 474.46,-536.6 497.71,-561.91 1067.63,-563.79 1090.88,-589.1 1101.81,-601.01 1102.27,-614 1090.88,-625.47 1086.59,-629.79 999.56,-632.68 968.42,-629.49"/>
<polygon fill="green" stroke="green" points="969.49,-626.16 958.92,-626.87 967.63,-632.9 969.49,-626.16"/>
</g>
<!-- node57 -->
<g id="node32" class="node">
<title>node57</title>
<path fill="none" stroke="black" d="M1598.96,-397.25C1598.96,-397.25 1531.96,-397.25 1531.96,-397.25 1525.96,-397.25 1519.96,-391.25 1519.96,-385.25 1519.96,-385.25 1519.96,-373.25 1519.96,-373.25 1519.96,-367.25 1525.96,-361.25 1531.96,-361.25 1531.96,-361.25 1598.96,-361.25 1598.96,-361.25 1604.96,-361.25 1610.96,-367.25 1610.96,-373.25 1610.96,-373.25 1610.96,-385.25 1610.96,-385.25 1610.96,-391.25 1604.96,-397.25 1598.96,-397.25"/>
<polygon fill="white" stroke="none" points="1527.96,-371 1527.96,-387.5 1602.96,-387.5 1602.96,-371 1527.96,-371"/>
<text xml:space="preserve" text-anchor="start" x="1527.96" y="-374.2" font-family="Times New Roman,serif" font-size="14.00"> end process &#160;</text>
</g>
<!-- node54&#45;&gt;node57 -->
<g id="edge40" class="edge">
<title>node54&#45;&gt;node57</title>
<path fill="none" stroke="green" d="M1565.46,-475.37C1565.46,-457.75 1565.46,-429.91 1565.46,-408.9"/>
<polygon fill="green" stroke="green" points="1568.96,-408.96 1565.46,-398.96 1561.96,-408.96 1568.96,-408.96"/>
</g>
</g>
</svg>
