<?xml version="1.0" encoding="UTF-8" standalone="no"?>
<?xml-stylesheet href="doxygen.css" type="text/css"?>
<!DOCTYPE svg PUBLIC "-//W3C//DTD SVG 1.1//EN"
 "http://www.w3.org/Graphics/SVG/1.1/DTD/svg11.dtd">
<!-- Generated by graphviz version 14.1.1 (20251213.1925)
 -->
<!-- Title: G Pages: 1 -->
<svg width="1926pt" height="960pt"
 viewBox="0.00 0.00 1926.00 960.00" xmlns="http://www.w3.org/2000/svg" xmlns:xlink="http://www.w3.org/1999/xlink">
<g id="graph0" class="graph" transform="scale(1 1) rotate(0) translate(4 956.2)">
<title>G</title>
<polygon fill="white" stroke="none" points="-4,4 -4,-956.2 1921.78,-956.2 1921.78,4 -4,4"/>
<!-- node39 -->
<g id="node1" class="node">
<title>node39</title>
<path fill="none" stroke="black" d="M410.95,-952.2C410.95,-952.2 272.7,-952.2 272.7,-952.2 266.7,-952.2 260.7,-946.2 260.7,-940.2 260.7,-940.2 260.7,-928.2 260.7,-928.2 260.7,-922.2 266.7,-916.2 272.7,-916.2 272.7,-916.2 410.95,-916.2 410.95,-916.2 416.95,-916.2 422.95,-922.2 422.95,-928.2 422.95,-928.2 422.95,-940.2 422.95,-940.2 422.95,-946.2 416.95,-952.2 410.95,-952.2"/>
<polygon fill="white" stroke="none" points="268.7,-925.95 268.7,-942.45 414.95,-942.45 414.95,-925.95 268.7,-925.95"/>
<text xml:space="preserve" text-anchor="start" x="268.7" y="-929.15" font-family="Times New Roman,serif" font-size="14.00"> testbench_proc:process( ) </text>
</g>
<!-- node1 -->
<g id="node2" class="node">
<title>node1</title>
<polygon fill="lightcyan" stroke="none" points="183.95,-569 183.95,-872 499.7,-872 499.7,-569 183.95,-569"/>
<polygon fill="none" stroke="black" points="183.95,-569 183.95,-872 499.7,-872 499.7,-569 183.95,-569"/>
<text xml:space="preserve" text-anchor="start" x="186.95" y="-855.7" font-family="Times New Roman,serif" font-size="14.00"> &#160;report &#160;&#160;&#160;&quot;Test start.&quot; severity &#160;&#160;&#160;note</text>
<text xml:space="preserve" text-anchor="start" x="186.95" y="-839.2" font-family="Times New Roman,serif" font-size="14.00"> report &#160;&#160;&#160;&quot;Testing Led7seg_adder3...&quot; severity &#160;&#160;&#160;note</text>
<text xml:space="preserve" text-anchor="start" x="186.95" y="-822.7" font-family="Times New Roman,serif" font-size="14.00"> report &#160;&#160;&#160;&quot;1 + 1 + 1 =&quot; severity &#160;&#160;&#160;note</text>
<text xml:space="preserve" text-anchor="start" x="186.95" y="-806.2" font-family="Times New Roman,serif" font-size="14.00">a_in&lt;= O&quot;1&quot;</text>
<text xml:space="preserve" text-anchor="start" x="186.95" y="-789.7" font-family="Times New Roman,serif" font-size="14.00">b_in&lt;= O&quot;1&quot;</text>
<text xml:space="preserve" text-anchor="start" x="186.95" y="-773.2" font-family="Times New Roman,serif" font-size="14.00">c_in&lt;= &#39;1&#39;</text>
<text xml:space="preserve" text-anchor="start" x="186.95" y="-756.7" font-family="Times New Roman,serif" font-size="14.00"> wait &#160;for &#160;&#160;&#160;stimulus_step_c</text>
<text xml:space="preserve" text-anchor="start" x="186.95" y="-740.2" font-family="Times New Roman,serif" font-size="14.00"> report &#160;&#160;&#160;&quot;4 + 2 + 0 =&quot; severity &#160;&#160;&#160;note</text>
<text xml:space="preserve" text-anchor="start" x="186.95" y="-723.7" font-family="Times New Roman,serif" font-size="14.00">a_in&lt;= O&quot;4&quot;</text>
<text xml:space="preserve" text-anchor="start" x="186.95" y="-707.2" font-family="Times New Roman,serif" font-size="14.00">b_in&lt;= O&quot;2&quot;</text>
<text xml:space="preserve" text-anchor="start" x="186.95" y="-690.7" font-family="Times New Roman,serif" font-size="14.00">c_in&lt;= &#39;0&#39;</text>
<text xml:space="preserve" text-anchor="start" x="186.95" y="-674.2" font-family="Times New Roman,serif" font-size="14.00"> wait &#160;for &#160;&#160;&#160;stimulus_step_c</text>
<text xml:space="preserve" text-anchor="start" x="186.95" y="-657.7" font-family="Times New Roman,serif" font-size="14.00"> report &#160;&#160;&#160;&quot;7 + 7 + 1 =&quot; severity &#160;&#160;&#160;note</text>
<text xml:space="preserve" text-anchor="start" x="186.95" y="-641.2" font-family="Times New Roman,serif" font-size="14.00">a_in&lt;= O&quot;7&quot;</text>
<text xml:space="preserve" text-anchor="start" x="186.95" y="-624.7" font-family="Times New Roman,serif" font-size="14.00">b_in&lt;= O&quot;7&quot;</text>
<text xml:space="preserve" text-anchor="start" x="186.95" y="-608.2" font-family="Times New Roman,serif" font-size="14.00">c_in&lt;= &#39;1&#39;</text>
<text xml:space="preserve" text-anchor="start" x="186.95" y="-591.7" font-family="Times New Roman,serif" font-size="14.00"> wait &#160;for &#160;&#160;&#160;stimulus_step_c</text>
<text xml:space="preserve" text-anchor="start" x="186.95" y="-575.2" font-family="Times New Roman,serif" font-size="14.00"> report &#160;&#160;&#160;&quot;Testing Adder3...&quot; severity &#160;&#160;&#160;note &#160;&#160;&#160;&#160;&#160;&#160;&#160;&#160;&#160;&#160;&#160;&#160;&#160;&#160;&#160;. </text>
</g>
<!-- node39&#45;&gt;node1 -->
<g id="edge1" class="edge">
<title>node39&#45;&gt;node1</title>
<path fill="none" stroke="green" d="M341.82,-915.88C341.82,-908.99 341.82,-900.37 341.82,-890.62"/>
<polygon fill="green" stroke="green" points="345.33,-890.68 341.83,-880.68 338.33,-890.68 345.33,-890.68"/>
</g>
<!-- node22 -->
<g id="node3" class="node">
<title>node22</title>
<polygon fill="#c1b2ff" stroke="#c1b2ff" points="341.82,-524.8 206.23,-506.8 341.82,-488.8 477.42,-506.8 341.82,-524.8"/>
<text xml:space="preserve" text-anchor="middle" x="341.82" y="-501.75" font-family="Times New Roman,serif" font-size="14.00"> &#160;for a in &#160;0 TO &#160;7 loop</text>
</g>
<!-- node1&#45;&gt;node22 -->
<g id="edge2" class="edge">
<title>node1&#45;&gt;node22:n</title>
<path fill="none" stroke="green" d="M341.82,-561.96C341.82,-553.32 341.82,-544.71 341.82,-536.24"/>
<polygon fill="green" stroke="green" points="345.33,-536.31 341.83,-526.31 338.33,-536.31 345.33,-536.31"/>
</g>
<!-- node23 -->
<g id="node4" class="node">
<title>node23</title>
<polygon fill="#c1b2ff" stroke="#c1b2ff" points="505.82,-394.6 369.51,-376.6 505.82,-358.6 642.14,-376.6 505.82,-394.6"/>
<text xml:space="preserve" text-anchor="middle" x="505.82" y="-371.55" font-family="Times New Roman,serif" font-size="14.00"> &#160;for b in &#160;0 TO &#160;7 loop</text>
</g>
<!-- node22&#45;&gt;node23 -->
<g id="edge3" class="edge">
<title>node22:s&#45;&gt;node23:n</title>
<path fill="none" stroke="red" d="M341.82,-488.8C341.82,-470.4 468.51,-428.87 499.19,-404.87"/>
<polygon fill="red" stroke="red" points="501.7,-407.36 504.92,-397.26 496.11,-403.15 501.7,-407.36"/>
<text xml:space="preserve" text-anchor="middle" x="403.87" y="-457.5" font-family="Times New Roman,serif" font-size="14.00">yes</text>
</g>
<!-- node33 -->
<g id="node10" class="node">
<title>node33</title>
<polygon fill="lightcyan" stroke="none" points="7.2,-324.1 7.2,-429.1 306.45,-429.1 306.45,-324.1 7.2,-324.1"/>
<polygon fill="none" stroke="black" points="7.2,-324.1 7.2,-429.1 306.45,-429.1 306.45,-324.1 7.2,-324.1"/>
<text xml:space="preserve" text-anchor="start" x="10.2" y="-412.8" font-family="Times New Roman,serif" font-size="14.00"> a_in&lt;=( others =&gt; &#39;0&#39;)</text>
<text xml:space="preserve" text-anchor="start" x="10.2" y="-396.3" font-family="Times New Roman,serif" font-size="14.00">b_in&lt;=( others =&gt; &#39;0&#39;)</text>
<text xml:space="preserve" text-anchor="start" x="10.2" y="-379.8" font-family="Times New Roman,serif" font-size="14.00">c_in&lt;= &#39;0&#39;</text>
<text xml:space="preserve" text-anchor="start" x="10.2" y="-363.3" font-family="Times New Roman,serif" font-size="14.00"> wait &#160;for &#160;&#160;&#160;stimulus_step_c</text>
<text xml:space="preserve" text-anchor="start" x="10.2" y="-346.8" font-family="Times New Roman,serif" font-size="14.00"> report &#160;&#160;&#160;&quot;Test done.&quot; severity &#160;&#160;&#160;note</text>
<text xml:space="preserve" text-anchor="start" x="10.2" y="-330.3" font-family="Times New Roman,serif" font-size="14.00"> wait &#160;&#160;&#160;&#160;&#160;&#160;&#160;&#160;&#160;&#160;&#160;&#160;&#160;&#160;&#160;&#160;&#160;&#160;&#160;&#160;&#160;&#160;&#160;&#160;&#160;&#160;&#160;&#160;&#160;&#160;&#160;&#160;&#160;&#160;&#160;&#160;&#160;&#160;&#160;&#160;&#160;&#160;&#160;&#160;&#160;&#160;&#160;&#160;&#160;&#160;&#160;&#160;&#160;&#160;&#160;&#160;&#160;&#160;&#160;&#160;&#160;&#160;&#160;&#160;&#160;&#160;&#160;&#160;. </text>
</g>
<!-- node22&#45;&gt;node33 -->
<g id="edge4" class="edge">
<title>node22:s&#45;&gt;node33</title>
<path fill="none" stroke="black" d="M341.82,-488.8C341.82,-487.48 306.11,-465.85 266.06,-442.02"/>
<polygon fill="black" stroke="black" points="268.05,-439.13 257.67,-437.03 264.47,-445.15 268.05,-439.13"/>
<text xml:space="preserve" text-anchor="middle" x="317.56" y="-457.5" font-family="Times New Roman,serif" font-size="14.00">no</text>
</g>
<!-- node24 -->
<g id="node5" class="node">
<title>node24</title>
<polygon fill="#c1b2ff" stroke="#c1b2ff" points="637.83,-264.4 502.23,-246.4 637.83,-228.4 773.42,-246.4 637.83,-264.4"/>
<text xml:space="preserve" text-anchor="middle" x="637.83" y="-241.35" font-family="Times New Roman,serif" font-size="14.00"> &#160;for c in &#160;0 TO &#160;1 loop</text>
</g>
<!-- node23&#45;&gt;node24 -->
<g id="edge5" class="edge">
<title>node23:s&#45;&gt;node24:n</title>
<path fill="none" stroke="red" d="M505.82,-357.15C505.82,-289.65 622.81,-330.58 636.52,-275.79"/>
<polygon fill="red" stroke="red" points="639.99,-276.24 637.65,-265.9 633.04,-275.44 639.99,-276.24"/>
<text xml:space="preserve" text-anchor="middle" x="643.13" y="-285.6" font-family="Times New Roman,serif" font-size="14.00">yes</text>
</g>
<!-- node32 -->
<g id="node9" class="node">
<title>node32</title>
<ellipse fill="none" stroke="black" cx="372.82" cy="-246.4" rx="43.16" ry="18"/>
<text xml:space="preserve" text-anchor="middle" x="372.82" y="-241.35" font-family="Times New Roman,serif" font-size="14.00">end loop</text>
</g>
<!-- node23&#45;&gt;node32 -->
<g id="edge6" class="edge">
<title>node23:s&#45;&gt;node32</title>
<path fill="none" stroke="black" d="M505.82,-357.15C505.82,-343.91 442.37,-296.6 403.12,-268.6"/>
<polygon fill="black" stroke="black" points="405.61,-266.08 395.43,-263.14 401.56,-271.78 405.61,-266.08"/>
<text xml:space="preserve" text-anchor="middle" x="450.06" y="-285.6" font-family="Times New Roman,serif" font-size="14.00">no</text>
</g>
<!-- node25 -->
<g id="node6" class="node">
<title>node25</title>
<polygon fill="lightcyan" stroke="none" points="649.08,-80.2 649.08,-168.7 1910.58,-168.7 1910.58,-80.2 649.08,-80.2"/>
<polygon fill="none" stroke="black" points="649.08,-80.2 649.08,-168.7 1910.58,-168.7 1910.58,-80.2 649.08,-80.2"/>
<text xml:space="preserve" text-anchor="start" x="652.08" y="-152.4" font-family="Times New Roman,serif" font-size="14.00"> a_in&lt;= &#160;&#160;std_logic_vector( to_unsigned( &#160;&#160;a, 3) )</text>
<text xml:space="preserve" text-anchor="start" x="652.08" y="-135.9" font-family="Times New Roman,serif" font-size="14.00">b_in&lt;= &#160;&#160;std_logic_vector( to_unsigned( &#160;&#160;b, 3) )</text>
<text xml:space="preserve" text-anchor="start" x="652.08" y="-119.4" font-family="Times New Roman,serif" font-size="14.00">c_in&lt;= &#160;&#160;std_logic( to_unsigned( &#160;&#160;c, 1)( 0) )</text>
<text xml:space="preserve" text-anchor="start" x="652.08" y="-102.9" font-family="Times New Roman,serif" font-size="14.00"> wait &#160;for &#160;&#160;&#160;stimulus_step_c</text>
<text xml:space="preserve" text-anchor="start" x="652.08" y="-86.4" font-family="Times New Roman,serif" font-size="14.00">assert ( &#160;&#160;dut_sum_result= &#160;&#160;std_logic_vector( to_unsigned( &#160;&#160;a+ &#160;&#160;b+ &#160;&#160;c, 4) )) report &#160;&#160;&#160;to_string( a )&amp; &#160;&#160;&quot;+&quot;&amp; &#160;&#160;to_string( b )&amp; &#160;&#160;&quot;+&quot;&amp; &#160;&#160;to_string( c )&amp; &#160;&#160;&quot; = &quot;&amp; &#160;&#160;to_string( to_integer( unsigned( dut_sum_result ) ) ) report &#160;&#160;&#160;error </text>
</g>
<!-- node24&#45;&gt;node25 -->
<g id="edge7" class="edge">
<title>node24:s&#45;&gt;node25</title>
<path fill="none" stroke="red" d="M637.83,-228.4C637.83,-208.5 686.52,-191.76 757.09,-177.93"/>
<polygon fill="red" stroke="red" points="757.48,-181.42 766.64,-176.11 756.16,-174.55 757.48,-181.42"/>
<text xml:space="preserve" text-anchor="middle" x="690.87" y="-197.1" font-family="Times New Roman,serif" font-size="14.00">yes</text>
</g>
<!-- node31 -->
<g id="node8" class="node">
<title>node31</title>
<ellipse fill="none" stroke="black" cx="512.83" cy="-124.45" rx="43.16" ry="18"/>
<text xml:space="preserve" text-anchor="middle" x="512.83" y="-119.4" font-family="Times New Roman,serif" font-size="14.00">end loop</text>
</g>
<!-- node24&#45;&gt;node31 -->
<g id="edge8" class="edge">
<title>node24:s&#45;&gt;node31</title>
<path fill="none" stroke="black" d="M637.83,-228.4C637.83,-204.15 606.38,-224.03 586.33,-210.4 563.35,-194.79 543.2,-170.26 529.83,-151.56"/>
<polygon fill="black" stroke="black" points="532.73,-149.61 524.16,-143.38 526.98,-153.59 532.73,-149.61"/>
<text xml:space="preserve" text-anchor="middle" x="593.08" y="-197.1" font-family="Times New Roman,serif" font-size="14.00">no</text>
</g>
<!-- node30 -->
<g id="node7" class="node">
<title>node30</title>
<ellipse fill="none" stroke="black" cx="625.83" cy="-18" rx="43.16" ry="18"/>
<text xml:space="preserve" text-anchor="middle" x="625.83" y="-12.95" font-family="Times New Roman,serif" font-size="14.00">end loop</text>
</g>
<!-- node25&#45;&gt;node30 -->
<g id="edge9" class="edge">
<title>node25&#45;&gt;node30</title>
<path fill="none" stroke="green" d="M964.32,-73.06C853.16,-55.31 740.22,-37.27 676.98,-27.17"/>
<polygon fill="green" stroke="green" points="677.69,-23.74 667.26,-25.62 676.58,-30.65 677.69,-23.74"/>
</g>
<!-- node30&#45;&gt;node24 -->
<g id="edge10" class="edge">
<title>node30&#45;&gt;node24:n</title>
<path fill="none" stroke="green" d="M621.24,-36.38C612.01,-75.88 596.47,-171.94 651.83,-210.4 696.69,-241.57 737.73,-187.04 773.42,-228.4 783.97,-240.63 784.8,-253.29 773.42,-264.76 769.04,-269.16 679.77,-272.1 648.52,-268.78"/>
<polygon fill="green" stroke="green" points="649.86,-265.52 639.28,-266.17 647.95,-272.26 649.86,-265.52"/>
</g>
<!-- node31&#45;&gt;node23 -->
<g id="edge11" class="edge">
<title>node31&#45;&gt;node23:n</title>
<path fill="none" stroke="green" d="M504.04,-142.47C491.19,-169.94 471.05,-224.92 492.82,-264.4 530.72,-333.11 604.25,-289.89 642.14,-358.6 649.97,-372.79 653.56,-383.56 642.14,-395.05 637.74,-399.48 547.99,-402.44 516.57,-399.1"/>
<polygon fill="green" stroke="green" points="517.86,-395.82 507.28,-396.47 515.95,-402.56 517.86,-395.82"/>
</g>
<!-- node32&#45;&gt;node22 -->
<g id="edge12" class="edge">
<title>node32&#45;&gt;node22:n</title>
<path fill="none" stroke="green" d="M364.9,-264.56C347.15,-305.84 309.69,-411.67 361.82,-470.8 396.21,-509.8 443.6,-449.31 477.42,-488.8 487.93,-501.07 488.8,-513.69 477.42,-525.16 473.04,-529.56 383.77,-532.5 352.52,-529.18"/>
<polygon fill="green" stroke="green" points="353.86,-525.92 343.28,-526.57 351.95,-532.66 353.86,-525.92"/>
</g>
<!-- node40 -->
<g id="node11" class="node">
<title>node40</title>
<path fill="none" stroke="black" d="M190.32,-264.4C190.32,-264.4 123.32,-264.4 123.32,-264.4 117.32,-264.4 111.32,-258.4 111.32,-252.4 111.32,-252.4 111.32,-240.4 111.32,-240.4 111.32,-234.4 117.32,-228.4 123.32,-228.4 123.32,-228.4 190.32,-228.4 190.32,-228.4 196.32,-228.4 202.32,-234.4 202.32,-240.4 202.32,-240.4 202.32,-252.4 202.32,-252.4 202.32,-258.4 196.32,-264.4 190.32,-264.4"/>
<polygon fill="white" stroke="none" points="119.32,-238.15 119.32,-254.65 194.32,-254.65 194.32,-238.15 119.32,-238.15"/>
<text xml:space="preserve" text-anchor="start" x="119.32" y="-241.35" font-family="Times New Roman,serif" font-size="14.00"> end process &#160;</text>
</g>
<!-- node33&#45;&gt;node40 -->
<g id="edge13" class="edge">
<title>node33&#45;&gt;node40</title>
<path fill="none" stroke="green" d="M156.82,-317.13C156.82,-302.86 156.82,-288.22 156.82,-276.07"/>
<polygon fill="green" stroke="green" points="160.33,-276.35 156.83,-266.35 153.33,-276.35 160.33,-276.35"/>
</g>
</g>
</svg>
