<?xml version="1.0" encoding="UTF-8" standalone="no"?>
<?xml-stylesheet href="doxygen.css" type="text/css"?>
<!DOCTYPE svg PUBLIC "-//W3C//DTD SVG 1.1//EN"
 "http://www.w3.org/Graphics/SVG/1.1/DTD/svg11.dtd">
<!-- Generated by graphviz version 14.1.1 (20251213.1925)
 -->
<!-- Title: G Pages: 1 -->
<svg width="465pt" height="456pt"
 viewBox="0.00 0.00 465.00 456.00" xmlns="http://www.w3.org/2000/svg" xmlns:xlink="http://www.w3.org/1999/xlink">
<g id="graph0" class="graph" transform="scale(1 1) rotate(0) translate(4 452.4)">
<title>G</title>
<polygon fill="white" stroke="none" points="-4,4 -4,-452.4 460.76,-452.4 460.76,4 -4,4"/>
<!-- node10 -->
<g id="node1" class="node">
<title>node10</title>
<path fill="none" stroke="black" d="M356.68,-448.4C356.68,-448.4 236.43,-448.4 236.43,-448.4 230.43,-448.4 224.43,-442.4 224.43,-436.4 224.43,-436.4 224.43,-424.4 224.43,-424.4 224.43,-418.4 230.43,-412.4 236.43,-412.4 236.43,-412.4 356.68,-412.4 356.68,-412.4 362.68,-412.4 368.68,-418.4 368.68,-424.4 368.68,-424.4 368.68,-436.4 368.68,-436.4 368.68,-442.4 362.68,-448.4 356.68,-448.4"/>
<polygon fill="white" stroke="none" points="232.43,-422.15 232.43,-438.65 360.68,-438.65 360.68,-422.15 232.43,-422.15"/>
<text xml:space="preserve" text-anchor="start" x="232.43" y="-425.35" font-family="Times New Roman,serif" font-size="14.00"> cnt_proc:process( clk) </text>
</g>
<!-- node1 -->
<g id="node2" class="node">
<title>node1</title>
<polygon fill="#c1b2ff" stroke="#c1b2ff" points="296.55,-375.4 136.35,-357.4 296.55,-339.4 456.76,-357.4 296.55,-375.4"/>
<text xml:space="preserve" text-anchor="middle" x="296.55" y="-352.35" font-family="Times New Roman,serif" font-size="14.00"> if &#160;&#160;&#160;rising_edge( clk ) then</text>
</g>
<!-- node10&#45;&gt;node1 -->
<g id="edge1" class="edge">
<title>node10&#45;&gt;node1:n</title>
<path fill="none" stroke="green" d="M296.55,-412.38C296.55,-404.9 296.55,-395.78 296.55,-386.71"/>
<polygon fill="green" stroke="green" points="300.05,-386.91 296.55,-376.91 293.05,-386.91 300.05,-386.91"/>
</g>
<!-- node2 -->
<g id="node3" class="node">
<title>node2</title>
<polygon fill="#c1b2ff" stroke="#c1b2ff" points="231.55,-286.9 129.98,-268.9 231.55,-250.9 333.13,-268.9 231.55,-286.9"/>
<text xml:space="preserve" text-anchor="middle" x="231.55" y="-263.85" font-family="Times New Roman,serif" font-size="14.00"> if &#160;&#160;&#160;ce= &#39;1&#39; then</text>
</g>
<!-- node1&#45;&gt;node2 -->
<g id="edge2" class="edge">
<title>node1:s&#45;&gt;node2:n</title>
<path fill="none" stroke="red" d="M296.55,-339.4C296.55,-306.76 246.34,-319.63 234.18,-298.01"/>
<polygon fill="red" stroke="red" points="237.61,-297.3 231.9,-288.37 230.8,-298.91 237.61,-297.3"/>
<text xml:space="preserve" text-anchor="middle" x="296.12" y="-308.1" font-family="Times New Roman,serif" font-size="14.00">yes</text>
</g>
<!-- node11 -->
<g id="node7" class="node">
<title>node11</title>
<path fill="none" stroke="black" d="M378.05,-36C378.05,-36 311.05,-36 311.05,-36 305.05,-36 299.05,-30 299.05,-24 299.05,-24 299.05,-12 299.05,-12 299.05,-6 305.05,0 311.05,0 311.05,0 378.05,0 378.05,0 384.05,0 390.05,-6 390.05,-12 390.05,-12 390.05,-24 390.05,-24 390.05,-30 384.05,-36 378.05,-36"/>
<polygon fill="white" stroke="none" points="307.05,-9.75 307.05,-26.25 382.05,-26.25 382.05,-9.75 307.05,-9.75"/>
<text xml:space="preserve" text-anchor="start" x="307.05" y="-12.95" font-family="Times New Roman,serif" font-size="14.00"> end process &#160;</text>
</g>
<!-- node1&#45;&gt;node11 -->
<g id="edge3" class="edge">
<title>node1:s&#45;&gt;node11</title>
<path fill="none" stroke="black" d="M296.55,-339.4C296.55,-331.64 339.79,-294.15 342.55,-286.9 373.4,-206.16 331.71,-177.92 344.55,-92.45"/>
<text xml:space="preserve" text-anchor="middle" x="358.15" y="-175.35" font-family="Times New Roman,serif" font-size="14.00">no</text>
</g>
<!-- node3 -->
<g id="node4" class="node">
<title>node3</title>
<polygon fill="#c1b2ff" stroke="#c1b2ff" points="143.55,-198.4 0,-180.4 143.55,-162.4 287.11,-180.4 143.55,-198.4"/>
<text xml:space="preserve" text-anchor="middle" x="143.55" y="-175.35" font-family="Times New Roman,serif" font-size="14.00"> if &#160;&#160;&#160;cnt_i&lt; &#160;&#160;MAX then</text>
</g>
<!-- node2&#45;&gt;node3 -->
<g id="edge4" class="edge">
<title>node2:s&#45;&gt;node3:n</title>
<path fill="none" stroke="red" d="M231.55,-250.9C231.55,-209.8 159.9,-237.21 145.91,-209.49"/>
<polygon fill="red" stroke="red" points="149.37,-208.94 143.87,-199.88 142.52,-210.39 149.37,-208.94"/>
<text xml:space="preserve" text-anchor="middle" x="231.4" y="-219.6" font-family="Times New Roman,serif" font-size="14.00">yes</text>
</g>
<!-- node2&#45;&gt;node11 -->
<g id="edge5" class="edge">
<title>node2:s&#45;&gt;node11</title>
<path fill="none" stroke="black" d="M344.55,-90.45C347.02,-74.89 335.84,-68.13 344.55,-55"/>
<path fill="none" stroke="black" d="M231.55,-250.9C231.55,-232.33 286.27,-213.86 296.55,-198.4 314.63,-171.23 302.24,-156.97 317.05,-127.9 326.11,-110.13 341.44,-112.15 344.55,-92.45"/>
<text xml:space="preserve" text-anchor="middle" x="323.8" y="-131.1" font-family="Times New Roman,serif" font-size="14.00">no</text>
</g>
<!-- node4 -->
<g id="node5" class="node">
<title>node4</title>
<polygon fill="lightcyan" stroke="none" points="93.55,-80.2 93.55,-102.7 207.55,-102.7 207.55,-80.2 93.55,-80.2"/>
<polygon fill="none" stroke="black" points="93.55,-80.2 93.55,-102.7 207.55,-102.7 207.55,-80.2 93.55,-80.2"/>
<text xml:space="preserve" text-anchor="start" x="96.55" y="-86.4" font-family="Times New Roman,serif" font-size="14.00"> cnt_i&lt;= &#160;&#160;cnt_i+ 1 </text>
</g>
<!-- node3&#45;&gt;node4 -->
<g id="edge6" class="edge">
<title>node3:s&#45;&gt;node4</title>
<path fill="none" stroke="red" d="M143.55,-162.4C143.55,-148.71 144.9,-133.59 146.41,-120.92"/>
<polygon fill="red" stroke="red" points="149.86,-121.52 147.67,-111.15 142.92,-120.62 149.86,-121.52"/>
<text xml:space="preserve" text-anchor="middle" x="154.62" y="-131.1" font-family="Times New Roman,serif" font-size="14.00">yes</text>
</g>
<!-- node6 -->
<g id="node6" class="node">
<title>node6</title>
<polygon fill="lightcyan" stroke="none" points="241.8,-80.2 241.8,-102.7 309.3,-102.7 309.3,-80.2 241.8,-80.2"/>
<polygon fill="none" stroke="black" points="241.8,-80.2 241.8,-102.7 309.3,-102.7 309.3,-80.2 241.8,-80.2"/>
<text xml:space="preserve" text-anchor="start" x="244.8" y="-86.4" font-family="Times New Roman,serif" font-size="14.00"> cnt_i&lt;= 0 </text>
</g>
<!-- node3&#45;&gt;node6 -->
<g id="edge7" class="edge">
<title>node3:s&#45;&gt;node6</title>
<path fill="none" stroke="black" d="M143.55,-162.4C143.55,-157.42 191.17,-133.18 229.21,-114.62"/>
<polygon fill="black" stroke="black" points="230.31,-117.98 237.77,-110.46 227.25,-111.68 230.31,-117.98"/>
<text xml:space="preserve" text-anchor="middle" x="208.4" y="-131.1" font-family="Times New Roman,serif" font-size="14.00">no</text>
</g>
<!-- node4&#45;&gt;node11 -->
<g id="edge8" class="edge">
<title>node4&#45;&gt;node11</title>
<path fill="none" stroke="green" d="M344.55,-54C345.89,-51.98 346.82,-49.75 347.42,-47.41"/>
<polygon fill="green" stroke="green" points="350.89,-47.9 348.16,-37.66 343.91,-47.37 350.89,-47.9"/>
<path fill="none" stroke="green" d="M214.72,-75.17C218.38,-74.41 222.01,-73.68 225.55,-73 251.82,-67.97 329.76,-77.28 344.55,-55"/>
</g>
<!-- node6&#45;&gt;node11 -->
<g id="edge9" class="edge">
<title>node6&#45;&gt;node11</title>
<path fill="none" stroke="green" d="M316.15,-77.98C327.1,-72.64 337.78,-65.21 344.55,-55"/>
</g>
</g>
</svg>
