<?xml version="1.0" encoding="UTF-8" standalone="no"?>
<?xml-stylesheet href="doxygen.css" type="text/css"?>
<!DOCTYPE svg PUBLIC "-//W3C//DTD SVG 1.1//EN"
 "http://www.w3.org/Graphics/SVG/1.1/DTD/svg11.dtd">
<!-- Generated by graphviz version 14.1.1 (20251213.1925)
 -->
<!-- Title: G Pages: 1 -->
<svg width="1386pt" height="604pt"
 viewBox="0.00 0.00 1386.00 604.00" xmlns="http://www.w3.org/2000/svg" xmlns:xlink="http://www.w3.org/1999/xlink">
<g id="graph0" class="graph" transform="scale(1 1) rotate(0) translate(4 600.2)">
<title>G</title>
<polygon fill="white" stroke="none" points="-4,4 -4,-600.2 1381.64,-600.2 1381.64,4 -4,4"/>
<!-- node10 -->
<g id="node1" class="node">
<title>node10</title>
<path fill="none" stroke="black" d="M785.83,-596.2C785.83,-596.2 452.58,-596.2 452.58,-596.2 446.58,-596.2 440.58,-590.2 440.58,-584.2 440.58,-584.2 440.58,-572.2 440.58,-572.2 440.58,-566.2 446.58,-560.2 452.58,-560.2 452.58,-560.2 785.83,-560.2 785.83,-560.2 791.83,-560.2 797.83,-566.2 797.83,-572.2 797.83,-572.2 797.83,-584.2 797.83,-584.2 797.83,-590.2 791.83,-596.2 785.83,-596.2"/>
<polygon fill="white" stroke="none" points="448.58,-569.95 448.58,-586.45 789.83,-586.45 789.83,-569.95 448.58,-569.95"/>
<text xml:space="preserve" text-anchor="start" x="448.58" y="-573.15" font-family="Times New Roman,serif" font-size="14.00"> deadtime_check_proc:process( drv_top_out,drv_bottom_out) </text>
</g>
<!-- node1 -->
<g id="node2" class="node">
<title>node1</title>
<polygon fill="#c1b2ff" stroke="#c1b2ff" points="619.2,-523.2 328.71,-505.2 619.2,-487.2 909.69,-505.2 619.2,-523.2"/>
<text xml:space="preserve" text-anchor="middle" x="619.2" y="-500.15" font-family="Times New Roman,serif" font-size="14.00"> if &#160;&#160;&#160;drv_top_out= &#39;1&#39;and &#160;&#160;drv_bottom_out= &#39;1&#39; then</text>
</g>
<!-- node10&#45;&gt;node1 -->
<g id="edge1" class="edge">
<title>node10&#45;&gt;node1:n</title>
<path fill="none" stroke="green" d="M619.2,-560.18C619.2,-552.7 619.2,-543.58 619.2,-534.51"/>
<polygon fill="green" stroke="green" points="622.7,-534.71 619.2,-524.71 615.7,-534.71 622.7,-534.71"/>
</g>
<!-- node2 -->
<g id="node3" class="node">
<title>node2</title>
<polygon fill="lightcyan" stroke="none" points="167.7,-405 167.7,-427.5 740.7,-427.5 740.7,-405 167.7,-405"/>
<polygon fill="none" stroke="black" points="167.7,-405 167.7,-427.5 740.7,-427.5 740.7,-405 167.7,-405"/>
<text xml:space="preserve" text-anchor="start" x="170.7" y="-411.2" font-family="Times New Roman,serif" font-size="14.00"> &#160;report &#160;&#160;&#160;&quot;V case: &quot;&amp; &#160;&#160;to_string( now )&amp; &#160;&#160;&quot;, zhorely oba vykonove tranzistory! &#160;:&#45;X&quot; severity &#160;&#160;&#160;error </text>
</g>
<!-- node1&#45;&gt;node2 -->
<g id="edge2" class="edge">
<title>node1:s&#45;&gt;node2</title>
<path fill="none" stroke="red" d="M619.2,-487.2C619.2,-465.31 606.74,-450.17 588.66,-439.72"/>
<polygon fill="red" stroke="red" points="590.27,-436.61 579.76,-435.21 587.1,-442.85 590.27,-436.61"/>
<text xml:space="preserve" text-anchor="middle" x="623.58" y="-455.9" font-family="Times New Roman,serif" font-size="14.00">yes</text>
</g>
<!-- node4 -->
<g id="node4" class="node">
<title>node4</title>
<polygon fill="#c1b2ff" stroke="#c1b2ff" points="784.2,-360.8 506.74,-342.8 784.2,-324.8 1061.66,-342.8 784.2,-360.8"/>
<text xml:space="preserve" text-anchor="middle" x="784.2" y="-337.75" font-family="Times New Roman,serif" font-size="14.00"> if &#160;&#160;&#160;drv_top_out&#39;eventand &#160;&#160;drv_top_out= &#39;1&#39; then</text>
</g>
<!-- node1&#45;&gt;node4 -->
<g id="edge3" class="edge">
<title>node1:s&#45;&gt;node4:n</title>
<path fill="none" stroke="black" d="M619.2,-487.2C619.2,-470.79 745.07,-445.75 757.2,-434.7 777.3,-416.39 767.2,-401.02 784.2,-379.8"/>
<text xml:space="preserve" text-anchor="middle" x="781.18" y="-411.2" font-family="Times New Roman,serif" font-size="14.00">no</text>
</g>
<!-- node2&#45;&gt;node4 -->
<g id="edge4" class="edge">
<title>node2&#45;&gt;node4:n</title>
<path fill="none" stroke="green" d="M784.2,-378.8C786.2,-376.3 786.6,-374.2 786.36,-372.07"/>
<polygon fill="green" stroke="green" points="789.87,-371.79 784.5,-362.66 783.01,-373.15 789.87,-371.79"/>
<path fill="none" stroke="green" d="M720.65,-397.81C753.82,-393.08 778.3,-387.16 784.2,-379.8"/>
</g>
<!-- node5 -->
<g id="node5" class="node">
<title>node5</title>
<polygon fill="lightcyan" stroke="none" points="7.2,-242.6 7.2,-265.1 1015.2,-265.1 1015.2,-242.6 7.2,-242.6"/>
<polygon fill="none" stroke="black" points="7.2,-242.6 7.2,-265.1 1015.2,-265.1 1015.2,-242.6 7.2,-242.6"/>
<text xml:space="preserve" text-anchor="start" x="10.2" y="-248.8" font-family="Times New Roman,serif" font-size="14.00"> assert &#160;&#160;&#160;drv_bottom_out&#39;stable( &#160;&#160;clock_period_c) report &#160;&#160;&#160;&quot;V case: &quot;&amp; &#160;&#160;to_string( now )&amp; &#160;&#160;&quot;, nebyla splnena Deadtime podminka pro dolni vykonovy tranzistor! &#160;:&#45;(&quot; report &#160;&#160;&#160;error </text>
</g>
<!-- node4&#45;&gt;node5 -->
<g id="edge5" class="edge">
<title>node4:s&#45;&gt;node5</title>
<path fill="none" stroke="red" d="M784.2,-324.8C784.2,-300.81 744.15,-284.94 694.73,-274.48"/>
<polygon fill="red" stroke="red" points="695.69,-271.1 685.19,-272.56 694.31,-277.97 695.69,-271.1"/>
<text xml:space="preserve" text-anchor="middle" x="782.35" y="-293.5" font-family="Times New Roman,serif" font-size="14.00">yes</text>
</g>
<!-- node7 -->
<g id="node6" class="node">
<title>node7</title>
<polygon fill="#c1b2ff" stroke="#c1b2ff" points="1058.2,-198.4 738.76,-180.4 1058.2,-162.4 1377.64,-180.4 1058.2,-198.4"/>
<text xml:space="preserve" text-anchor="middle" x="1058.2" y="-175.35" font-family="Times New Roman,serif" font-size="14.00"> if &#160;&#160;&#160;drv_bottom_out&#39;eventand &#160;&#160;drv_bottom_out= &#39;1&#39; then</text>
</g>
<!-- node4&#45;&gt;node7 -->
<g id="edge6" class="edge">
<title>node4:s&#45;&gt;node7:n</title>
<path fill="none" stroke="black" d="M784.2,-324.8C784.2,-296.74 1009.06,-289.54 1031.2,-272.3 1052.65,-255.59 1040.31,-237.87 1058.2,-217.4"/>
<text xml:space="preserve" text-anchor="middle" x="1055.05" y="-248.8" font-family="Times New Roman,serif" font-size="14.00">no</text>
</g>
<!-- node5&#45;&gt;node7 -->
<g id="edge7" class="edge">
<title>node5&#45;&gt;node7:n</title>
<path fill="none" stroke="green" d="M927.95,-235.4C998.93,-230.41 1052.09,-224.39 1058.2,-217.4"/>
<path fill="none" stroke="green" d="M1058.2,-216.4C1060.31,-213.99 1060.73,-211.91 1060.47,-209.77"/>
<polygon fill="green" stroke="green" points="1063.96,-209.34 1058.51,-200.25 1057.1,-210.76 1063.96,-209.34"/>
</g>
<!-- node8 -->
<g id="node7" class="node">
<title>node8</title>
<polygon fill="lightcyan" stroke="none" points="296.7,-80.2 296.7,-102.7 1283.7,-102.7 1283.7,-80.2 296.7,-80.2"/>
<polygon fill="none" stroke="black" points="296.7,-80.2 296.7,-102.7 1283.7,-102.7 1283.7,-80.2 296.7,-80.2"/>
<text xml:space="preserve" text-anchor="start" x="299.7" y="-86.4" font-family="Times New Roman,serif" font-size="14.00"> assert &#160;&#160;&#160;drv_top_out&#39;stable( &#160;&#160;clock_period_c) report &#160;&#160;&#160;&quot;V case: &quot;&amp; &#160;&#160;to_string( now )&amp; &#160;&#160;&quot;, nebyla splnena Deadtime podminka pro horni vykonovy tranzistor! &#160;:&#45;(&quot; report &#160;&#160;&#160;error </text>
</g>
<!-- node7&#45;&gt;node8 -->
<g id="edge8" class="edge">
<title>node7:s&#45;&gt;node8</title>
<path fill="none" stroke="red" d="M1058.2,-162.4C1058.2,-138.49 1017.75,-122.6 968.29,-112.11"/>
<polygon fill="red" stroke="red" points="969.24,-108.73 958.75,-110.18 967.86,-115.59 969.24,-108.73"/>
<text xml:space="preserve" text-anchor="middle" x="1056.55" y="-131.1" font-family="Times New Roman,serif" font-size="14.00">yes</text>
</g>
<!-- node11 -->
<g id="node8" class="node">
<title>node11</title>
<path fill="none" stroke="black" d="M1360.7,-36C1360.7,-36 1293.7,-36 1293.7,-36 1287.7,-36 1281.7,-30 1281.7,-24 1281.7,-24 1281.7,-12 1281.7,-12 1281.7,-6 1287.7,0 1293.7,0 1293.7,0 1360.7,0 1360.7,0 1366.7,0 1372.7,-6 1372.7,-12 1372.7,-12 1372.7,-24 1372.7,-24 1372.7,-30 1366.7,-36 1360.7,-36"/>
<polygon fill="white" stroke="none" points="1289.7,-9.75 1289.7,-26.25 1364.7,-26.25 1364.7,-9.75 1289.7,-9.75"/>
<text xml:space="preserve" text-anchor="start" x="1289.7" y="-12.95" font-family="Times New Roman,serif" font-size="14.00"> end process &#160;</text>
</g>
<!-- node7&#45;&gt;node11 -->
<g id="edge9" class="edge">
<title>node7:s&#45;&gt;node11</title>
<path fill="none" stroke="black" d="M1058.2,-162.4C1058.2,-134.89 1278.53,-126.85 1300.2,-109.9 1321.62,-93.15 1309.33,-75.5 1327.2,-55"/>
<text xml:space="preserve" text-anchor="middle" x="1324.06" y="-86.4" font-family="Times New Roman,serif" font-size="14.00">no</text>
</g>
<!-- node8&#45;&gt;node11 -->
<g id="edge10" class="edge">
<title>node8&#45;&gt;node11</title>
<path fill="none" stroke="green" d="M1327.2,-54C1328.82,-52.14 1329.93,-49.99 1330.64,-47.68"/>
<polygon fill="green" stroke="green" points="1334.12,-48.09 1331.47,-37.83 1327.15,-47.51 1334.12,-48.09"/>
<path fill="none" stroke="green" d="M1275.07,-73.05C1301.97,-68.32 1320.75,-62.39 1327.2,-55"/>
</g>
</g>
</svg>
