<?xml version="1.0" encoding="UTF-8" standalone="no"?>
<?xml-stylesheet href="doxygen.css" type="text/css"?>
<!DOCTYPE svg PUBLIC "-//W3C//DTD SVG 1.1//EN"
 "http://www.w3.org/Graphics/SVG/1.1/DTD/svg11.dtd">
<!-- Generated by graphviz version 14.1.1 (20251213.1925)
 -->
<!-- Title: G Pages: 1 -->
<svg width="335pt" height="368pt"
 viewBox="0.00 0.00 335.00 368.00" xmlns="http://www.w3.org/2000/svg" xmlns:xlink="http://www.w3.org/1999/xlink">
<g id="graph0" class="graph" transform="scale(1 1) rotate(0) translate(4 363.9)">
<title>G</title>
<polygon fill="white" stroke="none" points="-4,4 -4,-363.9 330.78,-363.9 330.78,4 -4,4"/>
<!-- node6 -->
<g id="node1" class="node">
<title>node6</title>
<path fill="none" stroke="black" d="M240.2,-359.9C240.2,-359.9 92.95,-359.9 92.95,-359.9 86.95,-359.9 80.95,-353.9 80.95,-347.9 80.95,-347.9 80.95,-335.9 80.95,-335.9 80.95,-329.9 86.95,-323.9 92.95,-323.9 92.95,-323.9 240.2,-323.9 240.2,-323.9 246.2,-323.9 252.2,-329.9 252.2,-335.9 252.2,-335.9 252.2,-347.9 252.2,-347.9 252.2,-353.9 246.2,-359.9 240.2,-359.9"/>
<polygon fill="white" stroke="none" points="88.95,-333.65 88.95,-350.15 244.2,-350.15 244.2,-333.65 88.95,-333.65"/>
<text xml:space="preserve" text-anchor="start" x="88.95" y="-336.85" font-family="Times New Roman,serif" font-size="14.00"> pipeline_proc:process( clk) </text>
</g>
<!-- node1 -->
<g id="node2" class="node">
<title>node1</title>
<polygon fill="#c1b2ff" stroke="#c1b2ff" points="166.57,-286.9 6.37,-268.9 166.57,-250.9 326.78,-268.9 166.57,-286.9"/>
<text xml:space="preserve" text-anchor="middle" x="166.57" y="-263.85" font-family="Times New Roman,serif" font-size="14.00"> if &#160;&#160;&#160;rising_edge( clk ) then</text>
</g>
<!-- node6&#45;&gt;node1 -->
<g id="edge1" class="edge">
<title>node6&#45;&gt;node1:n</title>
<path fill="none" stroke="green" d="M166.57,-323.88C166.57,-316.4 166.57,-307.28 166.57,-298.21"/>
<polygon fill="green" stroke="green" points="170.07,-298.41 166.57,-288.41 163.07,-298.41 170.07,-298.41"/>
</g>
<!-- node2 -->
<g id="node3" class="node">
<title>node2</title>
<polygon fill="#c1b2ff" stroke="#c1b2ff" points="101.57,-198.4 0,-180.4 101.57,-162.4 203.15,-180.4 101.57,-198.4"/>
<text xml:space="preserve" text-anchor="middle" x="101.57" y="-175.35" font-family="Times New Roman,serif" font-size="14.00"> if &#160;&#160;&#160;ce= &#39;1&#39; then</text>
</g>
<!-- node1&#45;&gt;node2 -->
<g id="edge2" class="edge">
<title>node1:s&#45;&gt;node2:n</title>
<path fill="none" stroke="red" d="M166.57,-250.9C166.57,-218.26 116.36,-231.13 104.2,-209.51"/>
<polygon fill="red" stroke="red" points="107.63,-208.8 101.92,-199.87 100.82,-210.41 107.63,-208.8"/>
<text xml:space="preserve" text-anchor="middle" x="166.14" y="-219.6" font-family="Times New Roman,serif" font-size="14.00">yes</text>
</g>
<!-- node7 -->
<g id="node5" class="node">
<title>node7</title>
<path fill="none" stroke="black" d="M223.07,-36C223.07,-36 156.07,-36 156.07,-36 150.07,-36 144.07,-30 144.07,-24 144.07,-24 144.07,-12 144.07,-12 144.07,-6 150.07,0 156.07,0 156.07,0 223.07,0 223.07,0 229.07,0 235.07,-6 235.07,-12 235.07,-12 235.07,-24 235.07,-24 235.07,-30 229.07,-36 223.07,-36"/>
<polygon fill="white" stroke="none" points="152.07,-9.75 152.07,-26.25 227.07,-26.25 227.07,-9.75 152.07,-9.75"/>
<text xml:space="preserve" text-anchor="start" x="152.07" y="-12.95" font-family="Times New Roman,serif" font-size="14.00"> end process &#160;</text>
</g>
<!-- node1&#45;&gt;node7 -->
<g id="edge3" class="edge">
<title>node1:s&#45;&gt;node7</title>
<path fill="none" stroke="black" d="M166.57,-250.9C166.57,-243.14 209.84,-205.66 212.57,-198.4 222.02,-173.29 211.07,-94.99 202.57,-73 199.02,-63.79 187.83,-64.71 189.57,-55"/>
<text xml:space="preserve" text-anchor="middle" x="221.94" y="-131.1" font-family="Times New Roman,serif" font-size="14.00">no</text>
</g>
<!-- node3 -->
<g id="node4" class="node">
<title>node3</title>
<polygon fill="lightcyan" stroke="none" points="77.95,-80.2 77.95,-102.7 143.2,-102.7 143.2,-80.2 77.95,-80.2"/>
<polygon fill="none" stroke="black" points="77.95,-80.2 77.95,-102.7 143.2,-102.7 143.2,-80.2 77.95,-80.2"/>
<text xml:space="preserve" text-anchor="start" x="80.95" y="-86.4" font-family="Times New Roman,serif" font-size="14.00"> q_i&lt;= &#160;&#160;d </text>
</g>
<!-- node2&#45;&gt;node3 -->
<g id="edge4" class="edge">
<title>node2:s&#45;&gt;node3</title>
<path fill="none" stroke="red" d="M101.57,-162.4C101.57,-148.67 103.3,-133.54 105.24,-120.88"/>
<polygon fill="red" stroke="red" points="108.68,-121.55 106.87,-111.11 101.77,-120.4 108.68,-121.55"/>
<text xml:space="preserve" text-anchor="middle" x="112.99" y="-131.1" font-family="Times New Roman,serif" font-size="14.00">yes</text>
</g>
<!-- node2&#45;&gt;node7 -->
<g id="edge5" class="edge">
<title>node2:s&#45;&gt;node7</title>
<path fill="none" stroke="black" d="M101.57,-162.4C101.57,-149.07 115.53,-153.17 125.57,-144.4 162.37,-112.25 181.74,-103.23 189.57,-55"/>
<text xml:space="preserve" text-anchor="middle" x="192.24" y="-86.4" font-family="Times New Roman,serif" font-size="14.00">no</text>
</g>
<!-- node3&#45;&gt;node7 -->
<g id="edge6" class="edge">
<title>node3&#45;&gt;node7</title>
<path fill="none" stroke="green" d="M150.28,-79.39C169.2,-72.94 188.07,-64.27 189.57,-55"/>
<path fill="none" stroke="green" d="M189.57,-54C189.91,-51.93 190.16,-49.78 190.33,-47.62"/>
<polygon fill="green" stroke="green" points="193.83,-47.79 190.63,-37.69 186.83,-47.58 193.83,-47.79"/>
</g>
</g>
</svg>
