<?xml version="1.0" encoding="UTF-8" standalone="no"?>
<?xml-stylesheet href="doxygen.css" type="text/css"?>
<!DOCTYPE svg PUBLIC "-//W3C//DTD SVG 1.1//EN"
 "http://www.w3.org/Graphics/SVG/1.1/DTD/svg11.dtd">
<!-- Generated by graphviz version 14.1.1 (20251213.1925)
 -->
<!-- Title: G Pages: 1 -->
<svg width="376pt" height="456pt"
 viewBox="0.00 0.00 376.00 456.00" xmlns="http://www.w3.org/2000/svg" xmlns:xlink="http://www.w3.org/1999/xlink">
<g id="graph0" class="graph" transform="scale(1 1) rotate(0) translate(4 452.4)">
<title>G</title>
<polygon fill="white" stroke="none" points="-4,4 -4,-452.4 371.78,-452.4 371.78,4 -4,4"/>
<!-- node8 -->
<g id="node1" class="node">
<title>node8</title>
<path fill="none" stroke="black" d="M268.07,-448.4C268.07,-448.4 147.07,-448.4 147.07,-448.4 141.07,-448.4 135.07,-442.4 135.07,-436.4 135.07,-436.4 135.07,-424.4 135.07,-424.4 135.07,-418.4 141.07,-412.4 147.07,-412.4 147.07,-412.4 268.07,-412.4 268.07,-412.4 274.07,-412.4 280.07,-418.4 280.07,-424.4 280.07,-424.4 280.07,-436.4 280.07,-436.4 280.07,-442.4 274.07,-448.4 268.07,-448.4"/>
<polygon fill="white" stroke="none" points="143.07,-422.15 143.07,-438.65 272.07,-438.65 272.07,-422.15 143.07,-422.15"/>
<text xml:space="preserve" text-anchor="start" x="143.07" y="-425.35" font-family="Times New Roman,serif" font-size="14.00"> reg_proc:process( clk) </text>
</g>
<!-- node1 -->
<g id="node2" class="node">
<title>node1</title>
<polygon fill="#c1b2ff" stroke="#c1b2ff" points="207.57,-375.4 47.37,-357.4 207.57,-339.4 367.78,-357.4 207.57,-375.4"/>
<text xml:space="preserve" text-anchor="middle" x="207.57" y="-352.35" font-family="Times New Roman,serif" font-size="14.00"> if &#160;&#160;&#160;rising_edge( clk ) then</text>
</g>
<!-- node8&#45;&gt;node1 -->
<g id="edge1" class="edge">
<title>node8&#45;&gt;node1:n</title>
<path fill="none" stroke="green" d="M207.57,-412.38C207.57,-404.9 207.57,-395.78 207.57,-386.71"/>
<polygon fill="green" stroke="green" points="211.07,-386.91 207.57,-376.91 204.07,-386.91 211.07,-386.91"/>
</g>
<!-- node2 -->
<g id="node3" class="node">
<title>node2</title>
<polygon fill="#c1b2ff" stroke="#c1b2ff" points="137.57,-286.9 25.14,-268.9 137.57,-250.9 250.01,-268.9 137.57,-286.9"/>
<text xml:space="preserve" text-anchor="middle" x="137.57" y="-263.85" font-family="Times New Roman,serif" font-size="14.00"> if &#160;&#160;&#160;load= &#39;1&#39; then</text>
</g>
<!-- node1&#45;&gt;node2 -->
<g id="edge2" class="edge">
<title>node1:s&#45;&gt;node2:n</title>
<path fill="none" stroke="red" d="M207.57,-339.4C207.57,-304.92 152.54,-320.89 140.07,-297.83"/>
<polygon fill="red" stroke="red" points="143.54,-297.35 137.91,-288.38 136.72,-298.9 143.54,-297.35"/>
<text xml:space="preserve" text-anchor="middle" x="206.41" y="-308.1" font-family="Times New Roman,serif" font-size="14.00">yes</text>
</g>
<!-- node9 -->
<g id="node6" class="node">
<title>node9</title>
<path fill="none" stroke="black" d="M244.07,-36C244.07,-36 177.07,-36 177.07,-36 171.07,-36 165.07,-30 165.07,-24 165.07,-24 165.07,-12 165.07,-12 165.07,-6 171.07,0 177.07,0 177.07,0 244.07,0 244.07,0 250.07,0 256.07,-6 256.07,-12 256.07,-12 256.07,-24 256.07,-24 256.07,-30 250.07,-36 244.07,-36"/>
<polygon fill="white" stroke="none" points="173.07,-9.75 173.07,-26.25 248.07,-26.25 248.07,-9.75 173.07,-9.75"/>
<text xml:space="preserve" text-anchor="start" x="173.07" y="-12.95" font-family="Times New Roman,serif" font-size="14.00"> end process &#160;</text>
</g>
<!-- node1&#45;&gt;node9 -->
<g id="edge3" class="edge">
<title>node1:s&#45;&gt;node9</title>
<path fill="none" stroke="black" d="M207.57,-339.4C207.57,-323.13 252.46,-301.97 258.57,-286.9 271.25,-255.66 311.92,-248.94 257.57,-92.45"/>
<text xml:space="preserve" text-anchor="middle" x="290.9" y="-175.35" font-family="Times New Roman,serif" font-size="14.00">no</text>
</g>
<!-- node3 -->
<g id="node4" class="node">
<title>node3</title>
<polygon fill="#c1b2ff" stroke="#c1b2ff" points="101.57,-198.4 0,-180.4 101.57,-162.4 203.15,-180.4 101.57,-198.4"/>
<text xml:space="preserve" text-anchor="middle" x="101.57" y="-175.35" font-family="Times New Roman,serif" font-size="14.00"> if &#160;&#160;&#160;ce= &#39;1&#39; then</text>
</g>
<!-- node2&#45;&gt;node3 -->
<g id="edge4" class="edge">
<title>node2:s&#45;&gt;node3:n</title>
<path fill="none" stroke="red" d="M137.57,-250.9C137.57,-227.03 111.95,-226.21 103.94,-209.54"/>
<polygon fill="red" stroke="red" points="107.39,-208.94 101.89,-199.88 100.54,-210.39 107.39,-208.94"/>
<text xml:space="preserve" text-anchor="middle" x="138.8" y="-219.6" font-family="Times New Roman,serif" font-size="14.00">yes</text>
</g>
<!-- node2&#45;&gt;node9 -->
<g id="edge5" class="edge">
<title>node2:s&#45;&gt;node9</title>
<path fill="none" stroke="black" d="M257.57,-90.45C249.19,-65.67 205.72,-80.71 210.57,-55"/>
<path fill="none" stroke="black" d="M137.57,-250.9C137.57,-230.56 200.73,-214.94 212.57,-198.4 231.57,-171.87 219.06,-157.37 233.07,-127.9 241.3,-110.6 263.71,-110.59 257.57,-92.45"/>
<text xml:space="preserve" text-anchor="middle" x="239.82" y="-131.1" font-family="Times New Roman,serif" font-size="14.00">no</text>
</g>
<!-- node4 -->
<g id="node5" class="node">
<title>node4</title>
<polygon fill="lightcyan" stroke="none" points="91.95,-80.2 91.95,-102.7 157.2,-102.7 157.2,-80.2 91.95,-80.2"/>
<polygon fill="none" stroke="black" points="91.95,-80.2 91.95,-102.7 157.2,-102.7 157.2,-80.2 91.95,-80.2"/>
<text xml:space="preserve" text-anchor="start" x="94.95" y="-86.4" font-family="Times New Roman,serif" font-size="14.00"> q_i&lt;= &#160;&#160;d </text>
</g>
<!-- node3&#45;&gt;node4 -->
<g id="edge6" class="edge">
<title>node3:s&#45;&gt;node4</title>
<path fill="none" stroke="red" d="M101.57,-162.4C101.57,-147.96 106.05,-132.65 111.05,-120.05"/>
<polygon fill="red" stroke="red" points="114.14,-121.72 114.89,-111.15 107.71,-118.95 114.14,-121.72"/>
<text xml:space="preserve" text-anchor="middle" x="116.74" y="-131.1" font-family="Times New Roman,serif" font-size="14.00">yes</text>
</g>
<!-- node3&#45;&gt;node9 -->
<g id="edge7" class="edge">
<title>node3:s&#45;&gt;node9</title>
<path fill="none" stroke="black" d="M101.57,-162.4C101.57,-147.61 117.52,-152.97 129.57,-144.4 173.27,-113.33 201.55,-107.85 210.57,-55"/>
<text xml:space="preserve" text-anchor="middle" x="212.9" y="-86.4" font-family="Times New Roman,serif" font-size="14.00">no</text>
</g>
<!-- node4&#45;&gt;node9 -->
<g id="edge8" class="edge">
<title>node4&#45;&gt;node9</title>
<path fill="none" stroke="green" d="M164.3,-80.95C185.97,-74.6 208.78,-65.51 210.57,-55"/>
<path fill="none" stroke="green" d="M210.57,-54C210.93,-51.93 211.18,-49.79 211.37,-47.62"/>
<polygon fill="green" stroke="green" points="214.86,-47.8 211.68,-37.7 207.87,-47.59 214.86,-47.8"/>
</g>
</g>
</svg>
