<?xml version="1.0" encoding="UTF-8" standalone="no"?>
<?xml-stylesheet href="doxygen.css" type="text/css"?>
<!DOCTYPE svg PUBLIC "-//W3C//DTD SVG 1.1//EN"
 "http://www.w3.org/Graphics/SVG/1.1/DTD/svg11.dtd">
<!-- Generated by graphviz version 14.1.1 (20251213.1925)
 -->
<!-- Title: G Pages: 1 -->
<svg width="1592pt" height="1027pt"
 viewBox="0.00 0.00 1592.00 1027.00" xmlns="http://www.w3.org/2000/svg" xmlns:xlink="http://www.w3.org/1999/xlink">
<g id="graph0" class="graph" transform="scale(1 1) rotate(0) translate(4 1023.2)">
<title>G</title>
<polygon fill="white" stroke="none" points="-4,4 -4,-1023.2 1587.6,-1023.2 1587.6,4 -4,4"/>
<!-- node45 -->
<g id="node1" class="node">
<title>node45</title>
<path fill="none" stroke="black" d="M1161.4,-1019.2C1161.4,-1019.2 1023.15,-1019.2 1023.15,-1019.2 1017.15,-1019.2 1011.15,-1013.2 1011.15,-1007.2 1011.15,-1007.2 1011.15,-995.2 1011.15,-995.2 1011.15,-989.2 1017.15,-983.2 1023.15,-983.2 1023.15,-983.2 1161.4,-983.2 1161.4,-983.2 1167.4,-983.2 1173.4,-989.2 1173.4,-995.2 1173.4,-995.2 1173.4,-1007.2 1173.4,-1007.2 1173.4,-1013.2 1167.4,-1019.2 1161.4,-1019.2"/>
<polygon fill="white" stroke="none" points="1019.15,-992.95 1019.15,-1009.45 1165.4,-1009.45 1165.4,-992.95 1019.15,-992.95"/>
<text xml:space="preserve" text-anchor="start" x="1019.15" y="-996.15" font-family="Times New Roman,serif" font-size="14.00"> testbench_proc:process( ) </text>
</g>
<!-- node1 -->
<g id="node2" class="node">
<title>node1</title>
<polygon fill="lightcyan" stroke="none" points="608.15,-520.5 608.15,-939 1576.4,-939 1576.4,-520.5 608.15,-520.5"/>
<polygon fill="none" stroke="black" points="608.15,-520.5 608.15,-939 1576.4,-939 1576.4,-520.5 608.15,-520.5"/>
<text xml:space="preserve" text-anchor="start" x="611.15" y="-922.7" font-family="Times New Roman,serif" font-size="14.00"> &#160;report &#160;&#160;&#160;&quot;Test start.&quot; severity &#160;&#160;&#160;note</text>
<text xml:space="preserve" text-anchor="start" x="611.15" y="-906.2" font-family="Times New Roman,serif" font-size="14.00"> wait &#160;on clk_in until &#160;&#160;&#160;clk_in= &#39;1&#39;</text>
<text xml:space="preserve" text-anchor="start" x="611.15" y="-889.7" font-family="Times New Roman,serif" font-size="14.00"> wait &#160;for &#160;&#160;12.5 ms</text>
<text xml:space="preserve" text-anchor="start" x="611.15" y="-873.2" font-family="Times New Roman,serif" font-size="14.00">pwm_val_in&lt;= &#160;&#160;std_logic_vector( to_unsigned( 1, &#160;&#160;pwm_val_in&#39;length) )</text>
<text xml:space="preserve" text-anchor="start" x="611.15" y="-856.7" font-family="Times New Roman,serif" font-size="14.00"> wait &#160;for &#160;&#160;0.5 ms</text>
<text xml:space="preserve" text-anchor="start" x="611.15" y="-840.2" font-family="Times New Roman,serif" font-size="14.00">assert &#160;&#160;&#160;dut_cmp_p0= &#39;0&#39;and &#160;&#160;dut_cmp_p0&#39;stable( &#160;7 ms) report &#160;&#160;&#160;&quot;Chybna hodnota cmp_p0_i signalu pri val = 0&quot; report &#160;&#160;&#160;error</text>
<text xml:space="preserve" text-anchor="start" x="611.15" y="-823.7" font-family="Times New Roman,serif" font-size="14.00"> wait &#160;for &#160;&#160;13.5 ms</text>
<text xml:space="preserve" text-anchor="start" x="611.15" y="-807.2" font-family="Times New Roman,serif" font-size="14.00">pwm_val_in&lt;= &#160;&#160;std_logic_vector( to_unsigned( 6, &#160;&#160;pwm_val_in&#39;length) )</text>
<text xml:space="preserve" text-anchor="start" x="611.15" y="-790.7" font-family="Times New Roman,serif" font-size="14.00"> wait &#160;for &#160;&#160;0.5 ms</text>
<text xml:space="preserve" text-anchor="start" x="611.15" y="-774.2" font-family="Times New Roman,serif" font-size="14.00">assert &#160;&#160;&#160;dut_cmp_p0= &#39;0&#39;and &#160;&#160;dut_cmp_p0&#39;last_event= &#160;5 ms report &#160;&#160;&#160;&quot;Chybna hodnota cmp_p0_i signalu pri val = 1&quot; report &#160;&#160;&#160;error</text>
<text xml:space="preserve" text-anchor="start" x="611.15" y="-757.7" font-family="Times New Roman,serif" font-size="14.00"> wait &#160;for &#160;&#160;13.5 ms</text>
<text xml:space="preserve" text-anchor="start" x="611.15" y="-741.2" font-family="Times New Roman,serif" font-size="14.00">pwm_val_in&lt;= &#160;&#160;std_logic_vector( to_unsigned( 7, &#160;&#160;pwm_val_in&#39;length) )</text>
<text xml:space="preserve" text-anchor="start" x="611.15" y="-724.7" font-family="Times New Roman,serif" font-size="14.00"> wait &#160;for &#160;&#160;0.5 ms</text>
<text xml:space="preserve" text-anchor="start" x="611.15" y="-708.2" font-family="Times New Roman,serif" font-size="14.00">assert &#160;&#160;&#160;dut_cmp_p0= &#39;1&#39;and &#160;&#160;dut_cmp_p0&#39;last_event= &#160;6 ms report &#160;&#160;&#160;&quot;Chybna hodnota cmp_p0_i signalu pri val = 6&quot; report &#160;&#160;&#160;error</text>
<text xml:space="preserve" text-anchor="start" x="611.15" y="-691.7" font-family="Times New Roman,serif" font-size="14.00"> wait &#160;for &#160;&#160;13.5 ms</text>
<text xml:space="preserve" text-anchor="start" x="611.15" y="-675.2" font-family="Times New Roman,serif" font-size="14.00">pwm_val_in&lt;= &#160;&#160;std_logic_vector( to_unsigned( 3, &#160;&#160;pwm_val_in&#39;length) )</text>
<text xml:space="preserve" text-anchor="start" x="611.15" y="-658.7" font-family="Times New Roman,serif" font-size="14.00"> wait &#160;for &#160;&#160;0.5 ms</text>
<text xml:space="preserve" text-anchor="start" x="611.15" y="-642.2" font-family="Times New Roman,serif" font-size="14.00">assert &#160;&#160;&#160;dut_cmp_p0= &#39;1&#39;and &#160;&#160;dut_cmp_p0&#39;stable( &#160;7 ms) report &#160;&#160;&#160;&quot;Chybna hodnota cmp_p0_i signalu pri val = 7&quot; report &#160;&#160;&#160;error</text>
<text xml:space="preserve" text-anchor="start" x="611.15" y="-625.7" font-family="Times New Roman,serif" font-size="14.00"> report &#160;&#160;&#160;&quot;Testujeme CE = 0&quot;</text>
<text xml:space="preserve" text-anchor="start" x="611.15" y="-609.2" font-family="Times New Roman,serif" font-size="14.00">ce_in&lt;= &#39;0&#39; after &#160;&#160;50 ns</text>
<text xml:space="preserve" text-anchor="start" x="611.15" y="-592.7" font-family="Times New Roman,serif" font-size="14.00"> wait &#160;for &#160;&#160;7 ms</text>
<text xml:space="preserve" text-anchor="start" x="611.15" y="-576.2" font-family="Times New Roman,serif" font-size="14.00">assert &#160;&#160;&#160;dut_cmp_p0= &#39;1&#39;and &#160;&#160;dut_cmp_p0&#39;stable( &#160;7 ms) report &#160;&#160;&#160;&quot;Chybna hodnota cmp_p0_i signalu pri val = 3 a ce = 0&quot; report &#160;&#160;&#160;error</text>
<text xml:space="preserve" text-anchor="start" x="611.15" y="-559.7" font-family="Times New Roman,serif" font-size="14.00">ce_in&lt;= &#39;1&#39; after &#160;&#160;50 ns</text>
<text xml:space="preserve" text-anchor="start" x="611.15" y="-543.2" font-family="Times New Roman,serif" font-size="14.00"> wait &#160;for &#160;&#160;7 ms</text>
<text xml:space="preserve" text-anchor="start" x="611.15" y="-526.7" font-family="Times New Roman,serif" font-size="14.00"> report &#160;&#160;&#160;&quot;Test of CE and LOAD done...&quot; &#160;&#160;&#160;&#160;&#160;&#160;&#160;&#160;&#160;&#160;&#160;&#160;&#160;&#160;&#160;&#160;&#160;&#160;&#160;&#160;&#160;&#160;&#160;&#160;&#160;&#160;&#160;&#160;&#160;&#160;&#160;&#160;&#160;&#160;&#160;&#160;&#160;&#160;&#160;&#160;&#160;&#160;&#160;&#160;&#160;&#160;&#160;&#160;&#160;&#160;&#160;&#160;&#160;&#160;&#160;&#160;&#160;&#160;&#160;&#160;&#160;&#160;&#160;&#160;&#160;&#160;&#160;&#160;&#160;&#160;&#160;&#160;&#160;&#160;&#160;&#160;&#160;&#160;&#160;&#160;&#160;&#160;&#160;&#160;&#160;&#160;&#160;&#160;&#160;&#160;&#160;&#160;&#160;&#160;&#160;&#160;&#160;&#160;&#160;&#160;&#160;&#160;&#160;&#160;&#160;&#160;&#160;&#160;&#160;&#160;&#160;&#160;&#160;&#160;&#160;&#160;&#160;&#160;&#160;&#160;&#160;&#160;&#160;&#160;&#160;&#160;&#160;&#160;&#160;&#160;&#160;&#160;&#160;&#160;&#160;&#160;&#160;&#160;&#160;&#160;&#160;&#160;&#160;&#160;&#160;&#160;&#160;&#160;&#160;&#160;&#160;&#160;&#160;&#160;&#160;&#160;&#160;&#160;&#160;&#160;&#160;&#160;&#160;&#160;&#160;&#160;&#160;&#160;&#160;&#160;&#160;&#160;&#160;&#160;&#160;&#160;&#160;&#160;&#160;&#160;&#160;&#160;&#160;&#160;&#160;&#160;&#160;&#160;&#160;&#160;&#160;&#160;&#160;. </text>
</g>
<!-- node45&#45;&gt;node1 -->
<g id="edge1" class="edge">
<title>node45&#45;&gt;node1</title>
<path fill="none" stroke="green" d="M1092.27,-982.93C1092.27,-976.03 1092.27,-967.32 1092.27,-957.32"/>
<polygon fill="green" stroke="green" points="1095.77,-957.51 1092.27,-947.51 1088.77,-957.51 1095.77,-957.51"/>
</g>
<!-- node26 -->
<g id="node3" class="node">
<title>node26</title>
<polygon fill="#c1b2ff" stroke="#c1b2ff" points="1092.27,-476.3 952.34,-458.3 1092.27,-440.3 1232.21,-458.3 1092.27,-476.3"/>
<text xml:space="preserve" text-anchor="middle" x="1092.27" y="-453.25" font-family="Times New Roman,serif" font-size="14.00"> &#160;for j in &#160;0 TO &#160;10 loop</text>
</g>
<!-- node1&#45;&gt;node26 -->
<g id="edge2" class="edge">
<title>node1&#45;&gt;node26:n</title>
<path fill="none" stroke="green" d="M1092.27,-513.56C1092.27,-504.89 1092.27,-496.28 1092.27,-487.79"/>
<polygon fill="green" stroke="green" points="1095.77,-487.81 1092.27,-477.81 1088.77,-487.81 1095.77,-487.81"/>
</g>
<!-- node27 -->
<g id="node4" class="node">
<title>node27</title>
<polygon fill="lightcyan" stroke="none" points="827.52,-349.85 827.52,-372.35 1027.02,-372.35 1027.02,-349.85 827.52,-349.85"/>
<polygon fill="none" stroke="black" points="827.52,-349.85 827.52,-372.35 1027.02,-372.35 1027.02,-349.85 827.52,-349.85"/>
<text xml:space="preserve" text-anchor="start" x="830.52" y="-356.05" font-family="Times New Roman,serif" font-size="14.00"> &#160;wait &#160;on clk_in until &#160;&#160;&#160;clk_in= &#39;1&#39; </text>
</g>
<!-- node26&#45;&gt;node27 -->
<g id="edge3" class="edge">
<title>node26:s&#45;&gt;node27</title>
<path fill="none" stroke="red" d="M1092.27,-440.3C1092.27,-437.06 1024.97,-406.06 976.33,-384.08"/>
<polygon fill="red" stroke="red" points="977.89,-380.95 967.34,-380.03 975.01,-387.33 977.89,-380.95"/>
<text xml:space="preserve" text-anchor="middle" x="1065.63" y="-409" font-family="Times New Roman,serif" font-size="14.00">yes</text>
</g>
<!-- node42 -->
<g id="node10" class="node">
<title>node42</title>
<polygon fill="lightcyan" stroke="none" points="1127.9,-341.6 1127.9,-380.6 1464.65,-380.6 1464.65,-341.6 1127.9,-341.6"/>
<polygon fill="none" stroke="black" points="1127.9,-341.6 1127.9,-380.6 1464.65,-380.6 1464.65,-341.6 1127.9,-341.6"/>
<text xml:space="preserve" text-anchor="start" x="1130.9" y="-364.3" font-family="Times New Roman,serif" font-size="14.00"> &#160;report &#160;&#160;&#160;&quot;All tests done.&quot; severity &#160;&#160;&#160;note</text>
<text xml:space="preserve" text-anchor="start" x="1130.9" y="-347.8" font-family="Times New Roman,serif" font-size="14.00"> wait &#160;&#160;&#160;&#160;&#160;&#160;&#160;&#160;&#160;&#160;&#160;&#160;&#160;&#160;&#160;&#160;&#160;&#160;&#160;&#160;&#160;&#160;&#160;&#160;&#160;&#160;&#160;&#160;&#160;&#160;&#160;&#160;&#160;&#160;&#160;&#160;&#160;&#160;&#160;&#160;&#160;&#160;&#160;&#160;&#160;&#160;&#160;&#160;&#160;&#160;&#160;&#160;&#160;&#160;&#160;&#160;&#160;&#160;&#160;&#160;&#160;&#160;&#160;&#160;&#160;&#160;&#160;&#160;&#160;&#160;&#160;&#160;&#160;&#160;&#160;&#160;&#160;&#160;. </text>
</g>
<!-- node26&#45;&gt;node42 -->
<g id="edge4" class="edge">
<title>node26:s&#45;&gt;node42</title>
<path fill="none" stroke="black" d="M1092.27,-440.3C1092.27,-427.92 1145.29,-407.84 1197.27,-391.13"/>
<polygon fill="black" stroke="black" points="1198.07,-394.55 1206.54,-388.18 1195.95,-387.88 1198.07,-394.55"/>
<text xml:space="preserve" text-anchor="middle" x="1159.3" y="-409" font-family="Times New Roman,serif" font-size="14.00">no</text>
</g>
<!-- node28 -->
<g id="node5" class="node">
<title>node28</title>
<polygon fill="#c1b2ff" stroke="#c1b2ff" points="454.27,-297.4 320.85,-279.4 454.27,-261.4 587.7,-279.4 454.27,-297.4"/>
<text xml:space="preserve" text-anchor="middle" x="454.27" y="-274.35" font-family="Times New Roman,serif" font-size="14.00"> &#160;for i in &#160;0 TO &#160;7 loop</text>
</g>
<!-- node27&#45;&gt;node28 -->
<g id="edge5" class="edge">
<title>node27&#45;&gt;node28:n</title>
<path fill="none" stroke="green" d="M820.53,-356.37C694.11,-350.63 496.02,-337.01 459.99,-307.19"/>
<polygon fill="green" stroke="green" points="463.11,-305.57 455.04,-298.71 457.06,-309.11 463.11,-305.57"/>
</g>
<!-- node29 -->
<g id="node6" class="node">
<title>node29</title>
<polygon fill="lightcyan" stroke="none" points="41.15,-104.95 41.15,-176.95 583.4,-176.95 583.4,-104.95 41.15,-104.95"/>
<polygon fill="none" stroke="black" points="41.15,-104.95 41.15,-176.95 583.4,-176.95 583.4,-104.95 41.15,-104.95"/>
<text xml:space="preserve" text-anchor="start" x="44.15" y="-160.65" font-family="Times New Roman,serif" font-size="14.00"> &#160;wait &#160;on clk_in until &#160;&#160;&#160;clk_in= &#39;0&#39;</text>
<text xml:space="preserve" text-anchor="start" x="44.15" y="-144.15" font-family="Times New Roman,serif" font-size="14.00">pwm_val_in&lt;= &#160;&#160;std_logic_vector( to_unsigned( &#160;&#160;i, 3) )</text>
<text xml:space="preserve" text-anchor="start" x="44.15" y="-127.65" font-family="Times New Roman,serif" font-size="14.00">assert &#160;&#160;&#160;drv_top_out/= &#39;U&#39; report &#160;&#160;&#160;&quot;Chyba &#45; vznikaji glitche! (0,1,2,3,4,5,6,7)&quot; report &#160;&#160;&#160;error</text>
<text xml:space="preserve" text-anchor="start" x="44.15" y="-111.15" font-family="Times New Roman,serif" font-size="14.00">assert &#160;&#160;&#160;drv_bottom_out/= &#39;U&#39; report &#160;&#160;&#160;&quot;Chyba &#45; vznikaji glitche! (0,1,2,3,4,5,6,7)&quot; report &#160;&#160;&#160;error </text>
</g>
<!-- node28&#45;&gt;node29 -->
<g id="edge6" class="edge">
<title>node28:s&#45;&gt;node29</title>
<path fill="none" stroke="red" d="M454.27,-261.4C454.27,-232.26 436.55,-208.8 413.62,-190.65"/>
<polygon fill="red" stroke="red" points="415.94,-188.01 405.82,-184.85 411.76,-193.63 415.94,-188.01"/>
<text xml:space="preserve" text-anchor="middle" x="460.69" y="-230.1" font-family="Times New Roman,serif" font-size="14.00">yes</text>
</g>
<!-- node34 -->
<g id="node8" class="node">
<title>node34</title>
<polygon fill="lightcyan" stroke="none" points="615.77,-80.2 615.77,-201.7 1056.77,-201.7 1056.77,-80.2 615.77,-80.2"/>
<polygon fill="none" stroke="black" points="615.77,-80.2 615.77,-201.7 1056.77,-201.7 1056.77,-80.2 615.77,-80.2"/>
<text xml:space="preserve" text-anchor="start" x="618.77" y="-185.4" font-family="Times New Roman,serif" font-size="14.00"> &#160;wait &#160;on clk_in until &#160;&#160;&#160;clk_in= &#39;0&#39;</text>
<text xml:space="preserve" text-anchor="start" x="618.77" y="-168.9" font-family="Times New Roman,serif" font-size="14.00">pwm_val_in&lt;= O&quot;0&quot;</text>
<text xml:space="preserve" text-anchor="start" x="618.77" y="-152.4" font-family="Times New Roman,serif" font-size="14.00">assert &#160;&#160;&#160;drv_top_out/= &#39;U&#39; report &#160;&#160;&#160;&quot;Chyba! vznikaji glitche&quot; report &#160;&#160;&#160;error</text>
<text xml:space="preserve" text-anchor="start" x="618.77" y="-135.9" font-family="Times New Roman,serif" font-size="14.00">assert &#160;&#160;&#160;drv_bottom_out/= &#39;U&#39; report &#160;&#160;&#160;&quot;Chyba! vznikaji glitche&quot; report &#160;&#160;&#160;error</text>
<text xml:space="preserve" text-anchor="start" x="618.77" y="-119.4" font-family="Times New Roman,serif" font-size="14.00">pwm_val_in&lt;= O&quot;7&quot;</text>
<text xml:space="preserve" text-anchor="start" x="618.77" y="-102.9" font-family="Times New Roman,serif" font-size="14.00">assert &#160;&#160;&#160;drv_top_out/= &#39;U&#39; report &#160;&#160;&#160;&quot;Chyba! vznikaji glitche&quot; report &#160;&#160;&#160;error</text>
<text xml:space="preserve" text-anchor="start" x="618.77" y="-86.4" font-family="Times New Roman,serif" font-size="14.00">assert &#160;&#160;&#160;drv_bottom_out/= &#39;U&#39; report &#160;&#160;&#160;&quot;Chyba! vznikaji glitche&quot; report &#160;&#160;&#160;error </text>
</g>
<!-- node28&#45;&gt;node34 -->
<g id="edge7" class="edge">
<title>node28:s&#45;&gt;node34</title>
<path fill="none" stroke="black" d="M454.27,-261.4C454.27,-256.77 520.52,-235.28 597.84,-211.78"/>
<polygon fill="black" stroke="black" points="598.82,-215.14 607.37,-208.89 596.79,-208.44 598.82,-215.14"/>
<text xml:space="preserve" text-anchor="middle" x="553.34" y="-230.1" font-family="Times New Roman,serif" font-size="14.00">no</text>
</g>
<!-- node33 -->
<g id="node7" class="node">
<title>node33</title>
<ellipse fill="none" stroke="black" cx="89.27" cy="-18" rx="43.16" ry="18"/>
<text xml:space="preserve" text-anchor="middle" x="89.27" y="-12.95" font-family="Times New Roman,serif" font-size="14.00">end loop</text>
</g>
<!-- node29&#45;&gt;node33 -->
<g id="edge8" class="edge">
<title>node29&#45;&gt;node33</title>
<path fill="none" stroke="green" d="M234.59,-97.82C197.15,-77.51 154.09,-54.15 124.62,-38.17"/>
<polygon fill="green" stroke="green" points="126.58,-35.25 116.12,-33.56 123.24,-41.41 126.58,-35.25"/>
</g>
<!-- node33&#45;&gt;node28 -->
<g id="edge9" class="edge">
<title>node33&#45;&gt;node28:n</title>
<path fill="none" stroke="green" d="M63.81,-32.91C49.62,-42.2 33.24,-55.86 25.27,-73 -0.18,-127.78 -15.4,-164.25 25.27,-208.9 35.84,-220.5 577.13,-249.8 587.7,-261.4 598.58,-273.35 599.08,-286.3 587.7,-297.77 583.41,-302.09 496.37,-304.98 465.23,-301.79"/>
<polygon fill="green" stroke="green" points="466.3,-298.46 455.73,-299.17 464.44,-305.2 466.3,-298.46"/>
</g>
<!-- node41 -->
<g id="node9" class="node">
<title>node41</title>
<ellipse fill="none" stroke="black" cx="1022.27" cy="-18" rx="43.16" ry="18"/>
<text xml:space="preserve" text-anchor="middle" x="1022.27" y="-12.95" font-family="Times New Roman,serif" font-size="14.00">end loop</text>
</g>
<!-- node34&#45;&gt;node41 -->
<g id="edge10" class="edge">
<title>node34&#45;&gt;node41</title>
<path fill="none" stroke="green" d="M939.07,-73.11C957.63,-61.03 975.68,-49.3 990.18,-39.87"/>
<polygon fill="green" stroke="green" points="991.88,-42.94 998.36,-34.55 988.07,-37.07 991.88,-42.94"/>
</g>
<!-- node41&#45;&gt;node26 -->
<g id="edge11" class="edge">
<title>node41&#45;&gt;node26:n</title>
<path fill="none" stroke="green" d="M1040.66,-34.32C1051.57,-44.31 1064.87,-58.2 1073.27,-73 1088.55,-99.89 1092.27,-109.02 1092.27,-139.95 1092.27,-362.1 1092.27,-362.1 1092.27,-362.1 1092.27,-390.44 1091.47,-404.2 1113.27,-422.3 1154.41,-456.44 1197.35,-399.77 1232.21,-440.3 1242.73,-452.53 1243.58,-465.16 1232.21,-476.61 1227.69,-481.15 1135.56,-484.16 1103.31,-480.73"/>
<polygon fill="green" stroke="green" points="1104.31,-477.38 1093.73,-478.02 1102.4,-484.11 1104.31,-477.38"/>
</g>
<!-- node46 -->
<g id="node11" class="node">
<title>node46</title>
<path fill="none" stroke="black" d="M1329.77,-297.4C1329.77,-297.4 1262.77,-297.4 1262.77,-297.4 1256.77,-297.4 1250.77,-291.4 1250.77,-285.4 1250.77,-285.4 1250.77,-273.4 1250.77,-273.4 1250.77,-267.4 1256.77,-261.4 1262.77,-261.4 1262.77,-261.4 1329.77,-261.4 1329.77,-261.4 1335.77,-261.4 1341.77,-267.4 1341.77,-273.4 1341.77,-273.4 1341.77,-285.4 1341.77,-285.4 1341.77,-291.4 1335.77,-297.4 1329.77,-297.4"/>
<polygon fill="white" stroke="none" points="1258.77,-271.15 1258.77,-287.65 1333.77,-287.65 1333.77,-271.15 1258.77,-271.15"/>
<text xml:space="preserve" text-anchor="start" x="1258.77" y="-274.35" font-family="Times New Roman,serif" font-size="14.00"> end process &#160;</text>
</g>
<!-- node42&#45;&gt;node46 -->
<g id="edge12" class="edge">
<title>node42&#45;&gt;node46</title>
<path fill="none" stroke="green" d="M1296.27,-334.44C1296.27,-326.37 1296.27,-317.41 1296.27,-309.14"/>
<polygon fill="green" stroke="green" points="1299.77,-309.21 1296.27,-299.21 1292.77,-309.21 1299.77,-309.21"/>
</g>
</g>
</svg>
