<?xml version="1.0" encoding="UTF-8" standalone="no"?>
<?xml-stylesheet href="doxygen.css" type="text/css"?>
<!DOCTYPE svg PUBLIC "-//W3C//DTD SVG 1.1//EN"
 "http://www.w3.org/Graphics/SVG/1.1/DTD/svg11.dtd">
<!-- Generated by graphviz version 14.1.1 (20251213.1925)
 -->
<!-- Title: G Pages: 1 -->
<svg width="612pt" height="477pt"
 viewBox="0.00 0.00 612.00 477.00" xmlns="http://www.w3.org/2000/svg" xmlns:xlink="http://www.w3.org/1999/xlink">
<g id="graph0" class="graph" transform="scale(1 1) rotate(0) translate(4 472.8)">
<title>G</title>
<polygon fill="white" stroke="none" points="-4,4 -4,-472.8 608,-472.8 608,4 -4,4"/>
<!-- node8 -->
<g id="node1" class="node">
<title>node8</title>
<path fill="none" stroke="black" d="M266.82,-468.8C266.82,-468.8 121.82,-468.8 121.82,-468.8 115.82,-468.8 109.82,-462.8 109.82,-456.8 109.82,-456.8 109.82,-444.8 109.82,-444.8 109.82,-438.8 115.82,-432.8 121.82,-432.8 121.82,-432.8 266.82,-432.8 266.82,-432.8 272.82,-432.8 278.82,-438.8 278.82,-444.8 278.82,-444.8 278.82,-456.8 278.82,-456.8 278.82,-462.8 272.82,-468.8 266.82,-468.8"/>
<polygon fill="white" stroke="none" points="117.82,-442.55 117.82,-459.05 270.82,-459.05 270.82,-442.55 117.82,-442.55"/>
<text xml:space="preserve" text-anchor="start" x="117.82" y="-445.75" font-family="Times New Roman,serif" font-size="14.00"> lfsr_proc:process( clk,arst) </text>
</g>
<!-- node1 -->
<g id="node2" class="node">
<title>node1</title>
<polygon fill="#c1b2ff" stroke="#c1b2ff" points="194.32,-395.8 85.51,-377.8 194.32,-359.8 303.14,-377.8 194.32,-395.8"/>
<text xml:space="preserve" text-anchor="middle" x="194.32" y="-372.75" font-family="Times New Roman,serif" font-size="14.00"> if &#160;&#160;&#160;arst= &#39;1&#39; then</text>
</g>
<!-- node8&#45;&gt;node1 -->
<g id="edge1" class="edge">
<title>node8&#45;&gt;node1:n</title>
<path fill="none" stroke="green" d="M194.32,-432.78C194.32,-425.3 194.32,-416.18 194.32,-407.11"/>
<polygon fill="green" stroke="green" points="197.83,-407.31 194.33,-397.31 190.83,-407.31 197.83,-407.31"/>
</g>
<!-- node2 -->
<g id="node3" class="node">
<title>node2</title>
<polygon fill="lightcyan" stroke="none" points="7.2,-223.6 7.2,-246.1 135.45,-246.1 135.45,-223.6 7.2,-223.6"/>
<polygon fill="none" stroke="black" points="7.2,-223.6 7.2,-246.1 135.45,-246.1 135.45,-223.6 7.2,-223.6"/>
<text xml:space="preserve" text-anchor="start" x="10.2" y="-229.8" font-family="Times New Roman,serif" font-size="14.00"> q_i&lt;=( others =&gt; &#39;1&#39;) </text>
</g>
<!-- node1&#45;&gt;node2 -->
<g id="edge2" class="edge">
<title>node1:s&#45;&gt;node2</title>
<path fill="none" stroke="red" d="M194.32,-359.8C194.32,-346.43 135.95,-292.66 99.63,-260.49"/>
<polygon fill="red" stroke="red" points="102.31,-258.19 92.5,-254.21 97.68,-263.44 102.31,-258.19"/>
<text xml:space="preserve" text-anchor="middle" x="192.17" y="-328.5" font-family="Times New Roman,serif" font-size="14.00">yes</text>
</g>
<!-- node3 -->
<g id="node4" class="node">
<title>node3</title>
<polygon fill="#c1b2ff" stroke="#c1b2ff" points="429.32,-307.3 254.65,-289.3 429.32,-271.3 604,-289.3 429.32,-307.3"/>
<text xml:space="preserve" text-anchor="middle" x="429.32" y="-284.25" font-family="Times New Roman,serif" font-size="14.00"> elsif &#160;&#160;&#160;rising_edge( clk ) then</text>
</g>
<!-- node1&#45;&gt;node3 -->
<g id="edge3" class="edge">
<title>node1:s&#45;&gt;node3</title>
<path fill="none" stroke="black" d="M194.32,-359.8C194.32,-329.03 269.34,-310.85 334.6,-300.85"/>
<polygon fill="black" stroke="black" points="334.93,-304.34 344.31,-299.41 333.91,-297.41 334.93,-304.34"/>
<text xml:space="preserve" text-anchor="middle" x="235.19" y="-328.5" font-family="Times New Roman,serif" font-size="14.00">no</text>
</g>
<!-- node9 -->
<g id="node7" class="node">
<title>node9</title>
<path fill="none" stroke="black" d="M576.83,-36C576.83,-36 509.83,-36 509.83,-36 503.83,-36 497.83,-30 497.83,-24 497.83,-24 497.83,-12 497.83,-12 497.83,-6 503.83,0 509.83,0 509.83,0 576.83,0 576.83,0 582.83,0 588.83,-6 588.83,-12 588.83,-12 588.83,-24 588.83,-24 588.83,-30 582.83,-36 576.83,-36"/>
<polygon fill="white" stroke="none" points="505.83,-9.75 505.83,-26.25 580.83,-26.25 580.83,-9.75 505.83,-9.75"/>
<text xml:space="preserve" text-anchor="start" x="505.83" y="-12.95" font-family="Times New Roman,serif" font-size="14.00"> end process &#160;</text>
</g>
<!-- node2&#45;&gt;node9 -->
<g id="edge4" class="edge">
<title>node2&#45;&gt;node9</title>
<path fill="none" stroke="green" d="M63.46,-216.48C49.88,-183.55 26.9,-111.86 64.32,-73 101.27,-34.64 509.67,-96.28 543.33,-55"/>
<path fill="none" stroke="green" d="M543.33,-54C544.88,-52.08 545.95,-49.9 546.63,-47.57"/>
<polygon fill="green" stroke="green" points="550.11,-47.93 547.42,-37.69 543.14,-47.38 550.11,-47.93"/>
</g>
<!-- node4 -->
<g id="node5" class="node">
<title>node4</title>
<polygon fill="#c1b2ff" stroke="#c1b2ff" points="429.32,-198.4 327.75,-180.4 429.32,-162.4 530.9,-180.4 429.32,-198.4"/>
<text xml:space="preserve" text-anchor="middle" x="429.32" y="-175.35" font-family="Times New Roman,serif" font-size="14.00"> if &#160;&#160;&#160;ce= &#39;1&#39; then</text>
</g>
<!-- node3&#45;&gt;node4 -->
<g id="edge5" class="edge">
<title>node3&#45;&gt;node4:n</title>
<path fill="none" stroke="red" d="M429.32,-271.07C429.32,-255.66 429.32,-232.13 429.32,-209.87"/>
<polygon fill="red" stroke="red" points="432.83,-209.91 429.33,-199.91 425.83,-209.91 432.83,-209.91"/>
<text xml:space="preserve" text-anchor="middle" x="438.32" y="-229.8" font-family="Times New Roman,serif" font-size="14.00">yes</text>
</g>
<!-- node3&#45;&gt;node9 -->
<g id="edge6" class="edge">
<title>node3&#45;&gt;node9</title>
<path fill="none" stroke="black" d="M457.39,-273.97C483.63,-258.95 521.5,-232.76 540.33,-198.4 567.19,-149.37 560.63,-127.95 550.33,-73 548.74,-64.56 537.91,-61.66 543.33,-55"/>
<text xml:space="preserve" text-anchor="middle" x="566.05" y="-131.1" font-family="Times New Roman,serif" font-size="14.00">no</text>
</g>
<!-- node5 -->
<g id="node6" class="node">
<title>node5</title>
<polygon fill="lightcyan" stroke="none" points="80.32,-80.2 80.32,-102.7 500.32,-102.7 500.32,-80.2 80.32,-80.2"/>
<polygon fill="none" stroke="black" points="80.32,-80.2 80.32,-102.7 500.32,-102.7 500.32,-80.2 80.32,-80.2"/>
<text xml:space="preserve" text-anchor="start" x="83.32" y="-86.4" font-family="Times New Roman,serif" font-size="14.00"> q_i&lt;= &#160;&#160;q_i( 6 downto &#160;0)&amp;( &#160;&#160;q_i( 7)xor &#160;&#160;q_i( 5)xor &#160;&#160;q_i( 4)xor &#160;&#160;q_i( 3)) </text>
</g>
<!-- node4&#45;&gt;node5 -->
<g id="edge7" class="edge">
<title>node4:s&#45;&gt;node5</title>
<path fill="none" stroke="red" d="M429.32,-162.4C429.32,-140.21 415.02,-125.06 395.59,-114.72"/>
<polygon fill="red" stroke="red" points="397.25,-111.63 386.71,-110.52 394.26,-117.96 397.25,-111.63"/>
<text xml:space="preserve" text-anchor="middle" x="434.43" y="-131.1" font-family="Times New Roman,serif" font-size="14.00">yes</text>
</g>
<!-- node4&#45;&gt;node9 -->
<g id="edge8" class="edge">
<title>node4:s&#45;&gt;node9</title>
<path fill="none" stroke="black" d="M429.32,-162.4C429.32,-151.11 508.69,-118.22 516.33,-109.9 534.71,-89.87 526.17,-76.1 543.33,-55"/>
<text xml:space="preserve" text-anchor="middle" x="539.88" y="-86.4" font-family="Times New Roman,serif" font-size="14.00">no</text>
</g>
<!-- node5&#45;&gt;node9 -->
<g id="edge9" class="edge">
<title>node5&#45;&gt;node9</title>
<path fill="none" stroke="green" d="M507.46,-74.4C523.93,-69.47 536.71,-63.13 543.33,-55"/>
</g>
</g>
</svg>
