<?xml version="1.0" encoding="UTF-8" standalone="no"?>
<?xml-stylesheet href="doxygen.css" type="text/css"?>
<!DOCTYPE svg PUBLIC "-//W3C//DTD SVG 1.1//EN"
 "http://www.w3.org/Graphics/SVG/1.1/DTD/svg11.dtd">
<!-- Generated by graphviz version 14.1.1 (20251213.1925)
 -->
<!-- Title: G Pages: 1 -->
<svg width="2789pt" height="722pt"
 viewBox="0.00 0.00 2789.00 722.00" xmlns="http://www.w3.org/2000/svg" xmlns:xlink="http://www.w3.org/1999/xlink">
<g id="graph0" class="graph" transform="scale(1 1) rotate(0) translate(4 717.6)">
<title>G</title>
<polygon fill="white" stroke="none" points="-4,4 -4,-717.6 2784.65,-717.6 2784.65,4 -4,4"/>
<!-- node28 -->
<g id="node1" class="node">
<title>node28</title>
<path fill="none" stroke="black" d="M937.33,-713.6C937.33,-713.6 799.08,-713.6 799.08,-713.6 793.08,-713.6 787.08,-707.6 787.08,-701.6 787.08,-701.6 787.08,-689.6 787.08,-689.6 787.08,-683.6 793.08,-677.6 799.08,-677.6 799.08,-677.6 937.33,-677.6 937.33,-677.6 943.33,-677.6 949.33,-683.6 949.33,-689.6 949.33,-689.6 949.33,-701.6 949.33,-701.6 949.33,-707.6 943.33,-713.6 937.33,-713.6"/>
<polygon fill="white" stroke="none" points="795.08,-687.35 795.08,-703.85 941.33,-703.85 941.33,-687.35 795.08,-687.35"/>
<text xml:space="preserve" text-anchor="start" x="795.08" y="-690.55" font-family="Times New Roman,serif" font-size="14.00"> testbench_proc:process( ) </text>
</g>
<!-- node0 -->
<g id="node2" class="node">
<title>node0</title>
<polygon fill="lightyellow" stroke="none" points="767.7,-610.9 767.7,-633.4 968.7,-633.4 968.7,-610.9 767.7,-610.9"/>
<polygon fill="none" stroke="black" points="767.7,-610.9 767.7,-633.4 968.7,-633.4 968.7,-610.9 767.7,-610.9"/>
<text xml:space="preserve" text-anchor="start" x="770.7" y="-617.1" font-family="Times New Roman,serif" font-size="14.00"> &#160;variable val_v: natural := 16#FF# </text>
</g>
<!-- node28&#45;&gt;node0 -->
<g id="edge1" class="edge">
<title>node28&#45;&gt;node0</title>
<path fill="none" stroke="green" d="M868.2,-677.3C868.2,-669.64 868.2,-660.41 868.2,-651.77"/>
<polygon fill="green" stroke="green" points="871.7,-652.05 868.2,-642.05 864.7,-652.05 871.7,-652.05"/>
</g>
<!-- node2 -->
<g id="node3" class="node">
<title>node2</title>
<polygon fill="lightcyan" stroke="none" points="753.45,-504 753.45,-559.5 982.95,-559.5 982.95,-504 753.45,-504"/>
<polygon fill="none" stroke="black" points="753.45,-504 753.45,-559.5 982.95,-559.5 982.95,-504 753.45,-504"/>
<text xml:space="preserve" text-anchor="start" x="756.45" y="-543.2" font-family="Times New Roman,serif" font-size="14.00"> &#160;report &#160;&#160;&#160;&quot;Test start.&quot; severity &#160;&#160;&#160;note</text>
<text xml:space="preserve" text-anchor="start" x="756.45" y="-526.7" font-family="Times New Roman,serif" font-size="14.00"> wait &#160;for &#160;&#160;5 ms</text>
<text xml:space="preserve" text-anchor="start" x="756.45" y="-510.2" font-family="Times New Roman,serif" font-size="14.00"> wait &#160;on clk_in until &#160;&#160;&#160;clk_in= &#39;1&#39; &#160;&#160;&#160;&#160;&#160;&#160;&#160;. </text>
</g>
<!-- node0&#45;&gt;node2 -->
<g id="edge2" class="edge">
<title>node0&#45;&gt;node2</title>
<path fill="none" stroke="green" d="M868.2,-604.11C868.2,-596.54 868.2,-587.25 868.2,-577.9"/>
<polygon fill="green" stroke="green" points="871.7,-578.09 868.2,-568.09 864.7,-578.09 871.7,-578.09"/>
</g>
<!-- node5 -->
<g id="node4" class="node">
<title>node5</title>
<polygon fill="#c1b2ff" stroke="#c1b2ff" points="868.2,-459.8 721.75,-441.8 868.2,-423.8 1014.65,-441.8 868.2,-459.8"/>
<text xml:space="preserve" text-anchor="middle" x="868.2" y="-436.75" font-family="Times New Roman,serif" font-size="14.00"> &#160;for i in &#160;1 TO &#160;260 loop</text>
</g>
<!-- node2&#45;&gt;node5 -->
<g id="edge3" class="edge">
<title>node2&#45;&gt;node5:n</title>
<path fill="none" stroke="green" d="M868.2,-496.83C868.2,-488.67 868.2,-479.79 868.2,-471.08"/>
<polygon fill="green" stroke="green" points="871.7,-471.31 868.2,-461.31 864.7,-471.31 871.7,-471.31"/>
</g>
<!-- node6 -->
<g id="node5" class="node">
<title>node6</title>
<polygon fill="lightcyan" stroke="none" points="902.95,-267.35 902.95,-355.85 2773.45,-355.85 2773.45,-267.35 902.95,-267.35"/>
<polygon fill="none" stroke="black" points="902.95,-267.35 902.95,-355.85 2773.45,-355.85 2773.45,-267.35 902.95,-267.35"/>
<text xml:space="preserve" text-anchor="start" x="905.95" y="-339.55" font-family="Times New Roman,serif" font-size="14.00"> assert &#160;&#160;&#160;led_out= &#160;&#160;std_logic_vector( to_unsigned( &#160;&#160;val_v, 8) ) report &#160;&#160;&#160;&quot;Chyba v LFSR na kroku: #&quot;&amp; &#160;&#160;to_string( i )&amp; &#160;&#160;&quot;, led: &quot;&amp; &#160;&#160;to_string( led_out )&amp; &#160;&#160;&quot;, val_v: &quot;&amp; &#160;&#160;to_string( std_logic_vector( to_unsigned( &#160;&#160;val_v, 8) ) ) report &#160;&#160;&#160;failure</text>
<text xml:space="preserve" text-anchor="start" x="905.95" y="-323.05" font-family="Times New Roman,serif" font-size="14.00"> wait &#160;on clk_in until &#160;&#160;&#160;clk_in= &#39;1&#39;</text>
<text xml:space="preserve" text-anchor="start" x="905.95" y="-306.55" font-family="Times New Roman,serif" font-size="14.00">val_v:= 2* &#160;&#160;val_v</text>
<text xml:space="preserve" text-anchor="start" x="905.95" y="-290.05" font-family="Times New Roman,serif" font-size="14.00">val_v:= &#160;&#160;val_v+( &#160;&#160;val_v/ 2** 8+ &#160;&#160;val_v/ 2** 6+ &#160;&#160;val_v/ 2** 5+ &#160;&#160;val_v/ 2** 4)MOD 2</text>
<text xml:space="preserve" text-anchor="start" x="905.95" y="-273.55" font-family="Times New Roman,serif" font-size="14.00">val_v:= &#160;&#160;val_vMOD 256 &#160;&#160;&#160;&#160;&#160;&#160;&#160;&#160;&#160;&#160;&#160;&#160;&#160;&#160;&#160;&#160;&#160;&#160;&#160;&#160;&#160;&#160;&#160;&#160;&#160;&#160;&#160;&#160;&#160;&#160;&#160;&#160;&#160;&#160;&#160;&#160;&#160;&#160;&#160;&#160;&#160;&#160;&#160;&#160;&#160;&#160;&#160;&#160;&#160;&#160;&#160;&#160;&#160;&#160;&#160;&#160;&#160;&#160;&#160;&#160;&#160;&#160;&#160;&#160;&#160;&#160;&#160;&#160;&#160;&#160;&#160;&#160;&#160;&#160;&#160;&#160;&#160;&#160;&#160;&#160;&#160;&#160;&#160;&#160;&#160;&#160;&#160;&#160;&#160;&#160;&#160;&#160;&#160;&#160;&#160;&#160;&#160;&#160;&#160;&#160;&#160;&#160;&#160;&#160;&#160;&#160;&#160;&#160;&#160;&#160;&#160;&#160;&#160;&#160;&#160;&#160;&#160;&#160;&#160;&#160;&#160;&#160;&#160;&#160;&#160;&#160;&#160;&#160;&#160;&#160;&#160;&#160;&#160;&#160;&#160;&#160;&#160;&#160;&#160;&#160;&#160;&#160;&#160;&#160;&#160;&#160;&#160;&#160;&#160;&#160;&#160;&#160;&#160;&#160;&#160;&#160;&#160;&#160;&#160;&#160;&#160;&#160;&#160;&#160;&#160;&#160;&#160;&#160;&#160;&#160;&#160;&#160;&#160;&#160;&#160;&#160;&#160;&#160;&#160;&#160;&#160;&#160;&#160;&#160;&#160;&#160;&#160;&#160;&#160;&#160;&#160;&#160;&#160;&#160;&#160;&#160;&#160;&#160;&#160;&#160;&#160;&#160;&#160;&#160;&#160;&#160;&#160;&#160;&#160;&#160;&#160;&#160;&#160;&#160;&#160;&#160;&#160;&#160;&#160;&#160;&#160;&#160;&#160;&#160;&#160;&#160;&#160;&#160;&#160;&#160;&#160;&#160;&#160;&#160;&#160;&#160;&#160;&#160;&#160;&#160;&#160;&#160;&#160;&#160;&#160;&#160;&#160;&#160;&#160;&#160;&#160;&#160;&#160;&#160;&#160;&#160;&#160;&#160;&#160;&#160;&#160;&#160;&#160;&#160;&#160;&#160;&#160;&#160;&#160;&#160;&#160;&#160;&#160;&#160;&#160;&#160;&#160;&#160;&#160;&#160;&#160;&#160;&#160;&#160;&#160;&#160;&#160;&#160;&#160;&#160;&#160;&#160;&#160;&#160;&#160;&#160;&#160;&#160;&#160;&#160;&#160;&#160;&#160;&#160;&#160;&#160;&#160;&#160;&#160;&#160;&#160;&#160;&#160;&#160;&#160;&#160;&#160;&#160;&#160;&#160;&#160;&#160;&#160;&#160;&#160;&#160;&#160;&#160;&#160;&#160;&#160;&#160;&#160;&#160;&#160;&#160;&#160;&#160;&#160;&#160;&#160;&#160;&#160;&#160;&#160;&#160;&#160;&#160;&#160;&#160;&#160;&#160;&#160;&#160;&#160;&#160;&#160;&#160;&#160;&#160;&#160;&#160;&#160;&#160;&#160;&#160;&#160;&#160;&#160;&#160;&#160;&#160;&#160;&#160;&#160;&#160;&#160;&#160;&#160;&#160;&#160;&#160;&#160;&#160;&#160;&#160;&#160;&#160;&#160;&#160;&#160;&#160;&#160;&#160;&#160;&#160;&#160;&#160;&#160;&#160;&#160;&#160;&#160;&#160;&#160;&#160;&#160;&#160;&#160;&#160;&#160;&#160;&#160;&#160;&#160;&#160;&#160;&#160;&#160;&#160;&#160;&#160;&#160;&#160;&#160;&#160;&#160;&#160;&#160;&#160;&#160;&#160;&#160;&#160;&#160;&#160;&#160;&#160;&#160;&#160;&#160;&#160;&#160;&#160;&#160;&#160;&#160;&#160;&#160;&#160;&#160;&#160;&#160;&#160;&#160;&#160;&#160;. </text>
</g>
<!-- node5&#45;&gt;node6 -->
<g id="edge4" class="edge">
<title>node5:s&#45;&gt;node6</title>
<path fill="none" stroke="red" d="M868.2,-423.8C868.2,-403.25 1007.45,-382.31 1180.43,-364.22"/>
<polygon fill="red" stroke="red" points="1180.78,-367.7 1190.36,-363.19 1180.06,-360.74 1180.78,-367.7"/>
<text xml:space="preserve" text-anchor="middle" x="978.08" y="-392.5" font-family="Times New Roman,serif" font-size="14.00">yes</text>
</g>
<!-- node16 -->
<g id="node9" class="node">
<title>node16</title>
<polygon fill="lightcyan" stroke="none" points="235.7,-259.1 235.7,-364.1 832.7,-364.1 832.7,-259.1 235.7,-259.1"/>
<polygon fill="none" stroke="black" points="235.7,-259.1 235.7,-364.1 832.7,-364.1 832.7,-259.1 235.7,-259.1"/>
<text xml:space="preserve" text-anchor="start" x="238.7" y="-347.8" font-family="Times New Roman,serif" font-size="14.00"> arst_in&lt;= &#39;1&#39;</text>
<text xml:space="preserve" text-anchor="start" x="238.7" y="-331.3" font-family="Times New Roman,serif" font-size="14.00"> wait &#160;on clk_in until &#160;&#160;&#160;clk_in= &#39;1&#39;</text>
<text xml:space="preserve" text-anchor="start" x="238.7" y="-314.8" font-family="Times New Roman,serif" font-size="14.00">assert &#160;&#160;&#160;led_out= X&quot;FF&quot; report &#160;&#160;&#160;&quot;Chyba v LFSR pri: arst = 1 a ce = 1&quot; report &#160;&#160;&#160;failure</text>
<text xml:space="preserve" text-anchor="start" x="238.7" y="-298.3" font-family="Times New Roman,serif" font-size="14.00">arst_in&lt;= &#39;0&#39;</text>
<text xml:space="preserve" text-anchor="start" x="238.7" y="-281.8" font-family="Times New Roman,serif" font-size="14.00">ce_in&lt;= &#39;0&#39;</text>
<text xml:space="preserve" text-anchor="start" x="238.7" y="-265.3" font-family="Times New Roman,serif" font-size="14.00"> wait &#160;on clk_in until &#160;&#160;&#160;clk_in= &#39;1&#39; &#160;&#160;&#160;&#160;&#160;&#160;&#160;&#160;&#160;&#160;&#160;&#160;&#160;&#160;&#160;&#160;&#160;&#160;&#160;&#160;&#160;&#160;&#160;&#160;&#160;&#160;&#160;&#160;&#160;&#160;&#160;&#160;&#160;&#160;&#160;&#160;&#160;&#160;&#160;&#160;&#160;&#160;&#160;&#160;&#160;&#160;&#160;&#160;&#160;&#160;&#160;&#160;&#160;&#160;&#160;&#160;&#160;&#160;&#160;&#160;&#160;&#160;&#160;&#160;&#160;&#160;&#160;&#160;&#160;&#160;&#160;&#160;&#160;&#160;&#160;&#160;&#160;&#160;&#160;&#160;&#160;&#160;&#160;&#160;&#160;&#160;&#160;&#160;&#160;&#160;&#160;&#160;&#160;&#160;&#160;&#160;&#160;&#160;&#160;&#160;&#160;&#160;&#160;&#160;&#160;. </text>
</g>
<!-- node5&#45;&gt;node16 -->
<g id="edge5" class="edge">
<title>node5:s&#45;&gt;node16</title>
<path fill="none" stroke="black" d="M868.2,-423.8C868.2,-415.77 811.88,-395.58 745.49,-374.58"/>
<polygon fill="black" stroke="black" points="746.79,-371.32 736.2,-371.65 744.69,-377.99 746.79,-371.32"/>
<text xml:space="preserve" text-anchor="middle" x="840.21" y="-392.5" font-family="Times New Roman,serif" font-size="14.00">no</text>
</g>
<!-- node12 -->
<g id="node6" class="node">
<title>node12</title>
<polygon fill="#c1b2ff" stroke="#c1b2ff" points="1592.2,-214.9 1438.51,-196.9 1592.2,-178.9 1745.89,-196.9 1592.2,-214.9"/>
<text xml:space="preserve" text-anchor="middle" x="1592.2" y="-191.85" font-family="Times New Roman,serif" font-size="14.00"> if &#160;&#160;&#160;led_out= X&quot;FF&quot; then</text>
</g>
<!-- node6&#45;&gt;node12 -->
<g id="edge6" class="edge">
<title>node6&#45;&gt;node12:n</title>
<path fill="none" stroke="green" d="M1642.58,-260.24C1619.5,-250.06 1601.73,-238.53 1595.06,-225.84"/>
<polygon fill="green" stroke="green" points="1598.5,-225.15 1592.58,-216.36 1591.73,-226.92 1598.5,-225.15"/>
</g>
<!-- node13 -->
<g id="node7" class="node">
<title>node13</title>
<polygon fill="lightcyan" stroke="none" points="1149.7,-88.45 1149.7,-110.95 1548.7,-110.95 1548.7,-88.45 1149.7,-88.45"/>
<polygon fill="none" stroke="black" points="1149.7,-88.45 1149.7,-110.95 1548.7,-110.95 1548.7,-88.45 1149.7,-88.45"/>
<text xml:space="preserve" text-anchor="start" x="1152.7" y="-94.65" font-family="Times New Roman,serif" font-size="14.00"> &#160;report &#160;&#160;&#160;&quot;Perioda LFSR nalezena po &quot;&amp; &#160;&#160;to_string( i )&amp; &#160;&#160;&quot; krocich.&quot; </text>
</g>
<!-- node12&#45;&gt;node13 -->
<g id="edge7" class="edge">
<title>node12:s&#45;&gt;node13</title>
<path fill="none" stroke="red" d="M1592.2,-178.9C1592.2,-169.96 1495.54,-141.19 1424.14,-121.16"/>
<polygon fill="red" stroke="red" points="1425.39,-117.87 1414.82,-118.55 1423.51,-124.62 1425.39,-117.87"/>
<text xml:space="preserve" text-anchor="middle" x="1560.46" y="-147.6" font-family="Times New Roman,serif" font-size="14.00">yes</text>
</g>
<!-- node15 -->
<g id="node8" class="node">
<title>node15</title>
<ellipse fill="none" stroke="black" cx="1230.2" cy="-18" rx="43.16" ry="18"/>
<text xml:space="preserve" text-anchor="middle" x="1230.2" y="-12.95" font-family="Times New Roman,serif" font-size="14.00">end loop</text>
</g>
<!-- node12&#45;&gt;node15 -->
<g id="edge8" class="edge">
<title>node12:s&#45;&gt;node15</title>
<path fill="none" stroke="black" d="M1592.2,-178.9C1592.2,-123.83 1599.22,-109.62 1592.2,-55"/>
<text xml:space="preserve" text-anchor="middle" x="1602.07" y="-94.65" font-family="Times New Roman,serif" font-size="14.00">no</text>
</g>
<!-- node13&#45;&gt;node15 -->
<g id="edge9" class="edge">
<title>node13&#45;&gt;node15</title>
<path fill="none" stroke="green" d="M1592.2,-54C1588.32,-23.84 1385.33,-19.25 1285.06,-18.83"/>
<polygon fill="green" stroke="green" points="1285.18,-15.33 1275.17,-18.8 1285.16,-22.33 1285.18,-15.33"/>
<path fill="none" stroke="green" d="M1513.83,-81.27C1558.06,-74.31 1593.54,-65.44 1592.2,-55"/>
</g>
<!-- node15&#45;&gt;node5 -->
<g id="edge10" class="edge">
<title>node15&#45;&gt;node5:n</title>
<path fill="none" stroke="green" d="M1186.89,-19.51C1090.81,-21.81 868.2,-34.11 868.2,-98.7 868.2,-312.6 868.2,-312.6 868.2,-312.6 868.2,-315.98 889.15,-395.16 903.2,-405.8 943.19,-436.1 982.12,-385.6 1014.65,-423.8 1025.17,-436.15 1026.08,-448.79 1014.65,-460.3 1009.88,-465.1 911.66,-468.24 878.8,-464.47"/>
<polygon fill="green" stroke="green" points="880.23,-461.24 869.65,-461.73 878.23,-467.95 880.23,-461.24"/>
</g>
<!-- node22 -->
<g id="node10" class="node">
<title>node22</title>
<polygon fill="#c1b2ff" stroke="#c1b2ff" points="534.2,-214.9 400.78,-196.9 534.2,-178.9 667.62,-196.9 534.2,-214.9"/>
<text xml:space="preserve" text-anchor="middle" x="534.2" y="-191.85" font-family="Times New Roman,serif" font-size="14.00"> &#160;for i in &#160;1 TO &#160;2 loop</text>
</g>
<!-- node16&#45;&gt;node22 -->
<g id="edge11" class="edge">
<title>node16&#45;&gt;node22:n</title>
<path fill="none" stroke="green" d="M534.2,-252.15C534.2,-243.69 534.2,-234.95 534.2,-226.4"/>
<polygon fill="green" stroke="green" points="537.7,-226.41 534.2,-216.41 530.7,-226.41 537.7,-226.41"/>
</g>
<!-- node23 -->
<g id="node11" class="node">
<title>node23</title>
<polygon fill="lightcyan" stroke="none" points="7.2,-80.2 7.2,-119.2 499.2,-119.2 499.2,-80.2 7.2,-80.2"/>
<polygon fill="none" stroke="black" points="7.2,-80.2 7.2,-119.2 499.2,-119.2 499.2,-80.2 7.2,-80.2"/>
<text xml:space="preserve" text-anchor="start" x="10.2" y="-102.9" font-family="Times New Roman,serif" font-size="14.00"> &#160;wait &#160;on clk_in until &#160;&#160;&#160;clk_in= &#39;1&#39;</text>
<text xml:space="preserve" text-anchor="start" x="10.2" y="-86.4" font-family="Times New Roman,serif" font-size="14.00">assert &#160;&#160;&#160;led_out= X&quot;FF&quot; report &#160;&#160;&#160;&quot;Chyba v LFSR pri: arst = 0 a ce = 0&quot; report &#160;&#160;&#160;failure </text>
</g>
<!-- node22&#45;&gt;node23 -->
<g id="edge12" class="edge">
<title>node22:s&#45;&gt;node23</title>
<path fill="none" stroke="red" d="M534.2,-178.9C534.2,-170.08 450.89,-147.68 374.99,-129.1"/>
<polygon fill="red" stroke="red" points="375.87,-125.71 365.33,-126.75 374.21,-132.51 375.87,-125.71"/>
<text xml:space="preserve" text-anchor="middle" x="502.41" y="-147.6" font-family="Times New Roman,serif" font-size="14.00">yes</text>
</g>
<!-- node26 -->
<g id="node13" class="node">
<title>node26</title>
<polygon fill="lightcyan" stroke="none" points="569.45,-88.45 569.45,-110.95 786.95,-110.95 786.95,-88.45 569.45,-88.45"/>
<polygon fill="none" stroke="black" points="569.45,-88.45 569.45,-110.95 786.95,-110.95 786.95,-88.45 569.45,-88.45"/>
<text xml:space="preserve" text-anchor="start" x="572.45" y="-94.65" font-family="Times New Roman,serif" font-size="14.00"> &#160;report &#160;&#160;&#160;&quot;Test done.&quot; severity &#160;&#160;&#160;note </text>
</g>
<!-- node22&#45;&gt;node26 -->
<g id="edge13" class="edge">
<title>node22:s&#45;&gt;node26</title>
<path fill="none" stroke="black" d="M534.2,-178.9C534.2,-167.92 586.59,-141.73 628.17,-122.68"/>
<polygon fill="black" stroke="black" points="629.43,-125.95 637.09,-118.63 626.54,-119.58 629.43,-125.95"/>
<text xml:space="preserve" text-anchor="middle" x="587.53" y="-147.6" font-family="Times New Roman,serif" font-size="14.00">no</text>
</g>
<!-- node25 -->
<g id="node12" class="node">
<title>node25</title>
<ellipse fill="none" stroke="black" cx="458.2" cy="-18" rx="43.16" ry="18"/>
<text xml:space="preserve" text-anchor="middle" x="458.2" y="-12.95" font-family="Times New Roman,serif" font-size="14.00">end loop</text>
</g>
<!-- node23&#45;&gt;node25 -->
<g id="edge14" class="edge">
<title>node23&#45;&gt;node25</title>
<path fill="none" stroke="green" d="M319.19,-73.04C351.22,-60.59 388.73,-46.01 416.7,-35.13"/>
<polygon fill="green" stroke="green" points="417.84,-38.45 425.89,-31.56 415.31,-31.92 417.84,-38.45"/>
</g>
<!-- node25&#45;&gt;node22 -->
<g id="edge15" class="edge">
<title>node25&#45;&gt;node22:n</title>
<path fill="none" stroke="green" d="M478.21,-34.29C490.19,-44.26 505.03,-58.16 515.2,-73 539.06,-107.83 518.05,-134.76 551.2,-160.9 592.31,-193.32 633.54,-139.15 667.62,-178.9 678.14,-191.17 679.01,-203.8 667.62,-215.27 663.34,-219.59 576.3,-222.48 545.16,-219.29"/>
<polygon fill="green" stroke="green" points="546.23,-215.96 535.66,-216.67 544.37,-222.7 546.23,-215.96"/>
</g>
<!-- node29 -->
<g id="node14" class="node">
<title>node29</title>
<path fill="none" stroke="black" d="M711.7,-36C711.7,-36 644.7,-36 644.7,-36 638.7,-36 632.7,-30 632.7,-24 632.7,-24 632.7,-12 632.7,-12 632.7,-6 638.7,0 644.7,0 644.7,0 711.7,0 711.7,0 717.7,0 723.7,-6 723.7,-12 723.7,-12 723.7,-24 723.7,-24 723.7,-30 717.7,-36 711.7,-36"/>
<polygon fill="white" stroke="none" points="640.7,-9.75 640.7,-26.25 715.7,-26.25 715.7,-9.75 640.7,-9.75"/>
<text xml:space="preserve" text-anchor="start" x="640.7" y="-12.95" font-family="Times New Roman,serif" font-size="14.00"> end process &#160;</text>
</g>
<!-- node26&#45;&gt;node29 -->
<g id="edge16" class="edge">
<title>node26&#45;&gt;node29</title>
<path fill="none" stroke="green" d="M678.2,-81.41C678.2,-71.48 678.2,-58.78 678.2,-47.43"/>
<polygon fill="green" stroke="green" points="681.7,-47.77 678.2,-37.77 674.7,-47.77 681.7,-47.77"/>
</g>
</g>
</svg>
