<?xml version="1.0" encoding="UTF-8" standalone="no"?>
<?xml-stylesheet href="doxygen.css" type="text/css"?>
<!DOCTYPE svg PUBLIC "-//W3C//DTD SVG 1.1//EN"
 "http://www.w3.org/Graphics/SVG/1.1/DTD/svg11.dtd">
<!-- Generated by graphviz version 14.1.1 (20251213.1925)
 -->
<!-- Title: G Pages: 1 -->
<svg width="415pt" height="403pt"
 viewBox="0.00 0.00 415.00 403.00" xmlns="http://www.w3.org/2000/svg" xmlns:xlink="http://www.w3.org/1999/xlink">
<g id="graph0" class="graph" transform="scale(1 1) rotate(0) translate(4 398.8)">
<title>G</title>
<polygon fill="white" stroke="none" points="-4,4 -4,-398.8 410.78,-398.8 410.78,4 -4,4"/>
<!-- node10 -->
<g id="node1" class="node">
<title>node10</title>
<path fill="none" stroke="black" d="M204.7,-394.8C204.7,-394.8 88.2,-394.8 88.2,-394.8 82.2,-394.8 76.2,-388.8 76.2,-382.8 76.2,-382.8 76.2,-370.8 76.2,-370.8 76.2,-364.8 82.2,-358.8 88.2,-358.8 88.2,-358.8 204.7,-358.8 204.7,-358.8 210.7,-358.8 216.7,-364.8 216.7,-370.8 216.7,-370.8 216.7,-382.8 216.7,-382.8 216.7,-388.8 210.7,-394.8 204.7,-394.8"/>
<polygon fill="white" stroke="none" points="84.2,-368.55 84.2,-385.05 208.7,-385.05 208.7,-368.55 84.2,-368.55"/>
<text xml:space="preserve" text-anchor="start" x="84.2" y="-371.75" font-family="Times New Roman,serif" font-size="14.00"> clock_proc:process( ) </text>
</g>
<!-- node1 -->
<g id="node2" class="node">
<title>node1</title>
<polygon fill="lightcyan" stroke="none" points="95.45,-292.1 95.45,-314.6 197.45,-314.6 197.45,-292.1 95.45,-292.1"/>
<polygon fill="none" stroke="black" points="95.45,-292.1 95.45,-314.6 197.45,-314.6 197.45,-292.1 95.45,-292.1"/>
<text xml:space="preserve" text-anchor="start" x="98.45" y="-298.3" font-family="Times New Roman,serif" font-size="14.00"> &#160;wait &#160;for &#160;&#160;5 ms </text>
</g>
<!-- node10&#45;&gt;node1 -->
<g id="edge1" class="edge">
<title>node10&#45;&gt;node1</title>
<path fill="none" stroke="green" d="M146.45,-358.5C146.45,-350.84 146.45,-341.61 146.45,-332.97"/>
<polygon fill="green" stroke="green" points="149.95,-333.25 146.45,-323.25 142.95,-333.25 149.95,-333.25"/>
</g>
<!-- node2 -->
<g id="node3" class="node">
<title>node2</title>
<polygon fill="#c1b2ff" stroke="#c1b2ff" points="146.45,-247.9 0,-229.9 146.45,-211.9 292.9,-229.9 146.45,-247.9"/>
<text xml:space="preserve" text-anchor="middle" x="146.45" y="-224.85" font-family="Times New Roman,serif" font-size="14.00"> &#160;for i in &#160;1 TO &#160;150 loop</text>
</g>
<!-- node1&#45;&gt;node2 -->
<g id="edge2" class="edge">
<title>node1&#45;&gt;node2:n</title>
<path fill="none" stroke="green" d="M146.45,-285.18C146.45,-277.65 146.45,-268.45 146.45,-259.31"/>
<polygon fill="green" stroke="green" points="149.95,-259.41 146.45,-249.41 142.95,-259.41 149.95,-259.41"/>
</g>
<!-- node3 -->
<g id="node4" class="node">
<title>node3</title>
<polygon fill="lightcyan" stroke="none" points="60.2,-80.2 60.2,-152.2 232.7,-152.2 232.7,-80.2 60.2,-80.2"/>
<polygon fill="none" stroke="black" points="60.2,-80.2 60.2,-152.2 232.7,-152.2 232.7,-80.2 60.2,-80.2"/>
<text xml:space="preserve" text-anchor="start" x="63.2" y="-135.9" font-family="Times New Roman,serif" font-size="14.00"> clk_in&lt;= &#39;1&#39;</text>
<text xml:space="preserve" text-anchor="start" x="63.2" y="-119.4" font-family="Times New Roman,serif" font-size="14.00"> wait &#160;for &#160;&#160;&#160;clock_period_c/ 2</text>
<text xml:space="preserve" text-anchor="start" x="63.2" y="-102.9" font-family="Times New Roman,serif" font-size="14.00">clk_in&lt;= &#39;0&#39;</text>
<text xml:space="preserve" text-anchor="start" x="63.2" y="-86.4" font-family="Times New Roman,serif" font-size="14.00"> wait &#160;for &#160;&#160;&#160;clock_period_c/ 2 </text>
</g>
<!-- node2&#45;&gt;node3 -->
<g id="edge3" class="edge">
<title>node2:s&#45;&gt;node3</title>
<path fill="none" stroke="red" d="M146.45,-211.9C146.45,-198.41 146.45,-183.85 146.45,-170.28"/>
<polygon fill="red" stroke="red" points="149.95,-170.67 146.45,-160.67 142.95,-170.67 149.95,-170.67"/>
<text xml:space="preserve" text-anchor="middle" x="155.45" y="-180.6" font-family="Times New Roman,serif" font-size="14.00">yes</text>
</g>
<!-- node8 -->
<g id="node6" class="node">
<title>node8</title>
<polygon fill="lightcyan" stroke="none" points="265.33,-96.7 265.33,-135.7 399.58,-135.7 399.58,-96.7 265.33,-96.7"/>
<polygon fill="none" stroke="black" points="265.33,-96.7 265.33,-135.7 399.58,-135.7 399.58,-96.7 265.33,-96.7"/>
<text xml:space="preserve" text-anchor="start" x="268.33" y="-119.4" font-family="Times New Roman,serif" font-size="14.00"> &#160;wait &#160;for &#160;&#160;10 ms</text>
<text xml:space="preserve" text-anchor="start" x="268.33" y="-102.9" font-family="Times New Roman,serif" font-size="14.00"> wait &#160;&#160;&#160;&#160;&#160;&#160;&#160;&#160;&#160;&#160;&#160;&#160;&#160;&#160;&#160;&#160;&#160;&#160;&#160;&#160;&#160;&#160;&#160;&#160;. </text>
</g>
<!-- node2&#45;&gt;node8 -->
<g id="edge4" class="edge">
<title>node2:s&#45;&gt;node8</title>
<path fill="none" stroke="black" d="M146.45,-211.9C146.45,-211.01 217.15,-175.22 271.37,-147.9"/>
<polygon fill="black" stroke="black" points="272.92,-151.04 280.27,-143.42 269.77,-144.79 272.92,-151.04"/>
<text xml:space="preserve" text-anchor="middle" x="218.67" y="-180.6" font-family="Times New Roman,serif" font-size="14.00">no</text>
</g>
<!-- node7 -->
<g id="node5" class="node">
<title>node7</title>
<ellipse fill="none" stroke="black" cx="62.45" cy="-18" rx="43.16" ry="18"/>
<text xml:space="preserve" text-anchor="middle" x="62.45" y="-12.95" font-family="Times New Roman,serif" font-size="14.00">end loop</text>
</g>
<!-- node3&#45;&gt;node7 -->
<g id="edge5" class="edge">
<title>node3&#45;&gt;node7</title>
<path fill="none" stroke="green" d="M109.61,-73.01C100.97,-63.11 92.04,-52.88 84.3,-44.02"/>
<polygon fill="green" stroke="green" points="86.94,-41.73 77.73,-36.5 81.67,-46.33 86.94,-41.73"/>
</g>
<!-- node7&#45;&gt;node2 -->
<g id="edge6" class="edge">
<title>node7&#45;&gt;node2:n</title>
<path fill="none" stroke="green" d="M53.44,-35.93C39.74,-64.27 17.89,-121.9 44.45,-159.4 71.13,-197.08 97.48,-183.43 142.45,-193.9 175.24,-201.54 270.55,-186.72 292.9,-211.9 303.67,-224.03 304.33,-236.89 292.9,-248.4 288.13,-253.2 189.91,-256.34 157.05,-252.57"/>
<polygon fill="green" stroke="green" points="158.48,-249.34 147.9,-249.83 156.48,-256.05 158.48,-249.34"/>
</g>
<!-- node11 -->
<g id="node7" class="node">
<title>node11</title>
<path fill="none" stroke="black" d="M365.95,-36C365.95,-36 298.95,-36 298.95,-36 292.95,-36 286.95,-30 286.95,-24 286.95,-24 286.95,-12 286.95,-12 286.95,-6 292.95,0 298.95,0 298.95,0 365.95,0 365.95,0 371.95,0 377.95,-6 377.95,-12 377.95,-12 377.95,-24 377.95,-24 377.95,-30 371.95,-36 365.95,-36"/>
<polygon fill="white" stroke="none" points="294.95,-9.75 294.95,-26.25 369.95,-26.25 369.95,-9.75 294.95,-9.75"/>
<text xml:space="preserve" text-anchor="start" x="294.95" y="-12.95" font-family="Times New Roman,serif" font-size="14.00"> end process &#160;</text>
</g>
<!-- node8&#45;&gt;node11 -->
<g id="edge7" class="edge">
<title>node8&#45;&gt;node11</title>
<path fill="none" stroke="green" d="M332.45,-89.67C332.45,-76.8 332.45,-61.14 332.45,-47.84"/>
<polygon fill="green" stroke="green" points="335.95,-47.94 332.45,-37.94 328.95,-47.94 335.95,-47.94"/>
</g>
</g>
</svg>
