<?xml version="1.0" encoding="UTF-8" standalone="no"?>
<?xml-stylesheet href="doxygen.css" type="text/css"?>
<!DOCTYPE svg PUBLIC "-//W3C//DTD SVG 1.1//EN"
 "http://www.w3.org/Graphics/SVG/1.1/DTD/svg11.dtd">
<!-- Generated by graphviz version 14.1.1 (20251213.1925)
 -->
<!-- Title: G Pages: 1 -->
<svg width="414pt" height="368pt"
 viewBox="0.00 0.00 414.00 368.00" xmlns="http://www.w3.org/2000/svg" xmlns:xlink="http://www.w3.org/1999/xlink">
<g id="graph0" class="graph" transform="scale(1 1) rotate(0) translate(4 363.9)">
<title>G</title>
<polygon fill="white" stroke="none" points="-4,4 -4,-363.9 410.4,-363.9 410.4,4 -4,4"/>
<!-- node8 -->
<g id="node1" class="node">
<title>node8</title>
<path fill="none" stroke="black" d="M310.3,-359.9C310.3,-359.9 148.8,-359.9 148.8,-359.9 142.8,-359.9 136.8,-353.9 136.8,-347.9 136.8,-347.9 136.8,-335.9 136.8,-335.9 136.8,-329.9 142.8,-323.9 148.8,-323.9 148.8,-323.9 310.3,-323.9 310.3,-323.9 316.3,-323.9 322.3,-329.9 322.3,-335.9 322.3,-335.9 322.3,-347.9 322.3,-347.9 322.3,-353.9 316.3,-359.9 310.3,-359.9"/>
<polygon fill="white" stroke="none" points="144.8,-333.65 144.8,-350.15 314.3,-350.15 314.3,-333.65 144.8,-333.65"/>
<text xml:space="preserve" text-anchor="start" x="144.8" y="-336.85" font-family="Times New Roman,serif" font-size="14.00"> counter_proc:process( clk_in) </text>
</g>
<!-- node1 -->
<g id="node2" class="node">
<title>node1</title>
<polygon fill="#c1b2ff" stroke="#c1b2ff" points="229.55,-286.9 52.7,-268.9 229.55,-250.9 406.4,-268.9 229.55,-286.9"/>
<text xml:space="preserve" text-anchor="middle" x="229.55" y="-263.85" font-family="Times New Roman,serif" font-size="14.00"> if &#160;&#160;&#160;rising_edge( clk_in ) then</text>
</g>
<!-- node8&#45;&gt;node1 -->
<g id="edge1" class="edge">
<title>node8&#45;&gt;node1:n</title>
<path fill="none" stroke="green" d="M229.55,-323.88C229.55,-316.4 229.55,-307.28 229.55,-298.21"/>
<polygon fill="green" stroke="green" points="233.05,-298.41 229.55,-288.41 226.05,-298.41 233.05,-298.41"/>
</g>
<!-- node2 -->
<g id="node3" class="node">
<title>node2</title>
<polygon fill="#c1b2ff" stroke="#c1b2ff" points="143.55,-198.4 0,-180.4 143.55,-162.4 287.11,-180.4 143.55,-198.4"/>
<text xml:space="preserve" text-anchor="middle" x="143.55" y="-175.35" font-family="Times New Roman,serif" font-size="14.00"> if &#160;&#160;&#160;cnt_i&lt; &#160;&#160;MAX then</text>
</g>
<!-- node1&#45;&gt;node2 -->
<g id="edge2" class="edge">
<title>node1:s&#45;&gt;node2:n</title>
<path fill="none" stroke="red" d="M229.55,-250.9C229.55,-210.49 159.53,-236.72 145.86,-209.33"/>
<polygon fill="red" stroke="red" points="149.35,-208.95 143.87,-199.88 142.5,-210.39 149.35,-208.95"/>
<text xml:space="preserve" text-anchor="middle" x="229.61" y="-219.6" font-family="Times New Roman,serif" font-size="14.00">yes</text>
</g>
<!-- node9 -->
<g id="node6" class="node">
<title>node9</title>
<path fill="none" stroke="black" d="M349.05,-36C349.05,-36 282.05,-36 282.05,-36 276.05,-36 270.05,-30 270.05,-24 270.05,-24 270.05,-12 270.05,-12 270.05,-6 276.05,0 282.05,0 282.05,0 349.05,0 349.05,0 355.05,0 361.05,-6 361.05,-12 361.05,-12 361.05,-24 361.05,-24 361.05,-30 355.05,-36 349.05,-36"/>
<polygon fill="white" stroke="none" points="278.05,-9.75 278.05,-26.25 353.05,-26.25 353.05,-9.75 278.05,-9.75"/>
<text xml:space="preserve" text-anchor="start" x="278.05" y="-12.95" font-family="Times New Roman,serif" font-size="14.00"> end process &#160;</text>
</g>
<!-- node1&#45;&gt;node9 -->
<g id="edge3" class="edge">
<title>node1:s&#45;&gt;node9</title>
<path fill="none" stroke="black" d="M229.55,-250.9C229.55,-231.98 287.17,-214.83 296.55,-198.4 328.44,-142.57 280.08,-108.61 315.55,-55"/>
<text xml:space="preserve" text-anchor="middle" x="314.14" y="-131.1" font-family="Times New Roman,serif" font-size="14.00">no</text>
</g>
<!-- node3 -->
<g id="node4" class="node">
<title>node3</title>
<polygon fill="lightcyan" stroke="none" points="66.55,-80.2 66.55,-102.7 180.55,-102.7 180.55,-80.2 66.55,-80.2"/>
<polygon fill="none" stroke="black" points="66.55,-80.2 66.55,-102.7 180.55,-102.7 180.55,-80.2 66.55,-80.2"/>
<text xml:space="preserve" text-anchor="start" x="69.55" y="-86.4" font-family="Times New Roman,serif" font-size="14.00"> cnt_i&lt;= &#160;&#160;cnt_i+ 1 </text>
</g>
<!-- node2&#45;&gt;node3 -->
<g id="edge4" class="edge">
<title>node2:s&#45;&gt;node3</title>
<path fill="none" stroke="red" d="M143.55,-162.4C143.55,-148.28 139.74,-133.16 135.45,-120.59"/>
<polygon fill="red" stroke="red" points="138.75,-119.45 131.99,-111.3 132.19,-121.89 138.75,-119.45"/>
<text xml:space="preserve" text-anchor="middle" x="150.47" y="-131.1" font-family="Times New Roman,serif" font-size="14.00">yes</text>
</g>
<!-- node5 -->
<g id="node5" class="node">
<title>node5</title>
<polygon fill="lightcyan" stroke="none" points="212.8,-80.2 212.8,-102.7 280.3,-102.7 280.3,-80.2 212.8,-80.2"/>
<polygon fill="none" stroke="black" points="212.8,-80.2 212.8,-102.7 280.3,-102.7 280.3,-80.2 212.8,-80.2"/>
<text xml:space="preserve" text-anchor="start" x="215.8" y="-86.4" font-family="Times New Roman,serif" font-size="14.00"> cnt_i&lt;= 0 </text>
</g>
<!-- node2&#45;&gt;node5 -->
<g id="edge5" class="edge">
<title>node2:s&#45;&gt;node5</title>
<path fill="none" stroke="black" d="M143.55,-162.4C143.55,-158.31 179.57,-134.6 209.01,-115.9"/>
<polygon fill="black" stroke="black" points="210.82,-118.89 217.4,-110.59 207.08,-112.98 210.82,-118.89"/>
<text xml:space="preserve" text-anchor="middle" x="195.64" y="-131.1" font-family="Times New Roman,serif" font-size="14.00">no</text>
</g>
<!-- node3&#45;&gt;node9 -->
<g id="edge6" class="edge">
<title>node3&#45;&gt;node9</title>
<path fill="none" stroke="green" d="M187.58,-74.82C190.61,-74.18 193.61,-73.57 196.55,-73 222.81,-67.89 300.8,-77.3 315.55,-55"/>
<path fill="none" stroke="green" d="M315.55,-54C316.89,-51.98 317.81,-49.74 318.41,-47.4"/>
<polygon fill="green" stroke="green" points="321.89,-47.89 319.15,-37.66 314.91,-47.36 321.89,-47.89"/>
</g>
<!-- node5&#45;&gt;node9 -->
<g id="edge7" class="edge">
<title>node5&#45;&gt;node9</title>
<path fill="none" stroke="green" d="M287.17,-77.99C298.12,-72.65 308.79,-65.22 315.55,-55"/>
</g>
</g>
</svg>
