<?xml version="1.0" encoding="UTF-8" standalone="no"?>
<?xml-stylesheet href="doxygen.css" type="text/css"?>
<!DOCTYPE svg PUBLIC "-//W3C//DTD SVG 1.1//EN"
 "http://www.w3.org/Graphics/SVG/1.1/DTD/svg11.dtd">
<!-- Generated by graphviz version 14.1.1 (20251213.1925)
 -->
<!-- Title: G Pages: 1 -->
<svg width="495pt" height="477pt"
 viewBox="0.00 0.00 495.00 477.00" xmlns="http://www.w3.org/2000/svg" xmlns:xlink="http://www.w3.org/1999/xlink">
<g id="graph0" class="graph" transform="scale(1 1) rotate(0) translate(4 472.8)">
<title>G</title>
<polygon fill="white" stroke="none" points="-4,4 -4,-472.8 491,-472.8 491,4 -4,4"/>
<!-- node8 -->
<g id="node1" class="node">
<title>node8</title>
<path fill="none" stroke="black" d="M201.2,-468.8C201.2,-468.8 31.45,-468.8 31.45,-468.8 25.45,-468.8 19.45,-462.8 19.45,-456.8 19.45,-456.8 19.45,-444.8 19.45,-444.8 19.45,-438.8 25.45,-432.8 31.45,-432.8 31.45,-432.8 201.2,-432.8 201.2,-432.8 207.2,-432.8 213.2,-438.8 213.2,-444.8 213.2,-444.8 213.2,-456.8 213.2,-456.8 213.2,-462.8 207.2,-468.8 201.2,-468.8"/>
<polygon fill="white" stroke="none" points="27.45,-442.55 27.45,-459.05 205.2,-459.05 205.2,-442.55 27.45,-442.55"/>
<text xml:space="preserve" text-anchor="start" x="27.45" y="-445.75" font-family="Times New Roman,serif" font-size="14.00"> johnson_proc:process( clk,arst) </text>
</g>
<!-- node1 -->
<g id="node2" class="node">
<title>node1</title>
<polygon fill="#c1b2ff" stroke="#c1b2ff" points="116.32,-395.8 7.51,-377.8 116.32,-359.8 225.14,-377.8 116.32,-395.8"/>
<text xml:space="preserve" text-anchor="middle" x="116.32" y="-372.75" font-family="Times New Roman,serif" font-size="14.00"> if &#160;&#160;&#160;arst= &#39;1&#39; then</text>
</g>
<!-- node8&#45;&gt;node1 -->
<g id="edge1" class="edge">
<title>node8&#45;&gt;node1:n</title>
<path fill="none" stroke="green" d="M116.32,-432.78C116.32,-425.3 116.32,-416.18 116.32,-407.11"/>
<polygon fill="green" stroke="green" points="119.83,-407.31 116.33,-397.31 112.83,-407.31 119.83,-407.31"/>
</g>
<!-- node2 -->
<g id="node3" class="node">
<title>node2</title>
<polygon fill="lightcyan" stroke="none" points="7.2,-223.6 7.2,-246.1 135.45,-246.1 135.45,-223.6 7.2,-223.6"/>
<polygon fill="none" stroke="black" points="7.2,-223.6 7.2,-246.1 135.45,-246.1 135.45,-223.6 7.2,-223.6"/>
<text xml:space="preserve" text-anchor="start" x="10.2" y="-229.8" font-family="Times New Roman,serif" font-size="14.00"> q_i&lt;=( others =&gt; &#39;0&#39;) </text>
</g>
<!-- node1&#45;&gt;node2 -->
<g id="edge2" class="edge">
<title>node1:s&#45;&gt;node2</title>
<path fill="none" stroke="red" d="M116.32,-359.8C116.32,-350.19 108.46,-350.48 104.32,-341.8 92.36,-316.71 83.4,-286.25 77.86,-264.44"/>
<polygon fill="red" stroke="red" points="81.27,-263.65 75.49,-254.77 74.47,-265.32 81.27,-263.65"/>
<text xml:space="preserve" text-anchor="middle" x="113.32" y="-328.5" font-family="Times New Roman,serif" font-size="14.00">yes</text>
</g>
<!-- node3 -->
<g id="node4" class="node">
<title>node3</title>
<polygon fill="#c1b2ff" stroke="#c1b2ff" points="312.32,-307.3 137.65,-289.3 312.32,-271.3 487,-289.3 312.32,-307.3"/>
<text xml:space="preserve" text-anchor="middle" x="312.32" y="-284.25" font-family="Times New Roman,serif" font-size="14.00"> elsif &#160;&#160;&#160;rising_edge( clk ) then</text>
</g>
<!-- node1&#45;&gt;node3 -->
<g id="edge3" class="edge">
<title>node1:s&#45;&gt;node3</title>
<path fill="none" stroke="black" d="M116.32,-359.8C116.32,-333.45 180.03,-314.56 234.8,-303.18"/>
<polygon fill="black" stroke="black" points="235.37,-306.64 244.48,-301.24 233.99,-299.78 235.37,-306.64"/>
<text xml:space="preserve" text-anchor="middle" x="160.57" y="-328.5" font-family="Times New Roman,serif" font-size="14.00">no</text>
</g>
<!-- node9 -->
<g id="node7" class="node">
<title>node9</title>
<path fill="none" stroke="black" d="M439.82,-36C439.82,-36 372.82,-36 372.82,-36 366.82,-36 360.82,-30 360.82,-24 360.82,-24 360.82,-12 360.82,-12 360.82,-6 366.82,0 372.82,0 372.82,0 439.82,0 439.82,0 445.82,0 451.82,-6 451.82,-12 451.82,-12 451.82,-24 451.82,-24 451.82,-30 445.82,-36 439.82,-36"/>
<polygon fill="white" stroke="none" points="368.82,-9.75 368.82,-26.25 443.82,-26.25 443.82,-9.75 368.82,-9.75"/>
<text xml:space="preserve" text-anchor="start" x="368.82" y="-12.95" font-family="Times New Roman,serif" font-size="14.00"> end process &#160;</text>
</g>
<!-- node2&#45;&gt;node9 -->
<g id="edge4" class="edge">
<title>node2&#45;&gt;node9</title>
<path fill="none" stroke="green" d="M66.21,-216.56C57.59,-183.43 44.65,-110.95 83.32,-73 108.98,-47.82 384.93,-83.88 406.32,-55"/>
<path fill="none" stroke="green" d="M406.32,-54C407.76,-52.05 408.75,-49.86 409.4,-47.55"/>
<polygon fill="green" stroke="green" points="412.86,-48.1 410.19,-37.85 405.89,-47.53 412.86,-48.1"/>
</g>
<!-- node4 -->
<g id="node5" class="node">
<title>node4</title>
<polygon fill="#c1b2ff" stroke="#c1b2ff" points="312.32,-198.4 210.75,-180.4 312.32,-162.4 413.9,-180.4 312.32,-198.4"/>
<text xml:space="preserve" text-anchor="middle" x="312.32" y="-175.35" font-family="Times New Roman,serif" font-size="14.00"> if &#160;&#160;&#160;ce= &#39;1&#39; then</text>
</g>
<!-- node3&#45;&gt;node4 -->
<g id="edge5" class="edge">
<title>node3&#45;&gt;node4:n</title>
<path fill="none" stroke="red" d="M312.32,-271.07C312.32,-255.66 312.32,-232.13 312.32,-209.87"/>
<polygon fill="red" stroke="red" points="315.83,-209.91 312.33,-199.91 308.83,-209.91 315.83,-209.91"/>
<text xml:space="preserve" text-anchor="middle" x="321.32" y="-229.8" font-family="Times New Roman,serif" font-size="14.00">yes</text>
</g>
<!-- node3&#45;&gt;node9 -->
<g id="edge6" class="edge">
<title>node3&#45;&gt;node9</title>
<path fill="none" stroke="black" d="M342.02,-273.99C368.86,-259.23 406.62,-233.43 423.32,-198.4 432.59,-178.98 423.84,-108.88 414.32,-73 412.08,-64.54 401.13,-62.05 406.32,-55"/>
<text xml:space="preserve" text-anchor="middle" x="432.74" y="-131.1" font-family="Times New Roman,serif" font-size="14.00">no</text>
</g>
<!-- node5 -->
<g id="node6" class="node">
<title>node5</title>
<polygon fill="lightcyan" stroke="none" points="99.7,-80.2 99.7,-102.7 362.95,-102.7 362.95,-80.2 99.7,-80.2"/>
<polygon fill="none" stroke="black" points="99.7,-80.2 99.7,-102.7 362.95,-102.7 362.95,-80.2 99.7,-80.2"/>
<text xml:space="preserve" text-anchor="start" x="102.7" y="-86.4" font-family="Times New Roman,serif" font-size="14.00"> q_i&lt;= &#160;&#160;q_i( 1 DOWNTO &#160;0)&amp;not ( &#160;&#160;q_i( 2)) </text>
</g>
<!-- node4&#45;&gt;node5 -->
<g id="edge7" class="edge">
<title>node4:s&#45;&gt;node5</title>
<path fill="none" stroke="red" d="M312.32,-162.4C312.32,-142.49 298.13,-126.99 281.63,-115.7"/>
<polygon fill="red" stroke="red" points="283.92,-113 273.58,-110.66 280.2,-118.94 283.92,-113"/>
<text xml:space="preserve" text-anchor="middle" x="317.01" y="-131.1" font-family="Times New Roman,serif" font-size="14.00">yes</text>
</g>
<!-- node4&#45;&gt;node9 -->
<g id="edge8" class="edge">
<title>node4:s&#45;&gt;node9</title>
<path fill="none" stroke="black" d="M312.32,-162.4C312.32,-152.94 373.37,-117.24 379.32,-109.9 396.46,-88.78 390.21,-76.9 406.32,-55"/>
<text xml:space="preserve" text-anchor="middle" x="403.09" y="-86.4" font-family="Times New Roman,serif" font-size="14.00">no</text>
</g>
<!-- node5&#45;&gt;node9 -->
<g id="edge9" class="edge">
<title>node5&#45;&gt;node9</title>
<path fill="none" stroke="green" d="M369.88,-73.79C387,-69 400.54,-62.86 406.32,-55"/>
</g>
</g>
</svg>
