G04 EAGLE Gerber RS-274X export*
G75*
%MOMM*%
%FSLAX34Y34*%
%LPD*%
%INBottom Copper*%
%IPPOS*%
%AMOC8*
5,1,8,0,0,1.08239X$1,22.5*%
G01*
%ADD10C,1.981200*%
%ADD11P,2.749271X8X22.500000*%
%ADD12C,0.756400*%

G36*
X590062Y2544D02*
X590062Y2544D01*
X590081Y2542D01*
X590183Y2564D01*
X590285Y2581D01*
X590302Y2590D01*
X590322Y2594D01*
X590411Y2647D01*
X590502Y2696D01*
X590516Y2710D01*
X590533Y2720D01*
X590600Y2799D01*
X590672Y2874D01*
X590680Y2892D01*
X590693Y2907D01*
X590732Y3003D01*
X590775Y3097D01*
X590777Y3117D01*
X590785Y3135D01*
X590803Y3302D01*
X590803Y72803D01*
X590792Y72874D01*
X590790Y72945D01*
X590772Y72994D01*
X590764Y73046D01*
X590730Y73109D01*
X590705Y73176D01*
X590673Y73217D01*
X590648Y73263D01*
X590597Y73312D01*
X590552Y73368D01*
X590508Y73397D01*
X590470Y73432D01*
X590405Y73463D01*
X590345Y73501D01*
X590294Y73514D01*
X590247Y73536D01*
X590176Y73544D01*
X590106Y73561D01*
X590054Y73557D01*
X590003Y73563D01*
X589932Y73548D01*
X589861Y73542D01*
X589813Y73522D01*
X589762Y73511D01*
X589701Y73474D01*
X589635Y73446D01*
X589579Y73401D01*
X589551Y73385D01*
X589536Y73367D01*
X589504Y73341D01*
X586520Y70357D01*
X578677Y70357D01*
X578583Y70342D01*
X578488Y70333D01*
X578462Y70322D01*
X578434Y70318D01*
X578350Y70273D01*
X578263Y70235D01*
X578242Y70216D01*
X578217Y70202D01*
X578151Y70133D01*
X578081Y70069D01*
X578067Y70045D01*
X578048Y70024D01*
X578007Y69938D01*
X577961Y69854D01*
X577956Y69827D01*
X577944Y69801D01*
X577934Y69706D01*
X577916Y69613D01*
X577920Y69585D01*
X577917Y69557D01*
X577937Y69463D01*
X577951Y69369D01*
X577965Y69337D01*
X577969Y69316D01*
X577986Y69288D01*
X578018Y69215D01*
X578837Y67796D01*
X581659Y57267D01*
X581659Y46365D01*
X578837Y35836D01*
X573387Y26395D01*
X565679Y18687D01*
X556238Y13237D01*
X545709Y10415D01*
X534807Y10415D01*
X524278Y13237D01*
X514837Y18687D01*
X507129Y26395D01*
X501679Y35836D01*
X498857Y46365D01*
X498857Y57267D01*
X501679Y67796D01*
X507129Y77237D01*
X514837Y84945D01*
X518073Y86813D01*
X518129Y86858D01*
X518190Y86896D01*
X518223Y86936D01*
X518263Y86969D01*
X518302Y87030D01*
X518348Y87085D01*
X518367Y87133D01*
X518394Y87177D01*
X518411Y87247D01*
X518437Y87314D01*
X518440Y87366D01*
X518452Y87416D01*
X518445Y87488D01*
X518449Y87559D01*
X518435Y87609D01*
X518430Y87661D01*
X518401Y87727D01*
X518382Y87796D01*
X518352Y87839D01*
X518331Y87887D01*
X518283Y87940D01*
X518242Y87999D01*
X518201Y88030D01*
X518166Y88069D01*
X518103Y88104D01*
X518046Y88147D01*
X517979Y88173D01*
X517951Y88188D01*
X517928Y88193D01*
X517890Y88208D01*
X510120Y90289D01*
X502069Y94938D01*
X495496Y101511D01*
X490847Y109562D01*
X488441Y118542D01*
X488441Y147650D01*
X490847Y156630D01*
X495496Y164681D01*
X502069Y171254D01*
X510120Y175903D01*
X519100Y178309D01*
X528396Y178309D01*
X531679Y177429D01*
X531798Y177417D01*
X531915Y177404D01*
X531920Y177405D01*
X531924Y177405D01*
X532039Y177431D01*
X532156Y177456D01*
X532159Y177459D01*
X532164Y177460D01*
X532265Y177522D01*
X532367Y177583D01*
X532370Y177586D01*
X532373Y177588D01*
X532450Y177680D01*
X532527Y177770D01*
X532528Y177773D01*
X532531Y177777D01*
X532574Y177887D01*
X532619Y177998D01*
X532619Y178003D01*
X532621Y178006D01*
X532621Y178019D01*
X532637Y178164D01*
X532637Y190280D01*
X549210Y206853D01*
X549222Y206869D01*
X549237Y206881D01*
X549294Y206969D01*
X549354Y207052D01*
X549360Y207071D01*
X549370Y207088D01*
X549396Y207189D01*
X549426Y207288D01*
X549426Y207307D01*
X549430Y207327D01*
X549422Y207430D01*
X549420Y207533D01*
X549413Y207552D01*
X549411Y207572D01*
X549371Y207667D01*
X549335Y207764D01*
X549323Y207780D01*
X549315Y207798D01*
X549210Y207929D01*
X542578Y214561D01*
X542543Y214587D01*
X542513Y214619D01*
X542443Y214658D01*
X542378Y214705D01*
X542336Y214718D01*
X542298Y214739D01*
X542220Y214754D01*
X542143Y214777D01*
X542099Y214776D01*
X542056Y214784D01*
X541977Y214773D01*
X541897Y214771D01*
X541856Y214756D01*
X541813Y214750D01*
X541680Y214691D01*
X541666Y214686D01*
X541664Y214684D01*
X541659Y214682D01*
X537376Y212209D01*
X528396Y209803D01*
X519100Y209803D01*
X510120Y212209D01*
X502069Y216858D01*
X495496Y223431D01*
X490847Y231482D01*
X488905Y238731D01*
X488888Y238770D01*
X488879Y238808D01*
X488854Y238850D01*
X488833Y238907D01*
X488815Y238929D01*
X488804Y238955D01*
X488769Y238993D01*
X488753Y239019D01*
X488723Y239045D01*
X488679Y239099D01*
X488656Y239115D01*
X488636Y239135D01*
X488584Y239164D01*
X488566Y239179D01*
X488537Y239191D01*
X488472Y239232D01*
X488445Y239239D01*
X488420Y239253D01*
X488355Y239264D01*
X488338Y239271D01*
X488304Y239275D01*
X488234Y239292D01*
X488206Y239290D01*
X488178Y239295D01*
X488084Y239281D01*
X487989Y239273D01*
X487963Y239262D01*
X487935Y239258D01*
X487850Y239214D01*
X487762Y239177D01*
X487735Y239155D01*
X487716Y239145D01*
X487708Y239137D01*
X487704Y239135D01*
X487686Y239116D01*
X487631Y239072D01*
X485737Y237178D01*
X477686Y232529D01*
X468706Y230123D01*
X459410Y230123D01*
X450430Y232529D01*
X442379Y237178D01*
X440485Y239072D01*
X440407Y239128D01*
X440386Y239145D01*
X440347Y239179D01*
X440345Y239180D01*
X440334Y239189D01*
X440308Y239199D01*
X440285Y239216D01*
X440194Y239244D01*
X440105Y239278D01*
X440077Y239280D01*
X440050Y239288D01*
X439981Y239286D01*
X439952Y239290D01*
X439945Y239290D01*
X439929Y239287D01*
X439859Y239290D01*
X439832Y239282D01*
X439804Y239282D01*
X439728Y239254D01*
X439702Y239250D01*
X439685Y239241D01*
X439623Y239223D01*
X439599Y239207D01*
X439573Y239197D01*
X439514Y239150D01*
X439485Y239135D01*
X439467Y239116D01*
X439420Y239084D01*
X439403Y239061D01*
X439381Y239044D01*
X439345Y238987D01*
X439315Y238956D01*
X439301Y238926D01*
X439272Y238887D01*
X439259Y238854D01*
X439248Y238837D01*
X439240Y238805D01*
X439213Y238737D01*
X439212Y238733D01*
X439212Y238732D01*
X439211Y238731D01*
X437269Y231482D01*
X432620Y223431D01*
X426047Y216858D01*
X417996Y212209D01*
X409016Y209803D01*
X399720Y209803D01*
X390740Y212209D01*
X382689Y216858D01*
X376116Y223431D01*
X371467Y231482D01*
X369061Y240462D01*
X369061Y245523D01*
X369050Y245594D01*
X369048Y245665D01*
X369030Y245714D01*
X369022Y245766D01*
X368988Y245829D01*
X368963Y245896D01*
X368931Y245937D01*
X368906Y245983D01*
X368854Y246032D01*
X368810Y246088D01*
X368766Y246117D01*
X368728Y246152D01*
X368663Y246183D01*
X368603Y246221D01*
X368552Y246234D01*
X368505Y246256D01*
X368434Y246264D01*
X368364Y246281D01*
X368312Y246277D01*
X368261Y246283D01*
X368190Y246268D01*
X368119Y246262D01*
X368071Y246242D01*
X368020Y246231D01*
X367959Y246194D01*
X367893Y246166D01*
X367837Y246121D01*
X367809Y246105D01*
X367794Y246087D01*
X367762Y246061D01*
X356904Y235203D01*
X325340Y235203D01*
X303021Y257522D01*
X303021Y289086D01*
X318531Y304595D01*
X318542Y304611D01*
X318558Y304624D01*
X318614Y304711D01*
X318674Y304795D01*
X318680Y304814D01*
X318691Y304831D01*
X318716Y304931D01*
X318746Y305030D01*
X318746Y305050D01*
X318751Y305069D01*
X318743Y305172D01*
X318740Y305276D01*
X318733Y305295D01*
X318732Y305314D01*
X318691Y305409D01*
X318656Y305507D01*
X318643Y305522D01*
X318635Y305541D01*
X318531Y305672D01*
X303371Y320832D01*
X303371Y352395D01*
X325689Y374714D01*
X357253Y374714D01*
X379572Y352395D01*
X379572Y320832D01*
X364063Y305322D01*
X364051Y305306D01*
X364036Y305294D01*
X363979Y305206D01*
X363919Y305123D01*
X363913Y305104D01*
X363903Y305087D01*
X363877Y304986D01*
X363847Y304888D01*
X363847Y304868D01*
X363842Y304848D01*
X363850Y304745D01*
X363853Y304642D01*
X363860Y304623D01*
X363862Y304603D01*
X363902Y304508D01*
X363938Y304411D01*
X363950Y304395D01*
X363958Y304377D01*
X364046Y304267D01*
X364046Y304266D01*
X364047Y304266D01*
X364063Y304246D01*
X378373Y289935D01*
X378390Y289924D01*
X378402Y289908D01*
X378489Y289852D01*
X378573Y289792D01*
X378592Y289786D01*
X378609Y289775D01*
X378709Y289750D01*
X378808Y289719D01*
X378828Y289720D01*
X378847Y289715D01*
X378950Y289723D01*
X379054Y289726D01*
X379073Y289733D01*
X379093Y289734D01*
X379188Y289774D01*
X379285Y289810D01*
X379301Y289823D01*
X379319Y289830D01*
X379450Y289935D01*
X382689Y293174D01*
X390740Y297823D01*
X399720Y300229D01*
X409016Y300229D01*
X417996Y297823D01*
X426047Y293174D01*
X427941Y291280D01*
X428019Y291224D01*
X428092Y291163D01*
X428118Y291153D01*
X428141Y291136D01*
X428232Y291108D01*
X428321Y291074D01*
X428349Y291072D01*
X428376Y291064D01*
X428472Y291066D01*
X428567Y291062D01*
X428594Y291070D01*
X428622Y291070D01*
X428712Y291103D01*
X428803Y291129D01*
X428827Y291145D01*
X428853Y291155D01*
X428928Y291214D01*
X429006Y291268D01*
X429023Y291291D01*
X429045Y291308D01*
X429097Y291389D01*
X429154Y291465D01*
X429167Y291498D01*
X429178Y291515D01*
X429186Y291547D01*
X429215Y291621D01*
X431157Y298870D01*
X435806Y306921D01*
X442379Y313494D01*
X450430Y318143D01*
X459410Y320549D01*
X468706Y320549D01*
X477686Y318143D01*
X485737Y313494D01*
X492310Y306921D01*
X496959Y298870D01*
X498901Y291621D01*
X498940Y291534D01*
X498973Y291445D01*
X498991Y291423D01*
X499002Y291397D01*
X499067Y291327D01*
X499127Y291253D01*
X499150Y291237D01*
X499170Y291217D01*
X499253Y291171D01*
X499334Y291120D01*
X499361Y291113D01*
X499386Y291099D01*
X499480Y291083D01*
X499572Y291060D01*
X499600Y291062D01*
X499628Y291057D01*
X499722Y291071D01*
X499817Y291079D01*
X499843Y291090D01*
X499871Y291094D01*
X499956Y291138D01*
X500044Y291175D01*
X500071Y291197D01*
X500090Y291207D01*
X500113Y291230D01*
X500175Y291280D01*
X502069Y293174D01*
X510120Y297823D01*
X519100Y300229D01*
X528396Y300229D01*
X537376Y297823D01*
X545427Y293174D01*
X552000Y286601D01*
X556378Y279019D01*
X556420Y278967D01*
X556455Y278909D01*
X556498Y278872D01*
X556533Y278829D01*
X556591Y278793D01*
X556642Y278749D01*
X556694Y278728D01*
X556742Y278698D01*
X556807Y278682D01*
X556870Y278657D01*
X556949Y278648D01*
X556981Y278641D01*
X557002Y278643D01*
X557037Y278639D01*
X586266Y278639D01*
X589504Y275401D01*
X589562Y275359D01*
X589614Y275310D01*
X589661Y275288D01*
X589703Y275257D01*
X589772Y275236D01*
X589837Y275206D01*
X589889Y275200D01*
X589939Y275185D01*
X590010Y275187D01*
X590081Y275179D01*
X590132Y275190D01*
X590184Y275191D01*
X590252Y275216D01*
X590322Y275231D01*
X590366Y275258D01*
X590415Y275276D01*
X590471Y275321D01*
X590533Y275357D01*
X590567Y275397D01*
X590607Y275429D01*
X590646Y275490D01*
X590693Y275544D01*
X590712Y275593D01*
X590740Y275636D01*
X590758Y275706D01*
X590785Y275772D01*
X590793Y275844D01*
X590801Y275875D01*
X590799Y275898D01*
X590803Y275939D01*
X590803Y390144D01*
X590800Y390164D01*
X590802Y390183D01*
X590780Y390285D01*
X590764Y390387D01*
X590754Y390404D01*
X590750Y390424D01*
X590697Y390513D01*
X590648Y390604D01*
X590634Y390618D01*
X590624Y390635D01*
X590545Y390702D01*
X590470Y390774D01*
X590452Y390782D01*
X590437Y390795D01*
X590341Y390834D01*
X590247Y390877D01*
X590227Y390879D01*
X590209Y390887D01*
X590042Y390905D01*
X3048Y390905D01*
X3028Y390902D01*
X3009Y390904D01*
X2907Y390882D01*
X2805Y390866D01*
X2788Y390856D01*
X2768Y390852D01*
X2679Y390799D01*
X2588Y390750D01*
X2574Y390736D01*
X2557Y390726D01*
X2490Y390647D01*
X2419Y390572D01*
X2410Y390554D01*
X2397Y390539D01*
X2358Y390443D01*
X2315Y390349D01*
X2313Y390329D01*
X2305Y390311D01*
X2287Y390144D01*
X2287Y3302D01*
X2290Y3282D01*
X2288Y3263D01*
X2310Y3161D01*
X2327Y3059D01*
X2336Y3042D01*
X2340Y3022D01*
X2393Y2933D01*
X2442Y2842D01*
X2456Y2828D01*
X2466Y2811D01*
X2545Y2744D01*
X2620Y2673D01*
X2638Y2664D01*
X2653Y2651D01*
X2749Y2612D01*
X2843Y2569D01*
X2863Y2567D01*
X2881Y2559D01*
X3048Y2541D01*
X590042Y2541D01*
X590062Y2544D01*
G37*
%LPC*%
G36*
X45719Y221233D02*
X45719Y221233D01*
X45719Y221996D01*
X45716Y222016D01*
X45718Y222035D01*
X45696Y222137D01*
X45679Y222239D01*
X45670Y222256D01*
X45666Y222276D01*
X45613Y222365D01*
X45564Y222456D01*
X45550Y222470D01*
X45540Y222487D01*
X45461Y222554D01*
X45386Y222625D01*
X45368Y222634D01*
X45353Y222647D01*
X45257Y222686D01*
X45163Y222729D01*
X45143Y222731D01*
X45125Y222739D01*
X44958Y222757D01*
X30479Y222757D01*
X30479Y225806D01*
X30476Y225826D01*
X30478Y225845D01*
X30456Y225947D01*
X30440Y226049D01*
X30430Y226066D01*
X30426Y226086D01*
X30373Y226175D01*
X30324Y226266D01*
X30310Y226280D01*
X30300Y226297D01*
X30221Y226364D01*
X30146Y226436D01*
X30128Y226444D01*
X30113Y226457D01*
X30017Y226496D01*
X29923Y226539D01*
X29903Y226541D01*
X29885Y226549D01*
X29718Y226567D01*
X29176Y226567D01*
X6857Y248886D01*
X6857Y280450D01*
X29176Y302769D01*
X35007Y302769D01*
X35055Y302776D01*
X35103Y302775D01*
X35175Y302796D01*
X35250Y302808D01*
X35292Y302831D01*
X35338Y302845D01*
X35401Y302888D01*
X35467Y302924D01*
X35500Y302958D01*
X35540Y302986D01*
X35585Y303047D01*
X35637Y303102D01*
X35657Y303145D01*
X35685Y303184D01*
X35708Y303256D01*
X35740Y303325D01*
X35746Y303373D01*
X35760Y303418D01*
X35759Y303494D01*
X35767Y303569D01*
X35757Y303616D01*
X35757Y303664D01*
X35731Y303736D01*
X35715Y303810D01*
X35691Y303851D01*
X35675Y303896D01*
X35628Y303956D01*
X35589Y304021D01*
X35553Y304052D01*
X35523Y304090D01*
X35419Y304166D01*
X35402Y304181D01*
X35396Y304183D01*
X35388Y304189D01*
X27919Y308501D01*
X20211Y316209D01*
X14761Y325650D01*
X11939Y336179D01*
X11939Y347081D01*
X14761Y357610D01*
X20211Y367051D01*
X27919Y374759D01*
X37360Y380209D01*
X47889Y383031D01*
X58791Y383031D01*
X69320Y380209D01*
X78761Y374759D01*
X86469Y367051D01*
X91919Y357610D01*
X94741Y347081D01*
X94741Y336179D01*
X91919Y325650D01*
X86469Y316209D01*
X78761Y308501D01*
X69320Y303051D01*
X63604Y301519D01*
X63518Y301480D01*
X63428Y301447D01*
X63406Y301430D01*
X63380Y301418D01*
X63310Y301353D01*
X63236Y301293D01*
X63221Y301270D01*
X63200Y301251D01*
X63154Y301167D01*
X63103Y301087D01*
X63096Y301059D01*
X63082Y301034D01*
X63066Y300940D01*
X63043Y300848D01*
X63045Y300820D01*
X63040Y300792D01*
X63055Y300698D01*
X63062Y300603D01*
X63073Y300577D01*
X63077Y300549D01*
X63121Y300464D01*
X63158Y300377D01*
X63180Y300349D01*
X63190Y300330D01*
X63214Y300307D01*
X63263Y300246D01*
X83059Y280450D01*
X83059Y248886D01*
X61184Y227011D01*
X61131Y226937D01*
X61071Y226868D01*
X61059Y226838D01*
X61040Y226811D01*
X61013Y226724D01*
X60979Y226640D01*
X60975Y226599D01*
X60968Y226576D01*
X60969Y226544D01*
X60961Y226473D01*
X60961Y222757D01*
X46482Y222757D01*
X46462Y222754D01*
X46443Y222756D01*
X46341Y222734D01*
X46239Y222717D01*
X46222Y222708D01*
X46202Y222704D01*
X46113Y222651D01*
X46022Y222602D01*
X46008Y222588D01*
X45991Y222578D01*
X45924Y222499D01*
X45853Y222424D01*
X45844Y222406D01*
X45831Y222391D01*
X45793Y222295D01*
X45749Y222201D01*
X45747Y222181D01*
X45739Y222163D01*
X45721Y221996D01*
X45721Y221233D01*
X45719Y221233D01*
G37*
%LPD*%
%LPC*%
G36*
X534553Y300737D02*
X534553Y300737D01*
X524024Y303559D01*
X514583Y309009D01*
X506875Y316717D01*
X501425Y326158D01*
X498603Y336687D01*
X498603Y347589D01*
X501425Y358118D01*
X506875Y367559D01*
X514583Y375267D01*
X524024Y380717D01*
X534553Y383539D01*
X545455Y383539D01*
X555984Y380717D01*
X565425Y375267D01*
X573133Y367559D01*
X578583Y358118D01*
X581405Y347589D01*
X581405Y336687D01*
X578583Y326158D01*
X573133Y316717D01*
X565425Y309009D01*
X555984Y303559D01*
X545455Y300737D01*
X534553Y300737D01*
G37*
%LPD*%
%LPC*%
G36*
X47889Y9907D02*
X47889Y9907D01*
X37360Y12729D01*
X27919Y18179D01*
X20211Y25887D01*
X14761Y35328D01*
X11939Y45857D01*
X11939Y56759D01*
X14761Y67288D01*
X20211Y76729D01*
X27919Y84437D01*
X37360Y89887D01*
X47889Y92709D01*
X58791Y92709D01*
X69320Y89887D01*
X78761Y84437D01*
X86469Y76729D01*
X91919Y67288D01*
X94741Y56759D01*
X94741Y45857D01*
X91919Y35328D01*
X86469Y25887D01*
X78761Y18179D01*
X69320Y12729D01*
X58791Y9907D01*
X47889Y9907D01*
G37*
%LPD*%
%LPC*%
G36*
X399720Y87883D02*
X399720Y87883D01*
X390740Y90289D01*
X382689Y94938D01*
X376116Y101511D01*
X371467Y109562D01*
X369061Y118542D01*
X369061Y147650D01*
X371467Y156630D01*
X376116Y164681D01*
X382689Y171254D01*
X390740Y175903D01*
X399720Y178309D01*
X409016Y178309D01*
X417996Y175903D01*
X426047Y171254D01*
X432620Y164681D01*
X437269Y156630D01*
X439675Y147650D01*
X439675Y118542D01*
X437269Y109562D01*
X432620Y101511D01*
X426047Y94938D01*
X417996Y90289D01*
X409016Y87883D01*
X399720Y87883D01*
G37*
%LPD*%
%LPC*%
G36*
X47243Y205993D02*
X47243Y205993D01*
X47243Y219711D01*
X60961Y219711D01*
X60961Y214921D01*
X52033Y205993D01*
X47243Y205993D01*
G37*
%LPD*%
%LPC*%
G36*
X39407Y205993D02*
X39407Y205993D01*
X30479Y214921D01*
X30479Y219711D01*
X44197Y219711D01*
X44197Y205993D01*
X39407Y205993D01*
G37*
%LPD*%
D10*
X464058Y285242D02*
X464058Y265430D01*
X404368Y264922D02*
X404368Y245110D01*
X523748Y245110D02*
X523748Y264922D01*
X523748Y143002D02*
X523748Y123190D01*
X404368Y123190D02*
X404368Y143002D01*
D11*
X570484Y240538D03*
X570738Y108458D03*
X570738Y174498D03*
X341471Y336614D03*
X341122Y273304D03*
X44958Y264668D03*
X45720Y221234D03*
D12*
X77216Y302768D03*
X187960Y370332D03*
X191516Y254508D03*
X193802Y203454D03*
X72390Y120650D03*
X304292Y82296D03*
X306324Y128270D03*
X118618Y381000D03*
X366776Y80518D03*
X87884Y22098D03*
M02*
