G04 EAGLE Gerber RS-274X export*
G75*
%MOMM*%
%FSLAX34Y34*%
%LPD*%
%INSoldermask Top*%
%IPPOS*%
%AMOC8*
5,1,8,0,0,1.08239X$1,22.5*%
G01*
%ADD10C,3.403200*%
%ADD11R,2.003200X1.803200*%
%ADD12R,4.103200X1.803200*%
%ADD13R,1.603200X1.603200*%
%ADD14R,5.603200X6.403200*%
%ADD15R,1.203200X1.803200*%
%ADD16R,2.403200X0.803200*%
%ADD17C,2.184400*%
%ADD18R,1.703200X1.703200*%
%ADD19P,2.969212X8X22.500000*%
%ADD20R,2.203200X1.803200*%
%ADD21R,1.803200X2.203200*%
%ADD22R,1.753200X1.503200*%
%ADD23R,1.203200X1.603200*%
%ADD24C,0.959600*%


D10*
X53340Y341630D03*
X53340Y51308D03*
X540004Y342138D03*
X540258Y51816D03*
D11*
X73660Y260828D03*
X73660Y288828D03*
X169418Y340076D03*
X169418Y368076D03*
X324104Y156494D03*
X324104Y128494D03*
D12*
X205658Y273304D03*
X290658Y273304D03*
D13*
X346742Y217184D03*
X346742Y179184D03*
D14*
X118872Y342754D03*
D15*
X96072Y269754D03*
X141672Y269754D03*
D16*
X193964Y181864D03*
X245964Y181864D03*
X193964Y194564D03*
X193964Y169164D03*
X193964Y156464D03*
X245964Y194564D03*
X245964Y169164D03*
X245964Y156464D03*
D17*
X464058Y265430D02*
X464058Y285242D01*
X404368Y264922D02*
X404368Y245110D01*
X523748Y245110D02*
X523748Y264922D01*
X523748Y143002D02*
X523748Y123190D01*
X404368Y123190D02*
X404368Y143002D01*
D18*
X220726Y81814D03*
X220726Y116814D03*
D19*
X570484Y240538D03*
X570738Y108458D03*
X570738Y174498D03*
X341471Y336614D03*
X341122Y273304D03*
D20*
X141478Y211806D03*
X141478Y239806D03*
X103124Y212060D03*
X103124Y240060D03*
D21*
X270226Y207010D03*
X298226Y207010D03*
D20*
X220726Y367314D03*
X220726Y339314D03*
D21*
X290606Y82296D03*
X262606Y82296D03*
X262606Y115570D03*
X290606Y115570D03*
D22*
X167258Y118724D03*
X87758Y118724D03*
X167258Y163724D03*
X87758Y163724D03*
X167512Y34396D03*
X88012Y34396D03*
X167512Y79396D03*
X88012Y79396D03*
D23*
X357632Y115648D03*
X367132Y93648D03*
X348132Y93648D03*
D19*
X44958Y264668D03*
X45720Y221234D03*
D24*
X77216Y302768D03*
X187960Y370332D03*
X191516Y254508D03*
X193802Y203454D03*
X72390Y120650D03*
X304292Y82296D03*
X306324Y128270D03*
X118618Y381000D03*
X366776Y80518D03*
X87884Y22098D03*
M02*
